SplineFontDB: 3.2
FontName: OpenSymbol
FullName: OpenSymbol
FamilyName: OpenSymbol
Weight: Book
Copyright: (c) 2009 Sun Microsystems Inc.\nTHERE DOES NOT EXIST (c) 2011 Julien Nabet\nPRECEDES <-> DOES NOT SUCCEED (c) 2011 Olivier Hallot\nPRIME <-> TRIPLE PRIME (c) 2013 Mathias Hasselmann\nphi <-> phi1 (c) 2015 Khaled Hosny\n(c) 2016 Mike Kaganski\nzero, one, two, three, four, five, six, seven, eight, nine, question, underscore, copyright, registered, uni2215, angle, therefore, lozenge (c) 2010 Google Corporation
Version: 102.10
ItalicAngle: 0
UnderlinePosition: -273
UnderlineWidth: 100
Ascent: 1638
Descent: 410
InvalidEm: 0
sfntRevision: 0x0066199a
LayerCount: 2
Layer: 0 1 "Back" 1
Layer: 1 1 "Fore" 0
XUID: [1021 230 -1439743152 10533]
StyleMap: 0x0040
FSType: 8
OS2Version: 1
OS2_WeightWidthSlopeOnly: 0
OS2_UseTypoMetrics: 0
CreationTime: 656608187
ModificationTime: 1695692020
PfmFamily: 81
TTFWeight: 400
TTFWidth: 5
LineGap: 0
VLineGap: 0
Panose: 5 5 1 2 1 7 6 2 5 7
OS2TypoAscent: 1420
OS2TypoAOffset: 0
OS2TypoDescent: -442
OS2TypoDOffset: 0
OS2TypoLinegap: 307
OS2WinAscent: 2059
OS2WinAOffset: 0
OS2WinDescent: 450
OS2WinDOffset: 0
HheadAscent: 2059
HheadAOffset: 0
HheadDescent: -450
HheadDOffset: 0
OS2SubXSize: 1434
OS2SubYSize: 1331
OS2SubXOff: 0
OS2SubYOff: 293
OS2SupXSize: 1434
OS2SupYSize: 1331
OS2SupXOff: 0
OS2SupYOff: 928
OS2StrikeYSize: 102
OS2StrikeYPos: 530
OS2FamilyClass: 3075
OS2Vendor: 'TMC '
OS2CodePages: 80000000.00000000
OS2UnicodeRanges: 00000000.00000000.00000000.00000000
MarkAttachClasses: 1
DEI: 91125
TtTable: prep
PUSHB_2
 84
 18
NPUSHW
 20
 551
 551
 550
 550
 111
 278
 1
 95
 278
 1
 79
 278
 1
 63
 278
 1
 47
 278
 1
 559
PUSHB_3
 47
 31
 31
PUSHW_1
 558
PUSHB_3
 160
 31
 31
PUSHW_1
 556
PUSHB_3
 29
 41
 31
PUSHW_1
 548
NPUSHB
 11
 225
 26
 31
 49
 39
 18
 31
 60
 39
 41
 31
PUSHW_1
 535
NPUSHB
 59
 108
 41
 31
 224
 170
 25
 31
 225
 170
 25
 31
 171
 39
 50
 31
 136
 60
 50
 31
 131
 60
 50
 31
 47
 60
 50
 31
 118
 39
 50
 31
 60
 39
 41

StartChar: .notdef
Encoding: 255 1 0
AltUni2: 000002.ffffffff.0 000003.ffffffff.0 000004.ffffffff.0 000005.ffffffff.0 000006.ffffffff.0 000007.ffffffff.0 00000a.ffffffff.0 00000b.ffffffff.0 00000c.ffffffff.0 00000e.ffffffff.0 00000f.ffffffff.0 000010.ffffffff.0 000011.ffffffff.0 000012.ffffffff.0 000013.ffffffff.0 000014.ffffffff.0 000015.ffffffff.0 000016.ffffffff.0 000017.ffffffff.0 000018.ffffffff.0 000019.ffffffff.0 00001a.ffffffff.0 00001b.ffffffff.0 00001c.ffffffff.0 00001e.ffffffff.0 00001f.ffffffff.0 00007f.ffffffff.0 0000c4.ffffffff.0 0000c5.ffffffff.0 0000c7.ffffffff.0 0000c9.ffffffff.0 0000d1.ffffffff.0 0000d6.ffffffff.0 0000dc.ffffffff.0 0000e1.ffffffff.0 0000e0.ffffffff.0 0000e2.ffffffff.0 0000e4.ffffffff.0 0000e3.ffffffff.0 0000e5.ffffffff.0 0000e7.ffffffff.0 0000e9.ffffffff.0 0000e8.ffffffff.0 0000ea.ffffffff.0 0000eb.ffffffff.0 0000ed.ffffffff.0 0000ec.ffffffff.0 0000ee.ffffffff.0 0000ef.ffffffff.0 0000f1.ffffffff.0 0000f3.ffffffff.0 0000f2.ffffffff.0 0000f4.ffffffff.0 0000f6.ffffffff.0 0000f5.ffffffff.0 0000fa.ffffffff.0 0000f9.ffffffff.0 0000fb.ffffffff.0 0000fc.ffffffff.0 002020.ffffffff.0 00f8ff.ffffffff.0 0002c7.ffffffff.0 000002.ffffffff.0 000003.ffffffff.0 000004.ffffffff.0 000005.ffffffff.0 000006.ffffffff.0 000007.ffffffff.0 00000a.ffffffff.0 00000b.ffffffff.0 00000c.ffffffff.0 00000e.ffffffff.0 00000f.ffffffff.0 000010.ffffffff.0 000011.ffffffff.0 000012.ffffffff.0 000013.ffffffff.0 000014.ffffffff.0 000015.ffffffff.0 000016.ffffffff.0 000017.ffffffff.0 000018.ffffffff.0 000019.ffffffff.0 00001a.ffffffff.0 00001b.ffffffff.0 00001c.ffffffff.0 00001e.ffffffff.0 00001f.ffffffff.0 00007f.ffffffff.0 0000c4.ffffffff.0 0000c5.ffffffff.0 0000c7.ffffffff.0 0000c9.ffffffff.0 0000d1.ffffffff.0 0000d6.ffffffff.0 0000dc.ffffffff.0 0000e1.ffffffff.0 0000e0.ffffffff.0 0000e2.ffffffff.0 0000e4.ffffffff.0 0000e3.ffffffff.0 0000e5.ffffffff.0 0000e7.ffffffff.0 0000e9.ffffffff.0 0000e8.ffffffff.0 0000ea.ffffffff.0 0000eb.ffffffff.0 0000ed.ffffffff.0 0000ec.ffffffff.0 0000ee.ffffffff.0 0000ef.ffffffff.0 0000f1.ffffffff.0 0000f3.ffffffff.0 0000f2.ffffffff.0 0000f4.ffffffff.0 0000f6.ffffffff.0 0000f5.ffffffff.0 0000fa.ffffffff.0 0000f9.ffffffff.0 0000fb.ffffffff.0 0000fc.ffffffff.0 002020.ffffffff.0 0002c7.ffffffff.0
Width: 1824
GlyphClass: 1
Flags: W
LayerCount: 2
Fore
SplineSet
322 148 m 1,0,-1
 1506 148 l 1,1,-1
 1506 1332 l 1,2,-1
 322 1332 l 1,3,-1
 322 148 l 1,0,-1
172 0 m 1,4,-1
 172 1480 l 1,5,-1
 1652 1480 l 1,6,-1
 1652 0 l 1,7,-1
 172 0 l 1,4,-1
EndSplineSet
EndChar

StartChar: exclam
Encoding: 33 33 4
Width: 606
GlyphClass: 1
Flags: W
LayerCount: 2
Fore
SplineSet
319 358 m 1,0,-1
 281 358 l 1,1,-1
 221 803 l 2,2,3
 186 1072 186 1072 186 1247 c 0,4,5
 186 1302 186 1302 217 1345 c 0,6,7
 248 1386 248 1386 301 1386 c 0,8,9
 414 1386 414 1386 414 1237 c 0,10,11
 414 1062 414 1062 379 797 c 2,12,-1
 319 358 l 1,0,-1
299 193 m 128,-1,14
 342 193 342 193 376 160 c 0,15,16
 410 126 410 126 410 84 c 0,17,18
 410 38 410 38 377 4 c 0,19,20
 344 -29 344 -29 299 -29 c 0,21,22
 255 -29 255 -29 221 5 c 0,23,24
 188 40 188 40 188 84 c 0,25,26
 188 126 188 126 222 160 c 0,27,13
 256 193 256 193 299 193 c 128,-1,14
EndSplineSet
EndChar

StartChar: universal
Encoding: 34 34 5
Width: 1464
GlyphClass: 1
Flags: W
LayerCount: 2
Fore
SplineSet
1192 1055 m 1,0,-1
 1328 1446 l 1,1,-1
 1448 1446 l 1,2,-1
 983 76 l 1,3,-1
 819 76 l 1,4,-1
 351 1446 l 1,5,-1
 476 1446 l 1,6,-1
 613 1055 l 1,7,-1
 1192 1055 l 1,0,-1
1157 924 m 1,8,-1
 647 924 l 1,9,-1
 903 198 l 1,10,-1
 1157 924 l 1,8,-1
EndSplineSet
EndChar

StartChar: numbersign
Encoding: 35 35 6
Width: 1138
GlyphClass: 1
Flags: W
LayerCount: 2
Fore
SplineSet
102 -25 m 1,0,-1
 188 401 l 1,1,-1
 20 401 l 1,2,-1
 20 551 l 1,3,-1
 219 551 l 1,4,-1
 293 913 l 1,5,-1
 20 913 l 1,6,-1
 20 1063 l 1,7,-1
 324 1063 l 1,8,-1
 412 1491 l 1,9,-1
 559 1491 l 1,10,-1
 473 1063 l 1,11,-1
 788 1063 l 1,12,-1
 877 1491 l 1,13,-1
 1026 1491 l 1,14,-1
 938 1063 l 1,15,-1
 1112 1063 l 1,16,-1
 1112 913 l 1,17,-1
 909 913 l 1,18,-1
 834 551 l 1,19,-1
 1112 551 l 1,20,-1
 1112 401 l 1,21,-1
 805 401 l 1,22,-1
 719 -25 l 1,23,-1
 567 -25 l 1,24,-1
 653 401 l 1,25,-1
 340 401 l 1,26,-1
 254 -25 l 1,27,-1
 102 -25 l 1,0,-1
369 551 m 1,28,-1
 684 551 l 1,29,-1
 758 913 l 1,30,-1
 444 913 l 1,31,-1
 369 551 l 1,28,-1
EndSplineSet
EndChar

StartChar: existential
Encoding: 36 36 7
Width: 1345
GlyphClass: 1
Flags: W
LayerCount: 2
Fore
SplineSet
117 2 m 1,0,-1
 117 131 l 1,1,-1
 1034 131 l 1,2,-1
 1034 670 l 1,3,-1
 217 670 l 1,4,-1
 217 805 l 1,5,-1
 1034 805 l 1,6,-1
 1034 1274 l 1,7,-1
 117 1274 l 1,8,-1
 117 1409 l 1,9,-1
 1190 1409 l 1,10,-1
 1190 2 l 1,11,-1
 117 2 l 1,0,-1
EndSplineSet
EndChar

StartChar: percent
Encoding: 37 37 8
Width: 1705
GlyphClass: 1
Flags: W
LayerCount: 2
Fore
SplineSet
289 1386 m 0,0,1
 429 1386 429 1386 508 1268 c 0,2,3
 575 1166 575 1166 575 1018 c 0,4,5
 575 872 575 872 508 770 c 0,6,7
 430 653 430 653 291 653 c 0,8,9
 153 653 153 653 72 770 c 0,10,11
 0 875 0 875 0 1018 c 0,12,13
 0 1160 0 1160 72 1266 c 0,14,15
 153 1386 153 1386 289 1386 c 0,0,1
291 1331 m 0,16,17
 160 1331 160 1331 160 1020 c 0,18,19
 160 705 160 705 287 705 c 0,20,21
 418 705 418 705 418 1014 c 0,22,23
 418 1331 418 1331 291 1331 c 0,16,17
1321 1386 m 1,24,-1
 332 -55 l 1,25,-1
 244 -55 l 1,26,-1
 1231 1386 l 1,27,-1
 1321 1386 l 1,24,-1
1278 674 m 0,28,29
 1415 674 1415 674 1493 555 c 0,30,31
 1563 449 1563 449 1563 307 c 128,-1,32
 1563 165 1563 165 1495 61 c 0,33,34
 1415 -55 1415 -55 1278 -55 c 0,35,36
 1142 -55 1142 -55 1061 61 c 0,37,38
 987 168 987 168 987 307 c 0,39,40
 987 450 987 450 1059 555 c 0,41,42
 1140 674 1140 674 1278 674 c 0,28,29
1278 621 m 0,43,44
 1147 621 1147 621 1147 301 c 0,45,46
 1147 0 1147 0 1276 0 c 128,-1,47
 1405 0 1405 0 1405 305 c 0,48,49
 1405 621 1405 621 1278 621 c 0,43,44
EndSplineSet
EndChar

StartChar: ampersand
Encoding: 38 38 9
Width: 1593
GlyphClass: 1
Flags: W
LayerCount: 2
Fore
SplineSet
971 872 m 1,0,-1
 1391 872 l 1,1,-1
 1391 836 l 1,2,3
 1313 827 1313 827 1262 799 c 0,4,5
 1232 784 1232 784 1102 573 c 0,6,7
 948 328 948 328 934 309 c 1,8,9
 1093 123 1093 123 1233 123 c 0,10,11
 1377 123 1377 123 1419 270 c 1,12,-1
 1456 244 l 1,13,14
 1387 -31 1387 -31 1147 -31 c 0,15,16
 975 -31 975 -31 795 164 c 1,17,18
 568 -31 568 -31 358 -31 c 0,19,20
 211 -31 211 -31 111 43 c 0,21,22
 0 126 0 126 0 268 c 0,23,24
 0 542 0 542 416 758 c 1,25,26
 334 938 334 938 334 1055 c 0,27,28
 334 1206 334 1206 431 1296 c 128,-1,29
 528 1386 528 1386 682 1386 c 0,30,31
 799 1386 799 1386 874 1321 c 0,32,33
 952 1255 952 1255 952 1143 c 0,34,35
 952 944 952 944 623 782 c 1,36,37
 765 537 765 537 887 369 c 1,38,39
 1063 580 1063 580 1063 721 c 0,40,41
 1063 835 1063 835 971 836 c 1,42,-1
 971 872 l 1,0,-1
588 848 m 1,43,44
 836 965 836 965 836 1147 c 0,45,46
 836 1216 836 1216 792 1265 c 0,47,48
 747 1313 747 1313 680 1313 c 0,49,50
 603 1313 603 1313 553 1261 c 0,51,52
 504 1209 504 1209 504 1130 c 0,53,54
 504 1036 504 1036 588 848 c 1,43,44
743 221 m 1,55,56
 528 517 528 517 449 690 c 1,57,58
 207 557 207 557 207 358 c 0,59,60
 207 241 207 241 276 166 c 0,61,62
 346 90 346 90 463 90 c 0,63,64
 583 90 583 90 743 221 c 1,55,56
EndSplineSet
EndChar

StartChar: suchthat
Encoding: 39 39 10
Width: 899
GlyphClass: 1
Flags: W
LayerCount: 2
Fore
SplineSet
175 488 m 1,0,-1
 636 488 l 1,1,2
 611 675 611 675 499 774.5 c 128,-1,3
 387 874 387 874 218 874 c 0,4,5
 173 874 173 874 111 859 c 1,6,-1
 111 916 l 1,7,8
 218 944 218 944 322 944 c 0,9,10
 459 944 459 944 578.5 885.5 c 128,-1,11
 698 827 698 827 763 719.5 c 128,-1,12
 828 612 828 612 828 473 c 0,13,14
 828 256 828 256 680.5 112 c 128,-1,15
 533 -32 533 -32 298 -32 c 0,16,17
 245 -32 245 -32 200.5 -24 c 128,-1,18
 156 -16 156 -16 58 13 c 1,19,-1
 58 73 l 1,20,21
 177 36 177 36 263 36 c 0,22,23
 351 36 351 36 439 84.5 c 128,-1,24
 527 133 527 133 574 211.5 c 128,-1,25
 621 290 621 290 636 415 c 1,26,-1
 175 415 l 1,27,-1
 175 488 l 1,0,-1
EndSplineSet
EndChar

StartChar: parenleft
Encoding: 40 40 11
Width: 696
GlyphClass: 1
Flags: W
LayerCount: 2
Fore
SplineSet
573 -434 m 1,0,-1
 573 -483 l 1,1,2
 172 -147 172 -147 172 641 c 0,3,4
 172 1438 172 1438 573 1767 c 1,5,-1
 573 1716 l 1,6,7
 281 1428 281 1428 281 641 c 0,8,9
 281 -154 281 -154 573 -434 c 1,0,-1
EndSplineSet
EndChar

StartChar: parenright
Encoding: 41 41 12
Width: 696
GlyphClass: 1
Flags: W
LayerCount: 2
Fore
SplineSet
123 -434 m 1,0,1
 416 -152 416 -152 416 641 c 0,2,3
 416 1423 416 1423 123 1716 c 1,4,-1
 123 1767 l 1,5,6
 342 1593 342 1593 442 1253 c 0,7,8
 524 985 524 985 524 641 c 0,9,10
 524 -157 524 -157 123 -483 c 1,11,-1
 123 -434 l 1,0,1
EndSplineSet
EndChar

StartChar: asteriskmath
Encoding: 42 42 13
Width: 796
GlyphClass: 1
Flags: W
LayerCount: 2
Fore
SplineSet
63 1196 m 1,0,-1
 111 1339 l 1,1,2
 198 1309 198 1309 340 1241 c 1,3,4
 336 1311 336 1311 319 1491 c 1,5,-1
 467 1491 l 1,6,7
 466 1394 466 1394 442 1243 c 1,8,9
 542 1294 542 1294 680 1339 c 1,10,-1
 725 1196 l 1,11,12
 604 1158 604 1158 475 1141 c 1,13,14
 529 1095 529 1095 647 952 c 1,15,-1
 528 866 l 1,16,17
 449 977 449 977 391 1081 c 1,18,19
 333 982 333 982 260 866 c 1,20,-1
 141 952 l 1,21,22
 203 1032 203 1032 307 1141 c 1,23,24
 217 1157 217 1157 63 1196 c 1,0,-1
EndSplineSet
EndChar

StartChar: plus
Encoding: 43 43 14
Width: 1196
GlyphClass: 1
Flags: W
LayerCount: 2
Fore
SplineSet
512 115 m 1,0,-1
 512 516 l 1,1,-1
 115 516 l 1,2,-1
 115 684 l 1,3,-1
 512 684 l 1,4,-1
 512 1083 l 1,5,-1
 682 1083 l 1,6,-1
 682 684 l 1,7,-1
 1081 684 l 1,8,-1
 1081 516 l 1,9,-1
 682 516 l 1,10,-1
 682 115 l 1,11,-1
 512 115 l 1,0,-1
EndSplineSet
EndChar

StartChar: comma
Encoding: 44 44 15
Width: 512
GlyphClass: 1
Flags: W
LayerCount: 2
Fore
SplineSet
111 -342 m 1,0,-1
 111 -297 l 1,1,2
 202 -265 202 -265 260 -203 c 0,3,4
 326 -130 326 -130 326 -41 c 1,5,-1
 317 -8 l 1,6,-1
 303 0 l 1,7,-1
 217 -29 l 1,8,9
 111 -29 111 -29 111 82 c 0,10,11
 111 132 111 132 150 167 c 0,12,13
 189 201 189 201 240 201 c 0,14,15
 315 201 315 201 365 131 c 0,16,17
 408 68 408 68 408 -10 c 0,18,19
 408 -243 408 -243 111 -342 c 1,0,-1
EndSplineSet
EndChar

StartChar: minus
Encoding: 45 45 16
Width: 681
GlyphClass: 1
Flags: W
LayerCount: 2
Fore
SplineSet
66 502 m 1,0,-1
 66 682 l 1,1,-1
 618 682 l 1,2,-1
 618 502 l 1,3,-1
 66 502 l 1,0,-1
EndSplineSet
EndChar

StartChar: period
Encoding: 46 46 17
Width: 512
GlyphClass: 1
Flags: W
LayerCount: 2
Fore
SplineSet
256 195 m 128,-1,1
 301 195 301 195 334 162 c 128,-1,2
 367 129 367 129 367 84 c 0,3,4
 367 38 367 38 334 4 c 0,5,6
 301 -29 301 -29 256 -29 c 0,7,8
 212 -29 212 -29 178 5 c 0,9,10
 145 40 145 40 145 84 c 0,11,12
 145 129 145 129 178 162 c 128,-1,0
 211 195 211 195 256 195 c 128,-1,1
EndSplineSet
EndChar

StartChar: slash
Encoding: 47 47 18
Width: 569
GlyphClass: 1
Flags: W
LayerCount: 2
Fore
SplineSet
0 -25 m 1,0,-1
 426 1491 l 1,1,-1
 569 1491 l 1,2,-1
 145 -25 l 1,3,-1
 0 -25 l 1,0,-1
EndSplineSet
EndChar

StartChar: zero
Encoding: 48 48 19
Width: 1024
GlyphClass: 1
Flags: W
LayerCount: 2
Fore
SplineSet
946 676 m 0,0,1
 946 -20 946 -20 506 -20 c 0,2,3
 294 -20 294 -20 186 158 c 128,-1,4
 78 336 78 336 78 676 c 0,5,6
 78 1009 78 1009 186 1185.5 c 128,-1,7
 294 1362 294 1362 514 1362 c 0,8,9
 726 1362 726 1362 836 1187.5 c 128,-1,10
 946 1013 946 1013 946 676 c 0,0,1
762 676 m 0,11,12
 762 998 762 998 701 1140 c 128,-1,13
 640 1282 640 1282 506 1282 c 0,14,15
 376 1282 376 1282 319 1148 c 128,-1,16
 262 1014 262 1014 262 676 c 0,17,18
 262 336 262 336 320 197.5 c 128,-1,19
 378 59 378 59 506 59 c 0,20,21
 638 59 638 59 700 204.5 c 128,-1,22
 762 350 762 350 762 676 c 0,11,12
EndSplineSet
EndChar

StartChar: one
Encoding: 49 49 20
Width: 1024
GlyphClass: 1
Flags: W
LayerCount: 2
Fore
SplineSet
627 80 m 1,0,-1
 901 53 l 1,1,-1
 901 0 l 1,2,-1
 180 0 l 1,3,-1
 180 53 l 1,4,-1
 455 80 l 1,5,-1
 455 1174 l 1,6,-1
 184 1077 l 1,7,-1
 184 1130 l 1,8,-1
 575 1352 l 1,9,-1
 627 1352 l 1,10,-1
 627 80 l 1,0,-1
EndSplineSet
EndChar

StartChar: two
Encoding: 50 50 21
Width: 1024
GlyphClass: 1
Flags: W
LayerCount: 2
Fore
SplineSet
911 0 m 1,0,-1
 90 0 l 1,1,-1
 90 147 l 1,2,-1
 276 316 l 1,3,4
 455 473 455 473 539 570 c 128,-1,5
 623 667 623 667 659.5 770 c 128,-1,6
 696 873 696 873 696 1006 c 0,7,8
 696 1136 696 1136 637 1204 c 128,-1,9
 578 1272 578 1272 444 1272 c 0,10,11
 391 1272 391 1272 335 1257.5 c 128,-1,12
 279 1243 279 1243 236 1219 c 1,13,-1
 201 1055 l 1,14,-1
 135 1055 l 1,15,-1
 135 1313 l 1,16,17
 317 1356 317 1356 444 1356 c 0,18,19
 664 1356 664 1356 774.5 1264.5 c 128,-1,20
 885 1173 885 1173 885 1006 c 0,21,22
 885 894 885 894 841.5 794.5 c 128,-1,23
 798 695 798 695 708 596.5 c 128,-1,24
 618 498 618 498 410 321 c 0,25,26
 321 245 321 245 221 154 c 1,27,-1
 911 154 l 1,28,-1
 911 0 l 1,0,-1
EndSplineSet
EndChar

StartChar: three
Encoding: 51 51 22
Width: 1024
GlyphClass: 1
Flags: W
LayerCount: 2
Fore
SplineSet
944 365 m 0,0,1
 944 184 944 184 820 82 c 128,-1,2
 696 -20 696 -20 469 -20 c 0,3,4
 279 -20 279 -20 109 23 c 1,5,-1
 98 305 l 1,6,-1
 164 305 l 1,7,-1
 209 117 l 1,8,9
 248 95 248 95 319.5 79 c 128,-1,10
 391 63 391 63 453 63 c 0,11,12
 610 63 610 63 685 135 c 128,-1,13
 760 207 760 207 760 375 c 0,14,15
 760 507 760 507 691 575.5 c 128,-1,16
 622 644 622 644 477 651 c 2,17,-1
 334 659 l 1,18,-1
 334 741 l 1,19,-1
 477 750 l 2,20,21
 590 756 590 756 644 820 c 128,-1,22
 698 884 698 884 698 1014 c 0,23,24
 698 1149 698 1149 639.5 1210.5 c 128,-1,25
 581 1272 581 1272 453 1272 c 0,26,27
 400 1272 400 1272 342 1257.5 c 128,-1,28
 284 1243 284 1243 240 1219 c 1,29,-1
 205 1055 l 1,30,-1
 139 1055 l 1,31,-1
 139 1313 l 1,32,33
 238 1339 238 1339 310 1347.5 c 128,-1,34
 382 1356 382 1356 453 1356 c 0,35,36
 883 1356 883 1356 883 1026 c 0,37,38
 883 887 883 887 806.5 804.5 c 128,-1,39
 730 722 730 722 590 702 c 1,40,41
 772 681 772 681 858 597.5 c 128,-1,42
 944 514 944 514 944 365 c 0,0,1
EndSplineSet
EndChar

StartChar: four
Encoding: 52 52 23
Width: 1024
GlyphClass: 1
Flags: W
LayerCount: 2
Fore
SplineSet
793 295 m 1,0,-1
 793 0 l 1,1,-1
 621 0 l 1,2,-1
 621 295 l 1,3,-1
 43 295 l 1,4,-1
 43 428 l 1,5,-1
 678 1348 l 1,6,-1
 793 1348 l 1,7,-1
 793 438 l 1,8,-1
 995 438 l 1,9,-1
 995 295 l 1,10,-1
 793 295 l 1,0,-1
621 1106 m 1,11,-1
 616 1106 l 1,12,-1
 156 438 l 1,13,-1
 621 438 l 1,14,-1
 621 1106 l 1,11,-1
EndSplineSet
EndChar

StartChar: five
Encoding: 53 53 24
Width: 1024
GlyphClass: 1
Flags: W
LayerCount: 2
Fore
SplineSet
485 784 m 0,0,1
 717 784 717 784 830.5 689 c 128,-1,2
 944 594 944 594 944 399 c 0,3,4
 944 197 944 197 821 88.5 c 128,-1,5
 698 -20 698 -20 469 -20 c 0,6,7
 279 -20 279 -20 130 23 c 1,8,-1
 119 305 l 1,9,-1
 185 305 l 1,10,-1
 230 117 l 1,11,12
 274 93 274 93 335.5 78 c 128,-1,13
 397 63 397 63 453 63 c 0,14,15
 611 63 611 63 685.5 137.5 c 128,-1,16
 760 212 760 212 760 389 c 0,17,18
 760 513 760 513 728 576.5 c 128,-1,19
 696 640 696 640 626 670 c 128,-1,20
 556 700 556 700 438 700 c 0,21,22
 347 700 347 700 260 676 c 1,23,-1
 164 676 l 1,24,-1
 164 1341 l 1,25,-1
 844 1341 l 1,26,-1
 844 1188 l 1,27,-1
 254 1188 l 1,28,-1
 254 760 l 1,29,30
 362 784 362 784 485 784 c 0,0,1
EndSplineSet
EndChar

StartChar: six
Encoding: 54 54 25
Width: 1024
GlyphClass: 1
Flags: W
LayerCount: 2
Fore
SplineSet
963 416 m 0,0,1
 963 207 963 207 857.5 93.5 c 128,-1,2
 752 -20 752 -20 553 -20 c 0,3,4
 327 -20 327 -20 207.5 156 c 128,-1,5
 88 332 88 332 88 662 c 0,6,7
 88 878 88 878 151 1035 c 128,-1,8
 214 1192 214 1192 327.5 1274 c 128,-1,9
 441 1356 441 1356 590 1356 c 0,10,11
 736 1356 736 1356 881 1321 c 1,12,-1
 881 1090 l 1,13,-1
 815 1090 l 1,14,-1
 780 1227 l 1,15,16
 747 1245 747 1245 691 1258.5 c 128,-1,17
 635 1272 635 1272 590 1272 c 0,18,19
 444 1272 444 1272 362.5 1130.5 c 128,-1,20
 281 989 281 989 273 717 c 1,21,22
 436 803 436 803 600 803 c 0,23,24
 777 803 777 803 870 703.5 c 128,-1,25
 963 604 963 604 963 416 c 0,0,1
549 59 m 0,26,27
 670 59 670 59 724 137.5 c 128,-1,28
 778 216 778 216 778 397 c 0,29,30
 778 561 778 561 726.5 634 c 128,-1,31
 675 707 675 707 563 707 c 0,32,33
 426 707 426 707 272 657 c 1,34,35
 272 352 272 352 341 205.5 c 128,-1,36
 410 59 410 59 549 59 c 0,26,27
EndSplineSet
EndChar

StartChar: seven
Encoding: 55 55 26
Width: 1024
GlyphClass: 1
Flags: W
LayerCount: 2
Fore
SplineSet
201 1024 m 1,0,-1
 135 1024 l 1,1,-1
 135 1341 l 1,2,-1
 965 1341 l 1,3,-1
 965 1264 l 1,4,-1
 367 0 l 1,5,-1
 238 0 l 1,6,-1
 825 1188 l 1,7,-1
 236 1188 l 1,8,-1
 201 1024 l 1,0,-1
EndSplineSet
EndChar

StartChar: eight
Encoding: 56 56 27
Width: 1024
GlyphClass: 1
Flags: W
LayerCount: 2
Fore
SplineSet
905 1014 m 0,0,1
 905 904 905 904 851.5 827.5 c 128,-1,2
 798 751 798 751 707 711 c 1,3,4
 821 669 821 669 883.5 579.5 c 128,-1,5
 946 490 946 490 946 362 c 0,6,7
 946 172 946 172 839 76 c 128,-1,8
 732 -20 732 -20 506 -20 c 0,9,10
 78 -20 78 -20 78 362 c 0,11,12
 78 495 78 495 142 582.5 c 128,-1,13
 206 670 206 670 315 711 c 1,14,15
 228 751 228 751 173.5 827 c 128,-1,16
 119 903 119 903 119 1014 c 0,17,18
 119 1180 119 1180 220.5 1271 c 128,-1,19
 322 1362 322 1362 514 1362 c 0,20,21
 700 1362 700 1362 802.5 1271.5 c 128,-1,22
 905 1181 905 1181 905 1014 c 0,0,1
766 362 m 0,23,24
 766 522 766 522 703.5 594 c 128,-1,25
 641 666 641 666 506 666 c 0,26,27
 374 666 374 666 316 597.5 c 128,-1,28
 258 529 258 529 258 362 c 0,29,30
 258 193 258 193 317 126 c 128,-1,31
 376 59 376 59 506 59 c 0,32,33
 639 59 639 59 702.5 128.5 c 128,-1,34
 766 198 766 198 766 362 c 0,23,24
725 1014 m 0,35,36
 725 1152 725 1152 671 1217 c 128,-1,37
 617 1282 617 1282 508 1282 c 0,38,39
 402 1282 402 1282 350.5 1219 c 128,-1,40
 299 1156 299 1156 299 1014 c 0,41,42
 299 875 299 875 349 814.5 c 128,-1,43
 399 754 399 754 508 754 c 0,44,45
 620 754 620 754 672.5 815.5 c 128,-1,46
 725 877 725 877 725 1014 c 0,35,36
EndSplineSet
EndChar

StartChar: nine
Encoding: 57 57 28
Width: 1024
GlyphClass: 1
Flags: W
LayerCount: 2
Fore
SplineSet
66 932 m 0,0,1
 66 1134 66 1134 179 1245 c 128,-1,2
 292 1356 292 1356 498 1356 c 0,3,4
 727 1356 727 1356 833.5 1191 c 128,-1,5
 940 1026 940 1026 940 674 c 0,6,7
 940 337 940 337 803 158.5 c 128,-1,8
 666 -20 666 -20 418 -20 c 0,9,10
 255 -20 255 -20 119 14 c 1,11,-1
 119 246 l 1,12,-1
 184 246 l 1,13,-1
 219 102 l 1,14,15
 251 87 251 87 305 75 c 128,-1,16
 359 63 359 63 414 63 c 0,17,18
 574 63 574 63 660 203.5 c 128,-1,19
 746 344 746 344 755 617 c 1,20,21
 603 532 603 532 446 532 c 0,22,23
 269 532 269 532 167.5 637.5 c 128,-1,24
 66 743 66 743 66 932 c 0,0,1
500 1276 m 0,25,26
 250 1276 250 1276 250 928 c 0,27,28
 250 775 250 775 310 702 c 128,-1,29
 370 629 370 629 496 629 c 0,30,31
 625 629 625 629 756 682 c 1,32,33
 756 989 756 989 695.5 1132.5 c 128,-1,34
 635 1276 635 1276 500 1276 c 0,25,26
EndSplineSet
EndChar

StartChar: colon
Encoding: 58 58 29
Width: 569
GlyphClass: 1
Flags: W
LayerCount: 2
Fore
SplineSet
289 944 m 128,-1,1
 334 944 334 944 367 911 c 0,2,3
 399 879 399 879 399 834 c 0,4,5
 399 790 399 790 367 756 c 0,6,7
 334 723 334 723 289 723 c 128,-1,8
 244 723 244 723 211 756 c 128,-1,9
 178 789 178 789 178 834 c 0,10,11
 178 880 178 880 211 911 c 0,12,0
 244 944 244 944 289 944 c 128,-1,1
287 195 m 128,-1,14
 332 195 332 195 366 162 c 0,15,16
 399 129 399 129 399 84 c 0,17,18
 399 38 399 38 365 4 c 0,19,20
 332 -29 332 -29 287 -29 c 0,21,22
 243 -29 243 -29 209 5 c 0,23,24
 176 40 176 40 176 84 c 0,25,26
 176 129 176 129 209 162 c 128,-1,13
 242 195 242 195 287 195 c 128,-1,14
EndSplineSet
EndChar

StartChar: semicolon
Encoding: 59 59 30
Width: 569
GlyphClass: 1
Flags: W
LayerCount: 2
Fore
SplineSet
283 944 m 0,0,1
 326 944 326 944 359 911 c 0,2,3
 393 880 393 880 393 836 c 0,4,5
 393 791 393 791 360 758 c 0,6,7
 328 725 328 725 283 725 c 0,8,9
 237 725 237 725 204 758 c 0,10,11
 170 791 170 791 170 836 c 128,-1,12
 170 881 170 881 204 912 c 0,13,14
 236 944 236 944 283 944 c 0,0,1
141 -342 m 1,15,-1
 141 -297 l 1,16,17
 233 -266 233 -266 293 -203 c 0,18,19
 358 -132 358 -132 358 -41 c 0,20,21
 358 -10 358 -10 336 0 c 1,22,-1
 250 -29 l 1,23,24
 141 -29 141 -29 141 82 c 0,25,26
 141 132 141 132 180 166 c 0,27,28
 220 201 220 201 270 201 c 0,29,30
 349 201 349 201 397 133 c 0,31,32
 440 73 440 73 440 -10 c 0,33,34
 440 -243 440 -243 141 -342 c 1,15,-1
EndSplineSet
EndChar

StartChar: less
Encoding: 60 60 31
Width: 1196
GlyphClass: 1
Flags: W
LayerCount: 2
Fore
SplineSet
113 518 m 1,0,-1
 113 686 l 1,1,-1
 1083 1096 l 1,2,-1
 1083 918 l 1,3,-1
 313 602 l 1,4,-1
 1083 283 l 1,5,-1
 1083 102 l 1,6,-1
 113 518 l 1,0,-1
EndSplineSet
EndChar

StartChar: equal
Encoding: 61 61 32
Width: 1628
GlyphClass: 1
Flags: W
LayerCount: 2
Fore
SplineSet
221 293 m 1,0,-1
 221 420 l 1,1,-1
 1405 420 l 1,2,-1
 1405 293 l 1,3,-1
 221 293 l 1,0,-1
221 791 m 1,4,-1
 221 920 l 1,5,-1
 1405 920 l 1,6,-1
 1405 791 l 1,7,-1
 221 791 l 1,4,-1
EndSplineSet
EndChar

StartChar: greater
Encoding: 62 62 33
Width: 1196
GlyphClass: 1
Flags: W
LayerCount: 2
Fore
SplineSet
1083 518 m 1,0,-1
 113 102 l 1,1,-1
 113 283 l 1,2,-1
 881 602 l 1,3,-1
 113 918 l 1,4,-1
 113 1096 l 1,5,-1
 1083 686 l 1,6,-1
 1083 518 l 1,0,-1
EndSplineSet
EndChar

StartChar: question
Encoding: 63 63 34
Width: 909
GlyphClass: 1
Flags: W
LayerCount: 2
Fore
SplineSet
440 350 m 1,0,-1
 360 350 l 1,1,-1
 334 684 l 1,2,-1
 477 713 l 2,3,4
 563 730 563 730 602 800 c 128,-1,5
 641 870 641 870 641 1004 c 0,6,7
 641 1151 641 1151 588 1211.5 c 128,-1,8
 535 1272 535 1272 401 1272 c 0,9,10
 289 1272 289 1272 207 1223 c 1,11,-1
 172 1059 l 1,12,-1
 106 1059 l 1,13,-1
 106 1313 l 1,14,15
 264 1356 264 1356 401 1356 c 0,16,17
 825 1356 825 1356 825 1016 c 0,18,19
 825 853 825 853 744.5 754 c 128,-1,20
 664 655 664 655 510 623 c 2,21,-1
 453 610 l 1,22,-1
 440 350 l 1,0,-1
530 92 m 0,23,24
 530 43 530 43 495.5 7 c 128,-1,25
 461 -29 461 -29 410 -29 c 0,26,27
 358 -29 358 -29 323.5 7 c 128,-1,28
 289 43 289 43 289 92 c 0,29,30
 289 143 289 143 324 178 c 128,-1,31
 359 213 359 213 410 213 c 0,32,33
 460 213 460 213 495 178.5 c 128,-1,34
 530 144 530 144 530 92 c 0,23,24
EndSplineSet
EndChar

StartChar: congruent
Encoding: 64 64 35
Width: 1628
GlyphClass: 1
Flags: W
LayerCount: 2
Fore
SplineSet
221 424 m 1,0,-1
 221 522 l 1,1,-1
 1405 522 l 1,2,-1
 1405 424 l 1,3,-1
 221 424 l 1,0,-1
283 670 m 1,4,-1
 221 670 l 1,5,6
 236 989 236 989 485 989 c 0,7,8
 600 989 600 989 843 869 c 0,9,10
 1087 750 1087 750 1176 750 c 0,11,12
 1321 750 1321 750 1343 967 c 1,13,-1
 1405 967 l 1,14,15
 1387 647 1387 647 1141 647 c 0,16,17
 1014 647 1014 647 795 767 c 128,-1,18
 576 887 576 887 449 887 c 0,19,20
 370 887 370 887 324 815 c 0,21,22
 283 754 283 754 283 670 c 1,4,-1
221 219 m 1,23,-1
 221 317 l 1,24,-1
 1405 317 l 1,25,-1
 1405 219 l 1,26,-1
 221 219 l 1,23,-1
EndSplineSet
EndChar

StartChar: Alpha
Encoding: 65 65 36
Width: 1572
GlyphClass: 1
Flags: W
LayerCount: 2
Fore
SplineSet
728 1091 m 1,0,-1
 460 513 l 1,1,-1
 978 513 l 1,2,-1
 728 1091 l 1,0,-1
768 1367 m 1,3,-1
 817 1367 l 1,4,-1
 1340 187 l 2,5,6
 1380 97 1380 97 1419.5 63.5 c 128,-1,7
 1459 30 1459 30 1523 30 c 2,8,-1
 1530 30 l 1,9,-1
 1530 1 l 1,10,-1
 979 1 l 1,11,-1
 979 32 l 1,12,13
 1062 35 1062 35 1094 54 c 128,-1,14
 1126 73 1126 73 1126 123 c 0,15,16
 1126 141 1126 141 1123 158 c 128,-1,17
 1120 175 1120 175 1114 188 c 2,18,-1
 1002 447 l 1,19,-1
 436 447 l 1,20,-1
 340 227 l 2,21,22
 322 184 322 184 314.5 159.5 c 128,-1,23
 307 135 307 135 307 119 c 0,24,25
 307 74 307 74 342 53 c 128,-1,26
 377 32 377 32 448 32 c 2,27,-1
 463 32 l 1,28,-1
 463 1 l 1,29,-1
 31 1 l 1,30,-1
 31 30 l 1,31,32
 96 32 96 32 137.5 69 c 128,-1,33
 179 106 179 106 227 209 c 2,34,-1
 768 1367 l 1,3,-1
EndSplineSet
EndChar

StartChar: Beta
Encoding: 66 66 37
Width: 1383
GlyphClass: 1
Flags: W
LayerCount: 2
Fore
SplineSet
509.5 1265 m 128,-1,1
 487 1246 487 1246 487 1175 c 2,2,-1
 487 816 l 2,3,4
 487 755 487 755 499.5 741 c 128,-1,5
 512 727 512 727 568 727 c 2,6,-1
 601 727 l 2,7,8
 825 727 825 727 924 793 c 128,-1,9
 1023 859 1023 859 1023 1009 c 0,10,11
 1023 1158 1023 1158 930.5 1221 c 128,-1,12
 838 1284 838 1284 601 1284 c 0,13,0
 532 1284 532 1284 509.5 1265 c 128,-1,1
501.5 659.5 m 128,-1,15
 487 647 487 647 487 597 c 2,16,-1
 487 171 l 2,17,18
 487 110 487 110 514.5 89 c 128,-1,19
 542 68 542 68 656 68 c 2,20,-1
 689 68 l 2,21,22
 874 68 874 68 971.5 145.5 c 128,-1,23
 1069 223 1069 223 1069 372 c 0,24,25
 1069 526 1069 526 962.5 599 c 128,-1,26
 856 672 856 672 631 672 c 2,27,-1
 574 672 l 2,28,14
 516 672 516 672 501.5 659.5 c 128,-1,15
274 1123 m 2,29,30
 274 1232 274 1232 234 1268 c 128,-1,31
 194 1304 194 1304 71 1311 c 1,32,-1
 71 1342 l 1,33,-1
 728 1342 l 2,34,35
 972 1342 972 1342 1104.5 1256.5 c 128,-1,36
 1237 1171 1237 1171 1237 1019 c 0,37,38
 1237 915 1237 915 1166 836 c 128,-1,39
 1095 757 1095 757 966 719 c 2,40,41
 966 719 966 719 946 713 c 1,42,-1
 966 709 l 2,43,44
 1133 677 1133 677 1216.5 595 c 128,-1,45
 1300 513 1300 513 1300 382 c 0,46,47
 1300 188 1300 188 1152 94 c 128,-1,48
 1004 0 1004 0 695 0 c 2,49,-1
 71 0 l 1,50,-1
 71 31 l 1,51,52
 192 34 192 34 233 71 c 128,-1,53
 274 108 274 108 274 216 c 2,54,-1
 274 1123 l 2,29,30
EndSplineSet
EndChar

StartChar: Chi
Encoding: 67 67 38
Width: 1479
GlyphClass: 1
Flags: W
LayerCount: 2
Fore
SplineSet
653 668 m 1,0,-1
 315 1134 l 2,1,2
 237 1244 237 1244 187 1278 c 128,-1,3
 137 1312 137 1312 68 1312 c 2,4,-1
 54 1312 l 1,5,-1
 54 1343 l 1,6,-1
 652 1343 l 1,7,-1
 652 1312 l 1,8,-1
 639 1312 l 2,9,10
 569 1312 569 1312 537 1298.5 c 128,-1,11
 505 1285 505 1285 505 1253 c 0,12,13
 505 1238 505 1238 512.5 1221 c 128,-1,14
 520 1204 520 1204 541 1175 c 2,15,-1
 786 830 l 1,16,-1
 1028 1130 l 2,17,18
 1055 1164 1055 1164 1071.5 1197.5 c 128,-1,19
 1088 1231 1088 1231 1088 1251 c 0,20,21
 1088 1283 1088 1283 1055.5 1296.5 c 128,-1,22
 1023 1310 1023 1310 947 1312 c 1,23,-1
 947 1343 l 1,24,-1
 1433 1343 l 1,25,-1
 1433 1312 l 1,26,-1
 1413 1312 l 2,27,28
 1341 1312 1341 1312 1287 1282 c 128,-1,29
 1233 1252 1233 1252 1157 1160 c 2,30,-1
 828 764 l 1,31,-1
 1231 192 l 2,32,33
 1288 109 1288 109 1342 74 c 128,-1,34
 1396 39 1396 39 1468 32 c 1,35,-1
 1468 1 l 1,36,-1
 859 1 l 1,37,-1
 859 32 l 1,38,-1
 864 32 l 1,39,40
 1023 44 1023 44 1023 105 c 0,41,42
 1023 122 1023 122 1007.5 151.5 c 128,-1,43
 992 181 992 181 958 228 c 2,44,-1
 700 602 l 1,45,-1
 414 251 l 2,46,47
 364 189 364 189 346.5 156.5 c 128,-1,48
 329 124 329 124 329 98 c 0,49,50
 329 63 329 63 360.5 48.5 c 128,-1,51
 392 34 392 34 474 32 c 1,52,-1
 474 1 l 1,53,-1
 30 1 l 1,54,-1
 30 32 l 1,55,56
 85 33 85 33 127.5 56.5 c 128,-1,57
 170 80 170 80 244 169 c 2,58,-1
 653 668 l 1,0,-1
EndSplineSet
EndChar

StartChar: Delta
Encoding: 68 68 39
Width: 1253
GlyphClass: 1
Flags: W
LayerCount: 2
Fore
SplineSet
571 1039 m 1,0,-1
 181 81 l 1,1,-1
 959 81 l 1,2,-1
 571 1039 l 1,0,-1
1212 -1 m 1,3,-1
 50 -1 l 1,4,-1
 611 1365 l 1,5,-1
 650 1365 l 1,6,-1
 1212 -1 l 1,3,-1
EndSplineSet
EndChar

StartChar: Epsilon
Encoding: 69 69 40
Width: 1296
GlyphClass: 1
Flags: W
LayerCount: 2
Fore
SplineSet
238 1126 m 2,0,1
 238 1237 238 1237 202.5 1272.5 c 128,-1,2
 167 1308 167 1308 58 1314 c 1,3,-1
 58 1343 l 1,4,-1
 1111 1343 l 1,5,-1
 1127 1056 l 1,6,-1
 1083 1056 l 1,7,8
 1060 1188 1060 1188 1012.5 1231.5 c 128,-1,9
 965 1275 965 1275 835 1275 c 2,10,-1
 524 1275 l 2,11,12
 473 1275 473 1275 456 1259 c 128,-1,13
 439 1243 439 1243 439 1174 c 2,14,-1
 439 811 l 2,15,16
 439 769 439 769 447.5 755 c 128,-1,17
 456 741 456 741 495 741 c 2,18,-1
 741 741 l 2,19,20
 883 741 883 741 924.5 780 c 128,-1,21
 966 819 966 819 973 931 c 1,22,-1
 1017 931 l 1,23,-1
 1017 476 l 1,24,-1
 973 476 l 1,25,26
 964 593 964 593 922.5 633 c 128,-1,27
 881 673 881 673 741 673 c 2,28,-1
 493 673 l 2,29,30
 461 673 461 673 450 661.5 c 128,-1,31
 439 650 439 650 439 604 c 2,32,-1
 439 201 l 2,33,34
 439 122 439 122 456 98.5 c 128,-1,35
 473 75 473 75 524 75 c 2,36,-1
 811 75 l 2,37,38
 981 75 981 75 1053 124.5 c 128,-1,39
 1125 174 1125 174 1195 343 c 1,40,-1
 1231 323 l 1,41,-1
 1138 1 l 1,42,-1
 58 1 l 1,43,-1
 58 32 l 1,44,45
 168 36 168 36 203 70 c 128,-1,46
 238 104 238 104 238 217 c 2,47,-1
 238 1126 l 2,0,1
EndSplineSet
EndChar

StartChar: Phi
Encoding: 70 70 41
Width: 1563
GlyphClass: 1
Flags: W
LayerCount: 2
Fore
SplineSet
1166 960.5 m 128,-1,1
 1074 1062 1074 1062 889 1080 c 1,2,-1
 884 1081 l 1,3,-1
 884 272 l 1,4,-1
 889 272 l 1,5,6
 1072 285 1072 285 1165 386.5 c 128,-1,7
 1258 488 1258 488 1258 674 c 0,8,0
 1258 859 1258 859 1166 960.5 c 128,-1,1
681 272 m 1,9,-1
 681 1081 l 1,10,-1
 676 1080 l 1,11,12
 490 1062 490 1062 397 960.5 c 128,-1,13
 304 859 304 859 304 674 c 0,14,15
 304 488 304 488 397 387.5 c 128,-1,16
 490 287 490 287 676 272 c 1,17,-1
 681 272 l 1,9,-1
1085 1312 m 1,18,19
 964 1309 964 1309 924 1273 c 128,-1,20
 884 1237 884 1237 884 1137 c 2,21,-1
 884 1121 l 1,22,-1
 889 1121 l 1,23,24
 1172 1111 1172 1111 1330 993 c 128,-1,25
 1488 875 1488 875 1488 676 c 0,26,27
 1488 489 1488 489 1328.5 369.5 c 128,-1,28
 1169 250 1169 250 889 230 c 1,29,-1
 884 230 l 1,30,-1
 884 203 l 2,31,32
 884 108 884 108 927 71.5 c 128,-1,33
 970 35 970 35 1085 32 c 1,34,-1
 1085 1 l 1,35,-1
 478 1 l 1,36,-1
 478 32 l 1,37,38
 595 35 595 35 638 72.5 c 128,-1,39
 681 110 681 110 681 209 c 2,40,-1
 681 230 l 1,41,-1
 676 230 l 1,42,43
 395 250 395 250 235 369.5 c 128,-1,44
 75 489 75 489 75 676 c 0,45,46
 75 874 75 874 233.5 992.5 c 128,-1,47
 392 1111 392 1111 676 1121 c 1,48,-1
 681 1121 l 1,49,-1
 681 1137 l 2,50,51
 681 1238 681 1238 641 1273.5 c 128,-1,52
 601 1309 601 1309 478 1312 c 1,53,-1
 478 1343 l 1,54,-1
 1085 1343 l 1,55,-1
 1085 1312 l 1,18,19
EndSplineSet
EndChar

StartChar: Gamma
Encoding: 71 71 42
Width: 1280
GlyphClass: 1
Flags: W
LayerCount: 2
Fore
SplineSet
1213 998 m 1,0,-1
 1182 998 l 1,1,2
 1133 1140 1133 1140 1054.5 1206.5 c 128,-1,3
 976 1273 976 1273 854 1273 c 2,4,-1
 639 1273 l 2,5,6
 548 1273 548 1273 518.5 1249.5 c 128,-1,7
 489 1226 489 1226 489 1131 c 2,8,-1
 489 223 l 2,9,10
 489 114 489 114 536 73.5 c 128,-1,11
 583 33 583 33 706 32 c 1,12,-1
 706 1 l 1,13,-1
 58 1 l 1,14,-1
 58 32 l 1,15,16
 182 36 182 36 224.5 68.5 c 128,-1,17
 267 101 267 101 267 223 c 2,18,-1
 267 1102 l 2,19,20
 267 1226 267 1226 224.5 1269 c 128,-1,21
 182 1312 182 1312 63 1312 c 2,22,-1
 58 1312 l 1,23,-1
 58 1343 l 1,24,-1
 1170 1343 l 1,25,-1
 1213 998 l 1,0,-1
EndSplineSet
EndChar

StartChar: Eta
Encoding: 72 72 43
Width: 1518
GlyphClass: 1
Flags: W
LayerCount: 2
Fore
SplineSet
230 1126 m 2,0,1
 230 1234 230 1234 193.5 1271 c 128,-1,2
 157 1308 157 1308 48 1312 c 1,3,-1
 48 1343 l 1,4,-1
 613 1343 l 1,5,-1
 613 1312 l 1,6,7
 503 1306 503 1306 467 1271 c 128,-1,8
 431 1236 431 1236 431 1126 c 2,9,-1
 431 789 l 2,10,11
 431 749 431 749 442 735.5 c 128,-1,12
 453 722 453 722 485 722 c 2,13,-1
 1012 722 l 2,14,15
 1038 722 1038 722 1047 738.5 c 128,-1,16
 1056 755 1056 755 1056 795 c 2,17,-1
 1056 1126 l 2,18,19
 1056 1234 1056 1234 1021.5 1270 c 128,-1,20
 987 1306 987 1306 875 1312 c 1,21,-1
 875 1343 l 1,22,-1
 1439 1343 l 1,23,-1
 1439 1312 l 1,24,25
 1330 1308 1330 1308 1293.5 1272.5 c 128,-1,26
 1257 1237 1257 1237 1257 1126 c 2,27,-1
 1257 219 l 2,28,29
 1257 110 1257 110 1294.5 72 c 128,-1,30
 1332 34 1332 34 1439 32 c 1,31,-1
 1439 1 l 1,32,-1
 875 1 l 1,33,-1
 875 32 l 1,34,35
 984 35 984 35 1020 71.5 c 128,-1,36
 1056 108 1056 108 1056 217 c 2,37,-1
 1056 588 l 2,38,39
 1056 628 1056 628 1047 641 c 128,-1,40
 1038 654 1038 654 1012 654 c 2,41,-1
 483 654 l 2,42,43
 455 654 455 654 443 639.5 c 128,-1,44
 431 625 431 625 431 588 c 2,45,-1
 431 219 l 2,46,47
 431 110 431 110 467.5 73 c 128,-1,48
 504 36 504 36 613 32 c 1,49,-1
 613 1 l 1,50,-1
 48 1 l 1,51,-1
 48 32 l 1,52,53
 158 35 158 35 194 71.5 c 128,-1,54
 230 108 230 108 230 219 c 2,55,-1
 230 1126 l 2,0,1
EndSplineSet
EndChar

StartChar: Iota
Encoding: 73 73 44
Width: 682
GlyphClass: 1
Flags: W
LayerCount: 2
Fore
SplineSet
241 1126 m 2,0,1
 241 1235 241 1235 205 1271.5 c 128,-1,2
 169 1308 169 1308 62 1312 c 1,3,-1
 62 1343 l 1,4,-1
 620 1343 l 1,5,-1
 620 1312 l 1,6,7
 513 1308 513 1308 477 1271.5 c 128,-1,8
 441 1235 441 1235 441 1126 c 2,9,-1
 441 219 l 2,10,11
 441 111 441 111 477 73.5 c 128,-1,12
 513 36 513 36 620 32 c 1,13,-1
 620 1 l 1,14,-1
 62 1 l 1,15,-1
 62 32 l 1,16,17
 168 34 168 34 204.5 69.5 c 128,-1,18
 241 105 241 105 241 219 c 2,19,-1
 241 1126 l 2,0,1
EndSplineSet
EndChar

StartChar: theta1
Encoding: 74 74 45
Width: 1132
GlyphClass: 1
Flags: W
LayerCount: 2
Fore
SplineSet
87 268 m 1,0,-1
 167 414 l 1,1,2
 237 411 237 411 316 330 c 1,3,-1
 441 176 l 2,4,5
 504 98 504 98 548 98 c 0,6,7
 666 98 666 98 705 309 c 0,8,9
 733 467 733 467 712 623 c 1,10,11
 702 623 702 623 616 621 c 0,12,13
 551 618 551 618 516 618 c 0,14,15
 187 618 187 618 140 858 c 0,16,17
 102 1057 102 1057 204 1207 c 0,18,19
 307 1358 307 1358 503 1358 c 0,20,21
 784 1358 784 1358 860 965 c 0,22,23
 876 883 876 883 879 768 c 1,24,-1
 1020 768 l 1,25,-1
 1048 623 l 1,26,-1
 874 623 l 1,27,28
 846 395 846 395 755 221 c 0,29,30
 637 -10 637 -10 448 -10 c 0,31,32
 382 -10 382 -10 322 66 c 1,33,-1
 223 203 l 1,34,35
 166 268 166 268 99 268 c 2,36,-1
 87 268 l 1,0,-1
709 768 m 1,37,38
 706 854 706 854 680 987 c 0,39,40
 623 1282 623 1282 451 1282 c 0,41,42
 330 1282 330 1282 282 1157 c 0,43,44
 241 1053 241 1053 266 924 c 0,45,46
 286 822 286 822 362 791 c 0,47,48
 413 768 413 768 524 768 c 2,49,-1
 709 768 l 1,37,38
EndSplineSet
EndChar

StartChar: Kappa
Encoding: 75 75 46
Width: 1557
GlyphClass: 1
Flags: W
LayerCount: 2
Fore
SplineSet
269 215 m 2,0,-1
 269 1110 l 2,1,2
 269 1231 269 1231 228.5 1269.5 c 128,-1,3
 188 1308 188 1308 71 1312 c 1,4,-1
 71 1343 l 1,5,-1
 671 1343 l 1,6,-1
 671 1312 l 1,7,8
 554 1308 554 1308 512 1268.5 c 128,-1,9
 470 1229 470 1229 470 1110 c 2,10,-1
 470 693 l 1,11,-1
 475 693 l 2,12,13
 506 695 506 695 540 725 c 2,14,-1
 541 726 l 2,15,16
 544 729 544 729 545 730 c 2,17,-1
 545 731 l 1,18,-1
 546 731 l 1,19,-1
 889 1067 l 2,20,21
 950 1129 950 1129 982.5 1173.5 c 128,-1,22
 1015 1218 1015 1218 1015 1243 c 0,23,24
 1015 1277 1015 1277 982.5 1292 c 128,-1,25
 950 1307 950 1307 875 1312 c 1,26,-1
 875 1343 l 1,27,-1
 1406 1343 l 1,28,-1
 1406 1312 l 1,29,30
 1312 1308 1312 1308 1237.5 1273 c 128,-1,31
 1163 1238 1163 1238 1064 1141 c 2,32,-1
 677 762 l 1,33,-1
 1284 162 l 2,34,35
 1357 91 1357 91 1408 62 c 128,-1,36
 1459 33 1459 33 1511 32 c 1,37,-1
 1511 1 l 1,38,-1
 886 1 l 1,39,-1
 886 32 l 1,40,-1
 891 32 l 1,41,42
 1037 44 1037 44 1037 92 c 0,43,44
 1037 113 1037 113 1026.5 131.5 c 128,-1,45
 1016 150 1016 150 985 182 c 2,46,-1
 551 614 l 2,47,48
 528 637 528 637 517.5 641.5 c 128,-1,49
 507 646 507 646 489 646 c 2,50,-1
 470 646 l 1,51,-1
 470 209 l 2,52,53
 470 106 470 106 510.5 71 c 128,-1,54
 551 36 551 36 665 32 c 1,55,-1
 665 1 l 1,56,-1
 68 1 l 1,57,-1
 68 32 l 1,58,-1
 74 32 l 2,59,60
 184 32 184 32 226.5 72.5 c 128,-1,61
 269 113 269 113 269 215 c 2,0,-1
EndSplineSet
EndChar

StartChar: Lambda
Encoding: 76 76 47
Width: 1432
GlyphClass: 1
Flags: W
LayerCount: 2
Fore
SplineSet
1171 277 m 2,0,1
 1231 131 1231 131 1276.5 82.5 c 128,-1,2
 1322 34 1322 34 1388 32 c 1,3,-1
 1388 1 l 1,4,-1
 855 1 l 1,5,-1
 855 32 l 1,6,7
 941 37 941 37 972.5 53 c 128,-1,8
 1004 69 1004 69 1004 107 c 0,9,10
 1004 180 1004 180 734 815 c 2,11,-1
 639 1039 l 1,12,-1
 308 250 l 2,13,14
 291 210 291 210 281 176.5 c 128,-1,15
 271 143 271 143 271 125 c 0,16,17
 271 76 271 76 301.5 57 c 128,-1,18
 332 38 332 38 417 32 c 1,19,-1
 417 1 l 1,20,-1
 34 1 l 1,21,-1
 34 32 l 1,22,23
 85 36 85 36 119.5 72.5 c 128,-1,24
 154 109 154 109 208 238 c 2,25,-1
 679 1373 l 1,26,-1
 722 1373 l 1,27,-1
 1171 277 l 2,0,1
EndSplineSet
EndChar

StartChar: Mu
Encoding: 77 77 48
Width: 1851
GlyphClass: 1
Flags: W
LayerCount: 2
Fore
SplineSet
247 1098 m 2,0,1
 247 1233 247 1233 211.5 1267 c 128,-1,2
 176 1301 176 1301 68 1312 c 1,3,-1
 68 1343 l 1,4,-1
 456 1343 l 1,5,-1
 922 310 l 1,6,-1
 1381 1343 l 1,7,-1
 1764 1343 l 1,8,-1
 1764 1312 l 1,9,10
 1655 1308 1655 1308 1617.5 1274 c 128,-1,11
 1580 1240 1580 1240 1580 1108 c 2,12,-1
 1580 236 l 2,13,14
 1580 111 1580 111 1615 77 c 128,-1,15
 1650 43 1650 43 1764 32 c 1,16,-1
 1764 1 l 1,17,-1
 1197 1 l 1,18,-1
 1197 32 l 1,19,20
 1309 39 1309 39 1345 75 c 128,-1,21
 1381 111 1381 111 1381 236 c 2,22,-1
 1381 1128 l 1,23,-1
 880 1 l 1,24,-1
 841 1 l 1,25,-1
 337 1127 l 1,26,-1
 337 260 l 2,27,28
 337 119 337 119 373.5 77.5 c 128,-1,29
 410 36 410 36 523 32 c 1,30,-1
 523 1 l 1,31,-1
 68 1 l 1,32,-1
 68 32 l 1,33,34
 171 34 171 34 209 82.5 c 128,-1,35
 247 131 247 131 247 272 c 2,36,-1
 247 1098 l 2,0,1
EndSplineSet
EndChar

StartChar: Nu
Encoding: 78 78 49
Width: 1500
GlyphClass: 1
Flags: W
LayerCount: 2
Fore
SplineSet
44 1 m 1,0,-1
 44 32 l 1,1,2
 159 41 159 41 196.5 72 c 128,-1,3
 234 103 234 103 234 221 c 2,4,-1
 234 1171 l 1,5,-1
 233 1172 l 1,6,7
 193 1243 193 1243 150 1274 c 128,-1,8
 107 1305 107 1305 44 1312 c 1,9,-1
 44 1343 l 1,10,-1
 385 1343 l 1,11,-1
 1170 381 l 1,12,-1
 1170 1122 l 2,13,14
 1170 1236 1170 1236 1134 1268.5 c 128,-1,15
 1098 1301 1098 1301 980 1312 c 1,16,-1
 980 1343 l 1,17,-1
 1451 1343 l 1,18,-1
 1451 1312 l 1,19,20
 1334 1301 1334 1301 1297.5 1270.5 c 128,-1,21
 1261 1240 1261 1240 1261 1122 c 2,22,-1
 1261 1 l 1,23,-1
 1221 1 l 1,24,-1
 327 1093 l 1,25,-1
 327 221 l 2,26,27
 327 104 327 104 364 72.5 c 128,-1,28
 401 41 401 41 517 32 c 1,29,-1
 517 1 l 1,30,-1
 44 1 l 1,0,-1
EndSplineSet
EndChar

StartChar: Omicron
Encoding: 79 79 50
Width: 1479
GlyphClass: 1
Flags: W
LayerCount: 2
Fore
SplineSet
1054 1142 m 128,-1,1
 938 1315 938 1315 741 1315 c 0,2,3
 543 1315 543 1315 425.5 1141.5 c 128,-1,4
 308 968 308 968 308 677 c 0,5,6
 308 387 308 387 425.5 213 c 128,-1,7
 543 39 543 39 741 39 c 0,8,9
 938 39 938 39 1054 212.5 c 128,-1,10
 1170 386 1170 386 1170 677 c 0,11,0
 1170 969 1170 969 1054 1142 c 128,-1,1
91 677 m 0,12,13
 91 995 91 995 270 1186.5 c 128,-1,14
 449 1378 449 1378 741 1378 c 0,15,16
 1032 1378 1032 1378 1211 1186 c 128,-1,17
 1390 994 1390 994 1390 677 c 0,18,19
 1390 361 1390 361 1211 168 c 128,-1,20
 1032 -25 1032 -25 741 -25 c 0,21,22
 449 -25 449 -25 313.5 120.5 c 128,-1,23
 178 266 178 266 134.5 394.5 c 128,-1,24
 91 523 91 523 91 656 c 0,25,26
 91 657 91 657 91 659.5 c 128,-1,27
 91 662 91 662 91 666.5 c 128,-1,28
 91 671 91 671 91 677 c 0,12,13
EndSplineSet
EndChar

StartChar: Pi
Encoding: 80 80 51
Width: 1609
GlyphClass: 1
Flags: W
LayerCount: 2
Fore
SplineSet
1529 1312 m 1,0,1
 1409 1306 1409 1306 1368.5 1269 c 128,-1,2
 1328 1232 1328 1232 1328 1126 c 2,3,-1
 1328 219 l 2,4,5
 1328 109 1328 109 1367.5 72.5 c 128,-1,6
 1407 36 1407 36 1529 32 c 1,7,-1
 1529 1 l 1,8,-1
 918 1 l 1,9,-1
 918 32 l 1,10,11
 1037 36 1037 36 1078 74.5 c 128,-1,12
 1119 113 1119 113 1119 219 c 2,13,-1
 1119 1090 l 2,14,15
 1119 1201 1119 1201 1074.5 1239 c 128,-1,16
 1030 1277 1030 1277 889 1277 c 2,17,-1
 696 1277 l 2,18,19
 554 1277 554 1277 509 1239 c 128,-1,20
 464 1201 464 1201 464 1090 c 2,21,-1
 464 219 l 2,22,23
 464 112 464 112 504.5 74 c 128,-1,24
 545 36 545 36 665 32 c 1,25,-1
 665 1 l 1,26,-1
 52 1 l 1,27,-1
 52 32 l 1,28,29
 174 36 174 36 213.5 72.5 c 128,-1,30
 253 109 253 109 253 219 c 2,31,-1
 253 1126 l 2,32,33
 253 1232 253 1232 212.5 1269 c 128,-1,34
 172 1306 172 1306 52 1312 c 1,35,-1
 52 1343 l 1,36,-1
 1529 1343 l 1,37,-1
 1529 1312 l 1,0,1
EndSplineSet
EndChar

StartChar: Theta
Encoding: 81 81 52
Width: 1518
GlyphClass: 1
Flags: W
LayerCount: 2
Fore
SplineSet
676 765 m 2,0,-1
 844 765 l 2,1,2
 943 765 943 765 976 793.5 c 128,-1,3
 1009 822 1009 822 1015 902 c 1,4,-1
 1054 902 l 1,5,-1
 1054 488 l 1,6,-1
 1015 488 l 1,7,8
 1009 567 1009 567 976.5 596 c 128,-1,9
 944 625 944 625 844 625 c 2,10,-1
 676 625 l 2,11,12
 574 625 574 625 541 596 c 128,-1,13
 508 567 508 567 503 488 c 1,14,-1
 464 488 l 1,15,-1
 464 902 l 1,16,-1
 503 902 l 1,17,18
 508 823 508 823 541 794 c 128,-1,19
 574 765 574 765 676 765 c 2,0,-1
1083 220.5 m 128,-1,21
 1203 393 1203 393 1203 684 c 128,-1,22
 1203 975 1203 975 1083 1148.5 c 128,-1,23
 963 1322 963 1322 760 1322 c 0,24,25
 555 1322 555 1322 434.5 1149 c 128,-1,26
 314 976 314 976 314 684 c 0,27,28
 314 393 314 393 434.5 220.5 c 128,-1,29
 555 48 555 48 760 48 c 0,30,20
 963 48 963 48 1083 220.5 c 128,-1,21
760 1385 m 0,31,32
 1058 1385 1058 1385 1241.5 1193 c 128,-1,33
 1425 1001 1425 1001 1425 684 c 0,34,35
 1425 368 1425 368 1241.5 176 c 128,-1,36
 1058 -16 1058 -16 760 -16 c 0,37,38
 460 -16 460 -16 345 104 c 128,-1,39
 230 224 230 224 194.5 283.5 c 128,-1,40
 159 343 159 343 141.5 390.5 c 128,-1,41
 124 438 124 438 113.5 483.5 c 128,-1,42
 103 529 103 529 101 548.5 c 128,-1,43
 99 568 99 568 99 574 c 2,44,45
 99 574 99 574 98.5 579.5 c 128,-1,46
 98 585 98 585 97 595 c 128,-1,47
 96 605 96 605 95 617.5 c 128,-1,48
 94 630 94 630 93.5 648 c 128,-1,49
 93 666 93 666 93 684 c 0,50,51
 93 1001 93 1001 277 1193 c 128,-1,52
 461 1385 461 1385 760 1385 c 0,31,32
EndSplineSet
EndChar

StartChar: Rho
Encoding: 82 82 53
Width: 1139
GlyphClass: 1
Flags: W
LayerCount: 2
Fore
SplineSet
464.5 1259 m 128,-1,1
 441 1237 441 1237 441 1161 c 2,2,-1
 441 748 l 2,3,4
 441 711 441 711 455.5 695 c 128,-1,5
 470 679 470 679 502 679 c 0,6,7
 683 679 683 679 773 755.5 c 128,-1,8
 863 832 863 832 863 985 c 0,9,10
 863 1131 863 1131 784 1206 c 128,-1,11
 705 1281 705 1281 551 1281 c 0,12,0
 488 1281 488 1281 464.5 1259 c 128,-1,1
236 1135 m 2,13,14
 236 1244 236 1244 200 1275 c 128,-1,15
 164 1306 164 1306 52 1312 c 1,16,-1
 52 1343 l 1,17,-1
 618 1343 l 2,18,19
 843 1343 843 1343 958.5 1255 c 128,-1,20
 1074 1167 1074 1167 1074 997 c 0,21,22
 1074 870 1074 870 1009 779 c 128,-1,23
 944 688 944 688 825 650 c 0,24,25
 777 634 777 634 711 626.5 c 128,-1,26
 645 619 645 619 494 619 c 2,27,-1
 477 619 l 2,28,29
 455 619 455 619 448 611.5 c 128,-1,30
 441 604 441 604 441 576 c 2,31,-1
 441 258 l 2,32,33
 441 114 441 114 477 74 c 128,-1,34
 513 34 513 34 632 32 c 1,35,-1
 632 1 l 1,36,-1
 52 1 l 1,37,-1
 52 32 l 1,38,39
 165 33 165 33 200.5 74.5 c 128,-1,40
 236 116 236 116 236 258 c 2,41,-1
 236 1135 l 2,13,14
EndSplineSet
EndChar

StartChar: Sigma
Encoding: 83 83 54
Width: 1212
GlyphClass: 1
Flags: W
LayerCount: 2
Fore
SplineSet
1101 982 m 1,0,-1
 1062 982 l 1,1,2
 1047 1128 1047 1128 960.5 1202.5 c 128,-1,3
 874 1277 874 1277 713 1277 c 2,4,-1
 317 1277 l 1,5,-1
 814 729 l 1,6,-1
 814 703 l 1,7,-1
 279 188 l 1,8,-1
 893 188 l 2,9,10
 989 188 989 188 1023 224.5 c 128,-1,11
 1057 261 1057 261 1066 364 c 1,12,-1
 1105 364 l 1,13,-1
 1105 1 l 1,14,-1
 23 1 l 1,15,-1
 23 51 l 1,16,-1
 644 649 l 1,17,-1
 50 1303 l 1,18,-1
 50 1343 l 1,19,-1
 1101 1343 l 1,20,-1
 1101 982 l 1,0,-1
EndSplineSet
EndChar

StartChar: Tau
Encoding: 84 84 55
Width: 1251
GlyphClass: 1
Flags: W
LayerCount: 2
Fore
SplineSet
529 1210 m 2,0,1
 529 1275 529 1275 434 1275 c 0,2,3
 224 1275 224 1275 160 1220 c 128,-1,4
 96 1165 96 1165 76 1005 c 1,5,-1
 38 1005 l 1,6,-1
 48 1343 l 1,7,-1
 1230 1343 l 1,8,-1
 1230 1005 l 1,9,-1
 1188 1005 l 1,10,11
 1171 1164 1171 1164 1111 1219.5 c 128,-1,12
 1051 1275 1051 1275 825 1275 c 2,13,-1
 811 1275 l 2,14,15
 759 1275 759 1275 747.5 1264 c 128,-1,16
 736 1253 736 1253 736 1210 c 2,17,-1
 736 234 l 2,18,19
 736 101 736 101 776.5 68.5 c 128,-1,20
 817 36 817 36 935 32 c 1,21,-1
 935 1 l 1,22,-1
 331 1 l 1,23,-1
 331 32 l 1,24,25
 455 35 455 35 492 73.5 c 128,-1,26
 529 112 529 112 529 244 c 2,27,-1
 529 1210 l 2,0,1
EndSplineSet
EndChar

StartChar: Upsilon
Encoding: 85 85 56
Width: 1413
GlyphClass: 1
Flags: W
LayerCount: 2
Fore
SplineSet
618 1312 m 1,0,1
 529 1304 529 1304 500.5 1290.5 c 128,-1,2
 472 1277 472 1277 472 1245 c 0,3,4
 472 1227 472 1227 479.5 1208.5 c 128,-1,5
 487 1190 487 1190 508 1158 c 2,6,-1
 807 698 l 1,7,-1
 1064 1119 l 1,8,-1
 1064 1121 l 1,9,10
 1121 1214 1121 1214 1121 1243 c 0,11,12
 1121 1275 1121 1275 1095.5 1288.5 c 128,-1,13
 1070 1302 1070 1302 986 1311 c 1,14,-1
 986 1343 l 1,15,-1
 1384 1343 l 1,16,-1
 1384 1313 l 1,17,18
 1325 1306 1325 1306 1284 1275.5 c 128,-1,19
 1243 1245 1243 1245 1182 1148 c 2,20,-1
 847 605 l 1,21,-1
 847 193 l 2,22,23
 847 104 847 104 885.5 70 c 128,-1,24
 924 36 924 36 1033 32 c 1,25,-1
 1033 1 l 1,26,-1
 458 1 l 1,27,-1
 458 32 l 1,28,-1
 463 32 l 2,29,30
 565 32 565 32 604.5 71 c 128,-1,31
 644 110 644 110 644 207 c 2,32,-1
 644 584 l 1,33,-1
 227 1201 l 2,34,35
 189 1258 189 1258 144 1283 c 128,-1,36
 99 1308 99 1308 32 1312 c 1,37,-1
 32 1343 l 1,38,-1
 618 1343 l 1,39,-1
 618 1312 l 1,0,1
EndSplineSet
EndChar

StartChar: sigma1
Encoding: 86 86 57
Width: 899
GlyphClass: 1
Flags: W
LayerCount: 2
Fore
SplineSet
793 956 m 1,0,-1
 831 956 l 1,1,2
 828 853 828 853 775.5 805 c 128,-1,3
 723 757 723 757 608 757 c 2,4,-1
 600 757 l 2,5,6
 585 757 585 757 534.5 760 c 128,-1,7
 484 763 484 763 451 763 c 0,8,9
 311 763 311 763 223.5 677.5 c 128,-1,10
 136 592 136 592 136 459 c 0,11,12
 136 312 136 312 220.5 244.5 c 128,-1,13
 305 177 305 177 551 159 c 0,14,15
 691 149 691 149 747.5 98 c 128,-1,16
 804 47 804 47 804 -61 c 0,17,18
 804 -207 804 -207 692.5 -296.5 c 128,-1,19
 581 -386 581 -386 395 -386 c 0,20,21
 293 -386 293 -386 250.5 -370 c 128,-1,22
 208 -354 208 -354 208 -317 c 0,23,24
 208 -289 208 -289 228 -274 c 128,-1,25
 248 -259 248 -259 285 -259 c 0,26,27
 308 -259 308 -259 383.5 -283.5 c 128,-1,28
 459 -308 459 -308 512 -308 c 0,29,30
 603 -308 603 -308 671.5 -257.5 c 128,-1,31
 740 -207 740 -207 740 -139 c 0,32,33
 740 -83 740 -83 713.5 -53.5 c 128,-1,34
 687 -24 687 -24 622 -9 c 0,35,36
 583 0 583 0 492 6 c 128,-1,37
 401 12 401 12 363 19 c 0,38,39
 225 43 225 43 157 143.5 c 128,-1,40
 89 244 89 244 89 426 c 0,41,42
 89 661 89 661 189.5 788 c 128,-1,43
 290 915 290 915 477 915 c 0,44,45
 522 915 522 915 589.5 909.5 c 128,-1,46
 657 904 657 904 678 904 c 0,47,48
 729 904 729 904 759.5 918.5 c 128,-1,49
 790 933 790 933 793 956 c 1,0,-1
EndSplineSet
EndChar

StartChar: Omega
Encoding: 87 87 58
Width: 1573
GlyphClass: 1
Flags: W
LayerCount: 2
Fore
SplineSet
1214 175 m 2,0,1
 1319 175 1319 175 1355.5 212.5 c 128,-1,2
 1392 250 1392 250 1400 351 c 1,3,-1
 1437 351 l 1,4,-1
 1437 1 l 1,5,-1
 890 1 l 1,6,-1
 890 361 l 1,7,8
 1048 393 1048 393 1141 519 c 128,-1,9
 1234 645 1234 645 1234 832 c 0,10,11
 1234 1049 1234 1049 1112.5 1179.5 c 128,-1,12
 991 1310 991 1310 786 1310 c 0,13,14
 582 1310 582 1310 460.5 1180 c 128,-1,15
 339 1050 339 1050 339 832 c 0,16,17
 339 644 339 644 431 519 c 128,-1,18
 523 394 523 394 683 361 c 1,19,-1
 683 1 l 1,20,-1
 136 1 l 1,21,-1
 136 351 l 1,22,-1
 173 351 l 1,23,24
 180 251 180 251 216.5 213 c 128,-1,25
 253 175 253 175 358 175 c 2,26,-1
 615 175 l 1,27,-1
 615 305 l 1,28,-1
 611 306 l 1,29,30
 370 350 370 350 238.5 487.5 c 128,-1,31
 107 625 107 625 107 832 c 0,32,33
 107 1076 107 1076 293.5 1224.5 c 128,-1,34
 480 1373 480 1373 786 1373 c 0,35,36
 1093 1373 1093 1373 1279 1224.5 c 128,-1,37
 1465 1076 1465 1076 1465 832 c 0,38,39
 1465 626 1465 626 1333.5 488 c 128,-1,40
 1202 350 1202 350 962 306 c 1,41,-1
 958 305 l 1,42,-1
 958 175 l 1,43,-1
 1214 175 l 2,0,1
EndSplineSet
EndChar

StartChar: Xi
Encoding: 88 88 59
Width: 1321
GlyphClass: 1
Flags: W
LayerCount: 2
Fore
SplineSet
342 188 m 2,0,-1
 987 188 l 2,1,2
 1090 188 1090 188 1128 225.5 c 128,-1,3
 1166 263 1166 263 1174 364 c 1,4,-1
 1209 364 l 1,5,-1
 1209 1 l 1,6,-1
 118 1 l 1,7,-1
 118 364 l 1,8,-1
 153 364 l 1,9,10
 161 263 161 263 199 225.5 c 128,-1,11
 237 188 237 188 342 188 c 2,0,-1
563 761 m 2,12,-1
 766 761 l 2,13,14
 879 761 879 761 913.5 788.5 c 128,-1,15
 948 816 948 816 953 890 c 1,16,-1
 988 890 l 1,17,-1
 988 462 l 1,18,-1
 953 462 l 1,19,20
 948 541 948 541 911.5 570 c 128,-1,21
 875 599 875 599 766 599 c 2,22,-1
 563 599 l 2,23,24
 455 599 455 599 418 570 c 128,-1,25
 381 541 381 541 376 462 c 1,26,-1
 339 462 l 1,27,-1
 339 890 l 1,28,-1
 376 890 l 1,29,30
 381 816 381 816 415.5 788.5 c 128,-1,31
 450 761 450 761 563 761 c 2,12,-1
1203 982 m 1,32,-1
 1168 982 l 1,33,34
 1160 1084 1160 1084 1123.5 1121 c 128,-1,35
 1087 1158 1087 1158 985 1158 c 2,36,-1
 346 1158 l 2,37,38
 241 1158 241 1158 203.5 1120 c 128,-1,39
 166 1082 166 1082 159 982 c 1,40,-1
 124 982 l 1,41,-1
 124 1343 l 1,42,-1
 1203 1343 l 1,43,-1
 1203 982 l 1,32,-1
EndSplineSet
EndChar

StartChar: Psi
Encoding: 89 89 60
Width: 1628
GlyphClass: 1
Flags: W
LayerCount: 2
Fore
SplineSet
710 476 m 1,0,-1
 710 1126 l 2,1,2
 710 1233 710 1233 670 1269.5 c 128,-1,3
 630 1306 630 1306 509 1312 c 1,4,-1
 509 1343 l 1,5,-1
 1121 1343 l 1,6,-1
 1121 1312 l 1,7,8
 1002 1306 1002 1306 961.5 1269.5 c 128,-1,9
 921 1233 921 1233 921 1126 c 2,10,-1
 921 476 l 1,11,-1
 926 476 l 1,12,13
 1116 487 1116 487 1188 562.5 c 128,-1,14
 1260 638 1260 638 1260 838 c 2,15,-1
 1260 1020 l 2,16,17
 1260 1205 1260 1205 1319 1279 c 128,-1,18
 1378 1353 1378 1353 1520 1353 c 0,19,20
 1550 1353 1550 1353 1575 1351 c 128,-1,21
 1600 1349 1600 1349 1623 1346 c 1,22,-1
 1623 1306 l 1,23,-1
 1591 1306 l 2,24,25
 1524 1306 1524 1306 1498 1265.5 c 128,-1,26
 1472 1225 1472 1225 1472 1086 c 2,27,-1
 1472 860 l 2,28,29
 1472 652 1472 652 1335.5 544 c 128,-1,30
 1199 436 1199 436 926 427 c 1,31,-1
 921 427 l 1,32,-1
 921 219 l 2,33,34
 921 112 921 112 962 74 c 128,-1,35
 1003 36 1003 36 1121 32 c 1,36,-1
 1119 1 l 1,37,-1
 509 1 l 1,38,-1
 509 32 l 1,39,40
 630 36 630 36 670 71.5 c 128,-1,41
 710 107 710 107 710 219 c 2,42,-1
 710 427 l 1,43,-1
 705 427 l 1,44,45
 431 436 431 436 295 544 c 128,-1,46
 159 652 159 652 159 860 c 2,47,-1
 159 1086 l 2,48,49
 159 1225 159 1225 133 1265.5 c 128,-1,50
 107 1306 107 1306 39 1306 c 2,51,-1
 7 1306 l 1,52,-1
 7 1346 l 1,53,54
 28 1349 28 1349 53 1351 c 128,-1,55
 78 1353 78 1353 109 1353 c 0,56,57
 250 1353 250 1353 310 1278.5 c 128,-1,58
 370 1204 370 1204 370 1020 c 2,59,-1
 370 838 l 2,60,61
 370 636 370 636 441.5 561 c 128,-1,62
 513 486 513 486 705 476 c 1,63,-1
 710 476 l 1,0,-1
EndSplineSet
EndChar

StartChar: Zeta
Encoding: 90 90 61
Width: 1312
GlyphClass: 1
Flags: W
LayerCount: 2
Fore
SplineSet
183 998 m 1,0,-1
 139 998 l 1,1,-1
 163 1343 l 1,2,-1
 1177 1343 l 1,3,-1
 350 75 l 1,4,-1
 789 75 l 2,5,6
 996 75 996 75 1077.5 136.5 c 128,-1,7
 1159 198 1159 198 1199 368 c 1,8,-1
 1242 368 l 1,9,-1
 1182 1 l 1,10,-1
 69 1 l 1,11,-1
 894 1267 l 1,12,-1
 517 1267 l 2,13,14
 329 1267 329 1267 267 1211.5 c 128,-1,15
 205 1156 205 1156 183 998 c 1,0,-1
EndSplineSet
EndChar

StartChar: bracketleft
Encoding: 91 91 62
Width: 577
GlyphClass: 1
Flags: W
LayerCount: 2
Fore
SplineSet
150 -403 m 1,0,-1
 150 1622 l 1,1,-1
 504 1622 l 1,2,-1
 504 1552 l 1,3,-1
 248 1552 l 1,4,-1
 248 -333 l 1,5,-1
 504 -333 l 1,6,-1
 504 -403 l 1,7,-1
 150 -403 l 1,0,-1
EndSplineSet
EndChar

StartChar: therefore
Encoding: 92 92 63
Width: 1767
GlyphClass: 1
Flags: W
LayerCount: 2
Fore
SplineSet
487 121 m 0,0,1
 487 72 487 72 452.5 36 c 128,-1,2
 418 0 418 0 366 0 c 256,3,4
 314 0 314 0 279.5 36 c 128,-1,5
 245 72 245 72 245 121 c 0,6,7
 245 172 245 172 280 207 c 128,-1,8
 315 242 315 242 366 242 c 256,9,10
 417 242 417 242 452 207 c 128,-1,11
 487 172 487 172 487 121 c 0,0,1
1527 121 m 0,12,13
 1527 72 1527 72 1492.5 36 c 128,-1,14
 1458 0 1458 0 1406 0 c 256,15,16
 1354 0 1354 0 1319.5 36 c 128,-1,17
 1285 72 1285 72 1285 121 c 0,18,19
 1285 172 1285 172 1320 207 c 128,-1,20
 1355 242 1355 242 1406 242 c 256,21,22
 1457 242 1457 242 1492 207 c 128,-1,23
 1527 172 1527 172 1527 121 c 0,12,13
1005 923 m 0,24,25
 1005 874 1005 874 970.5 838 c 128,-1,26
 936 802 936 802 884 802 c 256,27,28
 832 802 832 802 797.5 838 c 128,-1,29
 763 874 763 874 763 923 c 0,30,31
 763 974 763 974 798 1009 c 128,-1,32
 833 1044 833 1044 884 1044 c 256,33,34
 935 1044 935 1044 970 1009 c 128,-1,35
 1005 974 1005 974 1005 923 c 0,24,25
EndSplineSet
EndChar

StartChar: bracketright
Encoding: 93 93 64
Width: 577
GlyphClass: 1
Flags: W
LayerCount: 2
Fore
SplineSet
428 -403 m 1,0,-1
 74 -403 l 1,1,-1
 74 -329 l 1,2,-1
 330 -329 l 1,3,-1
 330 1552 l 1,4,-1
 74 1552 l 1,5,-1
 74 1622 l 1,6,-1
 428 1622 l 1,7,-1
 428 -403 l 1,0,-1
EndSplineSet
EndChar

StartChar: perpendicular
Encoding: 94 94 65
Width: 1431
GlyphClass: 1
Flags: W
LayerCount: 2
Fore
SplineSet
770 1356 m 1,0,-1
 770 96 l 1,1,-1
 1356 96 l 1,2,-1
 1356 0 l 1,3,-1
 82 0 l 1,4,-1
 82 96 l 1,5,-1
 674 96 l 1,6,-1
 674 1356 l 1,7,-1
 770 1356 l 1,0,-1
EndSplineSet
EndChar

StartChar: underscore
Encoding: 95 95 66
Width: 1024
GlyphClass: 1
Flags: W
LayerCount: 2
Fore
SplineSet
-16 -264 m 1,0,-1
 -16 -162 l 1,1,-1
 1040 -162 l 1,2,-1
 1040 -264 l 1,3,-1
 -16 -264 l 1,0,-1
EndSplineSet
EndChar

StartChar: radicalex
Encoding: 96 96 67
Width: 1024
GlyphClass: 1
Flags: W
LayerCount: 2
Fore
SplineSet
986 1869 m 1,0,-1
 2002 1869 l 1,1,-1
 2002 1794 l 1,2,-1
 986 1794 l 1,3,-1
 986 1869 l 1,0,-1
EndSplineSet
EndChar

StartChar: alpha
Encoding: 97 97 68
Width: 1292
GlyphClass: 1
Flags: W
LayerCount: 2
Fore
SplineSet
737 128 m 128,-1,1
 805 226 805 226 857 486 c 1,2,-1
 857 487 l 1,3,-1
 857 488 l 1,4,5
 812 700 812 700 739.5 794 c 128,-1,6
 667 888 667 888 551 888 c 0,7,8
 425 888 425 888 352.5 773.5 c 128,-1,9
 280 659 280 659 280 465 c 0,10,11
 280 255 280 255 348.5 142.5 c 128,-1,12
 417 30 417 30 549 30 c 0,13,0
 669 30 669 30 737 128 c 128,-1,1
1137 913 m 1,14,-1
 1060 613 l 2,15,16
 1039 533 1039 533 1012 457.5 c 128,-1,17
 985 382 985 382 953 313 c 1,18,-1
 953 311 l 1,19,-1
 953 309 l 1,20,21
 988 219 988 219 1028 173.5 c 128,-1,22
 1068 128 1068 128 1114 128 c 0,23,24
 1149 128 1149 128 1172.5 154.5 c 128,-1,25
 1196 181 1196 181 1202 222 c 1,26,-1
 1232 222 l 1,27,-1
 1232 205 l 2,28,29
 1232 92 1232 92 1201 38.5 c 128,-1,30
 1170 -15 1170 -15 1108 -15 c 0,31,32
 1042 -15 1042 -15 1003 37.5 c 128,-1,33
 964 90 964 90 927 241 c 2,34,-1
 924 253 l 1,35,-1
 918 243 l 2,36,37
 837 107 837 107 744 46 c 128,-1,38
 651 -15 651 -15 524 -15 c 0,39,40
 331 -15 331 -15 203 122 c 128,-1,41
 75 259 75 259 75 469 c 0,42,43
 75 658 75 658 206.5 799.5 c 128,-1,44
 338 941 338 941 518 941 c 0,45,46
 659 941 659 941 748 858 c 128,-1,47
 837 775 837 775 874 609 c 2,48,-1
 879 588 l 1,49,-1
 956 913 l 1,50,-1
 1137 913 l 1,14,-1
EndSplineSet
EndChar

StartChar: beta
Encoding: 98 98 69
Width: 1124
GlyphClass: 1
Flags: W
LayerCount: 2
Fore
SplineSet
412 159 m 1,0,1
 427 103 427 103 480.5 65.5 c 128,-1,2
 534 28 534 28 604 28 c 0,3,4
 712 28 712 28 774 123.5 c 128,-1,5
 836 219 836 219 836 381 c 0,6,7
 836 544 836 544 776.5 646.5 c 128,-1,8
 717 749 717 749 600 787 c 1,9,10
 600 787 600 787 598 787 c 2,11,-1
 597 787 l 2,12,13
 591 785 591 785 576 779 c 0,14,15
 502 746 502 746 463 746 c 0,16,17
 436 746 436 746 422 761.5 c 128,-1,18
 408 777 408 777 408 807 c 0,19,20
 408 836 408 836 422.5 848.5 c 128,-1,21
 437 861 437 861 469 861 c 0,22,23
 495 861 495 861 576 831 c 2,24,-1
 606 820 l 1,25,-1
 608 820 l 1,26,27
 676 849 676 849 709 912.5 c 128,-1,28
 742 976 742 976 742 1075 c 0,29,30
 742 1205 742 1205 684.5 1281 c 128,-1,31
 627 1357 627 1357 530 1357 c 0,32,33
 414 1357 414 1357 363 1266.5 c 128,-1,34
 312 1176 312 1176 312 965 c 2,35,-1
 312 -412 l 1,36,-1
 142 -412 l 1,37,-1
 142 774 l 2,38,39
 142 1077 142 1077 251.5 1241.5 c 128,-1,40
 361 1406 361 1406 561 1406 c 0,41,42
 722 1406 722 1406 821.5 1322.5 c 128,-1,43
 921 1239 921 1239 921 1102 c 0,44,45
 921 1006 921 1006 851.5 931 c 128,-1,46
 782 856 782 856 649 812 c 1,47,-1
 633 806 l 1,48,-1
 650 802 l 2,49,50
 835 756 835 756 929 657.5 c 128,-1,51
 1023 559 1023 559 1023 412 c 0,52,53
 1023 225 1023 225 911 105 c 128,-1,54
 799 -15 799 -15 631 -15 c 0,55,56
 522 -15 522 -15 451 33.5 c 128,-1,57
 380 82 380 82 368 159 c 1,58,-1
 412 159 l 1,0,1
EndSplineSet
EndChar

StartChar: chi
Encoding: 99 99 70
Width: 1124
GlyphClass: 1
Flags: W
LayerCount: 2
Fore
SplineSet
851 932 m 1,0,-1
 1044 932 l 1,1,-1
 621 226 l 1,2,-1
 724 -22 l 2,3,4
 780 -156 780 -156 825 -205 c 0,5,6
 871 -254 871 -254 934 -254 c 0,7,8
 995 -254 995 -254 1023 -215.5 c 128,-1,9
 1051 -177 1051 -177 1054 -97 c 1,10,-1
 1093 -97 l 1,11,12
 1095 -116 1095 -116 1096 -135 c 128,-1,13
 1097 -154 1097 -154 1097 -184 c 0,14,15
 1097 -287 1097 -287 1052.5 -350.5 c 128,-1,16
 1008 -414 1008 -414 932 -414 c 0,17,18
 819 -414 819 -414 726 -186 c 2,19,-1
 695 -110 l 1,20,-1
 576 175 l 1,21,-1
 233 -412 l 1,22,-1
 40 -412 l 1,23,-1
 500 365 l 1,24,-1
 417 568 l 2,25,26
 369 685 369 685 315 739 c 0,27,28
 261 792 261 792 188 792 c 0,29,30
 133 792 133 792 100 755.5 c 128,-1,31
 67 719 67 719 67 658 c 0,32,33
 67 654 67 654 68 647.5 c 128,-1,34
 69 641 69 641 69 638 c 1,35,-1
 29 638 l 1,36,37
 27 655 27 655 26 673.5 c 128,-1,38
 25 692 25 692 25 724 c 0,39,40
 25 833 25 833 70.5 896.5 c 128,-1,41
 116 960 116 960 193 960 c 0,42,43
 265 960 265 960 315.5 902.5 c 128,-1,44
 366 845 366 845 454 625 c 2,45,-1
 542 412 l 1,46,-1
 851 932 l 1,0,-1
EndSplineSet
EndChar

StartChar: delta
Encoding: 100 100 71
Width: 1012
GlyphClass: 1
Flags: W
LayerCount: 2
Fore
SplineSet
705 122.5 m 128,-1,1
 763 205 763 205 763 371 c 0,2,3
 763 578 763 578 687 705 c 128,-1,4
 611 832 611 832 487 832 c 0,5,6
 377 832 377 832 316 741.5 c 128,-1,7
 255 651 255 651 255 489 c 0,8,9
 255 292 255 292 331 166 c 128,-1,10
 407 40 407 40 528 40 c 0,11,0
 647 40 647 40 705 122.5 c 128,-1,1
552 881 m 2,12,-1
 529 897 l 1,13,14
 216 1104 216 1104 216 1243 c 0,15,16
 216 1328 216 1328 278 1383.5 c 128,-1,17
 340 1439 340 1439 436 1439 c 0,18,19
 547 1439 547 1439 636.5 1368.5 c 128,-1,20
 726 1298 726 1298 750 1197 c 1,21,-1
 703 1197 l 1,22,23
 668 1284 668 1284 595 1337.5 c 128,-1,24
 522 1391 522 1391 436 1391 c 0,25,26
 381 1391 381 1391 350 1366.5 c 128,-1,27
 319 1342 319 1342 319 1298 c 0,28,29
 319 1212 319 1212 489 1104 c 2,30,31
 489 1104 489 1104 577 1047 c 0,32,33
 762 918 762 918 851.5 771.5 c 128,-1,34
 941 625 941 625 941 449 c 0,35,36
 941 237 941 237 820.5 109.5 c 128,-1,37
 700 -18 700 -18 498 -18 c 0,38,39
 312 -18 312 -18 194.5 105.5 c 128,-1,40
 77 229 77 229 77 422 c 0,41,42
 77 625 77 625 193.5 752.5 c 128,-1,43
 310 880 310 880 496 880 c 0,44,45
 511 880 511 880 523 878 c 128,-1,46
 535 876 535 876 548 872 c 0,47,48
 552 871 552 871 553.5 875 c 128,-1,49
 555 879 555 879 552 881 c 2,12,-1
EndSplineSet
EndChar

StartChar: epsilon
Encoding: 101 101 72
Width: 887
GlyphClass: 1
Flags: W
LayerCount: 2
Fore
SplineSet
308 501 m 2,0,1
 220 527 220 527 173 582 c 128,-1,2
 126 637 126 637 126 711 c 0,3,4
 126 812 126 812 214.5 877.5 c 128,-1,5
 303 943 303 943 446 943 c 0,6,7
 572 943 572 943 657.5 898.5 c 128,-1,8
 743 854 743 854 743 791 c 0,9,10
 743 760 743 760 724 742 c 128,-1,11
 705 724 705 724 674 724 c 0,12,13
 644 724 644 724 623 739.5 c 128,-1,14
 602 755 602 755 579 797 c 0,15,16
 552 850 552 850 520.5 870 c 128,-1,17
 489 890 489 890 436 890 c 0,18,19
 369 890 369 890 332.5 842.5 c 128,-1,20
 296 795 296 795 296 709 c 128,-1,21
 296 623 296 623 332.5 573 c 128,-1,22
 369 523 369 523 432 523 c 0,23,24
 458 523 458 523 504.5 536.5 c 128,-1,25
 551 550 551 550 573 550 c 0,26,27
 601 550 601 550 617.5 534.5 c 128,-1,28
 634 519 634 519 634 494 c 0,29,30
 634 464 634 464 618.5 448.5 c 128,-1,31
 603 433 603 433 573 433 c 0,32,33
 550 433 550 433 505.5 451.5 c 128,-1,34
 461 470 461 470 434 470 c 0,35,36
 367 470 367 470 329.5 418 c 128,-1,37
 292 366 292 366 292 276 c 0,38,39
 292 177 292 177 348 115.5 c 128,-1,40
 404 54 404 54 496 54 c 0,41,42
 579 54 579 54 639 101 c 128,-1,43
 699 148 699 148 743 243 c 1,44,-1
 791 221 l 1,45,46
 740 101 740 101 653.5 41.5 c 128,-1,47
 567 -18 567 -18 438 -18 c 0,48,49
 293 -18 293 -18 203.5 56.5 c 128,-1,50
 114 131 114 131 114 252 c 0,51,52
 114 339 114 339 164 400.5 c 128,-1,53
 214 462 214 462 308 491 c 2,54,-1
 324 496 l 1,55,-1
 308 501 l 2,0,1
EndSplineSet
EndChar

StartChar: phi
Encoding: 102 102 73
Width: 1067
GlyphClass: 1
Flags: W
LayerCount: 2
Fore
SplineSet
774.5 762 m 128,-1,1
 702 881 702 881 586 892 c 1,2,-1
 581 893 l 1,3,-1
 603 37 l 1,4,-1
 609 38 l 2,5,6
 718 60 718 60 782.5 175 c 128,-1,7
 847 290 847 290 847 463 c 0,8,0
 847 643 847 643 774.5 762 c 128,-1,1
466 37 m 1,9,-1
 486 893 l 1,10,-1
 481 892 l 1,11,12
 364 881 364 881 292 762.5 c 128,-1,13
 220 644 220 644 220 463 c 0,14,15
 220 291 220 291 286 174 c 128,-1,16
 352 57 352 57 460 38 c 2,17,-1
 466 37 l 1,9,-1
584 941 m 1,18,19
 775 935 775 935 892 804 c 128,-1,20
 1009 673 1009 673 1009 463 c 0,21,22
 1009 260 1009 260 899.5 130 c 128,-1,23
 790 0 790 0 608 -15 c 1,24,-1
 603 -15 l 1,25,-1
 603 -412 l 1,26,-1
 466 -412 l 1,27,-1
 466 -15 l 1,28,-1
 461 -15 l 1,29,30
 278 -2 278 -2 167 129 c 128,-1,31
 56 260 56 260 56 463 c 0,32,33
 56 672 56 672 173.5 803.5 c 128,-1,34
 291 935 291 935 483 941 c 1,35,-1
 488 941 l 1,36,-1
 499 1338 l 1,37,-1
 570 1338 l 1,38,-1
 579 941 l 1,39,-1
 584 941 l 1,18,19
EndSplineSet
EndChar

StartChar: gamma
Encoding: 103 103 74
Width: 1156
GlyphClass: 1
Flags: W
LayerCount: 2
Fore
SplineSet
520 101 m 1,0,1
 465 297 465 297 396 468 c 0,2,3
 288 733 288 733 205 787 c 256,4,5
 122 841 122 841 -18 838 c 1,6,-1
 92 959 l 1,7,8
 340 959 340 959 488 701 c 0,9,10
 566 564 566 564 660 234 c 1,11,12
 950 653 950 653 910 857 c 0,13,14
 899 913 899 913 862 959 c 1,15,-1
 1071 959 l 1,16,17
 1079 934 1079 934 1083 916 c 0,18,19
 1108 786 1108 786 933 527 c 2,20,-1
 687 161 l 1,21,22
 702 100 702 100 714 42 c 0,23,24
 745 -132 745 -132 688 -254 c 0,25,26
 616 -411 616 -411 442 -411 c 0,27,28
 374 -411 374 -411 311 -369 c 0,29,30
 247 -326 247 -326 236 -262 c 0,31,32
 206 -90 206 -90 520 101 c 1,0,1
546 38 m 1,33,34
 291 -140 291 -140 310 -235 c 0,35,36
 327 -321 327 -321 413 -321 c 0,37,38
 516 -321 516 -321 551 -211 c 0,39,40
 579 -120 579 -120 562 -34 c 0,41,42
 553 8 553 8 546 38 c 1,33,34
EndSplineSet
EndChar

StartChar: eta
Encoding: 104 104 75
Width: 1235
GlyphClass: 1
Flags: W
LayerCount: 2
Fore
SplineSet
877 -411 m 1,0,-1
 877 602 l 2,1,2
 877 744 877 744 844.5 797.5 c 128,-1,3
 812 851 812 851 729 851 c 0,4,5
 599 851 599 851 515 685 c 128,-1,6
 431 519 431 519 431 264 c 2,7,-1
 431 1 l 1,8,-1
 249 1 l 1,9,-1
 249 668 l 2,10,11
 249 761 249 761 227 806 c 128,-1,12
 205 851 205 851 158 851 c 0,13,14
 107 851 107 851 81.5 807 c 128,-1,15
 56 763 56 763 56 680 c 2,16,-1
 56 656 l 1,17,-1
 24 656 l 1,18,19
 24 662 24 662 23.5 669.5 c 128,-1,20
 23 677 23 677 23 694 c 0,21,22
 23 809 23 809 72 870 c 128,-1,23
 121 931 121 931 211 931 c 0,24,25
 318 931 318 931 372 842.5 c 128,-1,26
 426 754 426 754 427 569 c 0,27,28
 427 565 427 565 431.5 564 c 128,-1,29
 436 563 436 563 437 568 c 0,30,31
 487 755 487 755 571.5 843 c 128,-1,32
 656 931 656 931 786 931 c 0,33,34
 931 931 931 931 994.5 833.5 c 128,-1,35
 1058 736 1058 736 1058 500 c 2,36,-1
 1058 -411 l 1,37,-1
 877 -411 l 1,0,-1
EndSplineSet
EndChar

StartChar: iota
Encoding: 105 105 76
Width: 674
GlyphClass: 1
Flags: W
LayerCount: 2
Fore
SplineSet
341 285 m 2,0,1
 341 143 341 143 364.5 100.5 c 128,-1,2
 388 58 388 58 449 58 c 0,3,4
 519 58 519 58 552 114 c 128,-1,5
 585 170 585 170 585 287 c 2,6,-1
 585 304 l 1,7,-1
 624 304 l 1,8,-1
 624 276 l 2,9,10
 624 126 624 126 566.5 57.5 c 128,-1,11
 509 -11 509 -11 383 -11 c 0,12,13
 266 -11 266 -11 213.5 57.5 c 128,-1,14
 161 126 161 126 161 281 c 2,15,-1
 161 915 l 1,16,-1
 341 915 l 1,17,-1
 341 285 l 2,0,1
EndSplineSet
EndChar

StartChar: phi1
Encoding: 106 106 77
Width: 1235
GlyphClass: 1
Flags: W
LayerCount: 2
Fore
SplineSet
714 442 m 2,0,-1
 714 34 l 1,1,-1
 719 34 l 2,2,3
 892 34 892 34 1002.5 173 c 128,-1,4
 1113 312 1113 312 1113 532 c 0,5,6
 1113 684 1113 684 1054.5 776.5 c 128,-1,7
 996 869 996 869 901 869 c 0,8,9
 797 869 797 869 755.5 776 c 128,-1,10
 714 683 714 683 714 442 c 2,0,-1
568 35 m 1,11,-1
 568 156 l 2,12,13
 568 397 568 397 577.5 498.5 c 128,-1,14
 587 600 587 600 609 671 c 0,15,16
 648 797 648 797 720 864 c 128,-1,17
 792 931 792 931 891 931 c 0,18,19
 1011 931 1011 931 1093 820.5 c 128,-1,20
 1175 710 1175 710 1175 535 c 0,21,22
 1175 293 1175 293 1049.5 141.5 c 128,-1,23
 924 -10 924 -10 719 -18 c 1,24,-1
 714 -18 l 1,25,-1
 714 -412 l 1,26,-1
 568 -412 l 1,27,-1
 568 -18 l 1,28,-1
 563 -18 l 1,29,30
 326 -1 326 -1 196 131 c 128,-1,31
 66 263 66 263 66 487 c 0,32,33
 66 695 66 695 150.5 813 c 128,-1,34
 235 931 235 931 379 931 c 0,35,36
 449 931 449 931 503 896 c 128,-1,37
 557 861 557 861 597 790 c 1,38,-1
 557 765 l 1,39,40
 528 815 528 815 490.5 840 c 128,-1,41
 453 865 453 865 403 865 c 0,42,43
 315 865 315 865 278 780.5 c 128,-1,44
 241 696 241 696 241 494 c 0,45,46
 241 294 241 294 323 176.5 c 128,-1,47
 405 59 405 59 562 36 c 2,48,-1
 568 35 l 1,11,-1
EndSplineSet
EndChar

StartChar: kappa
Encoding: 107 107 78
Width: 1124
GlyphClass: 1
Flags: W
LayerCount: 2
Fore
SplineSet
19 853 m 1,0,-1
 19 883 l 1,1,2
 103 904 103 904 182 927.5 c 128,-1,3
 261 951 261 951 337 980 c 1,4,-1
 337 578 l 2,5,6
 337 559 337 559 340 554 c 0,7,8
 341 553 341 553 342.5 550.5 c 128,-1,9
 344 548 344 548 350 546 c 0,10,11
 352 546 352 546 354 546 c 0,12,13
 360 546 360 546 372 553 c 128,-1,14
 384 560 384 560 391 568 c 2,15,-1
 496 685 l 2,16,17
 663 871 663 871 746 926.5 c 128,-1,18
 829 982 829 982 907 982 c 0,19,20
 961 982 961 982 996 958.5 c 128,-1,21
 1031 935 1031 935 1031 901 c 0,22,23
 1031 876 1031 876 1010 859.5 c 128,-1,24
 989 843 989 843 956 843 c 0,25,26
 933 843 933 843 895.5 859 c 128,-1,27
 858 875 858 875 836 875 c 0,28,29
 785 875 785 875 726.5 831 c 128,-1,30
 668 787 668 787 567 671 c 2,31,-1
 502 594 l 1,32,-1
 838 165 l 2,33,34
 891 96 891 96 940 63 c 256,35,36
 989 30 989 30 1037 30 c 1,37,-1
 1037 1 l 1,38,-1
 591 1 l 1,39,-1
 591 30 l 1,40,41
 639 32 639 32 663 39.5 c 128,-1,42
 687 47 687 47 687 66 c 0,43,44
 687 81 687 81 677 100 c 128,-1,45
 667 119 667 119 645 149 c 2,46,-1
 385 474 l 2,47,48
 377 484 377 484 369 488.5 c 128,-1,49
 361 493 361 493 352 493 c 0,50,51
 344 493 344 493 340.5 485.5 c 128,-1,52
 337 478 337 478 337 465 c 2,53,-1
 337 1 l 1,54,-1
 167 1 l 1,55,-1
 167 713 l 2,56,57
 167 803 167 803 143.5 829 c 128,-1,58
 120 855 120 855 57 855 c 0,59,60
 46 855 46 855 37 854.5 c 128,-1,61
 28 854 28 854 19 853 c 1,0,-1
1037 30 m 1,62,63
 1037 30 1037 30 1038 30 c 2,64,-1
 1042 30 l 1,65,-1
 1037 35 l 1,66,-1
 1037 30 l 1,62,63
EndSplineSet
EndChar

StartChar: lambda
Encoding: 108 108 79
Width: 1124
GlyphClass: 1
Flags: W
LayerCount: 2
Fore
SplineSet
1103 274 m 1,0,1
 1107 238 1107 238 1107 219 c 0,2,3
 1107 115 1107 115 1059.5 52 c 128,-1,4
 1012 -11 1012 -11 938 -11 c 0,5,6
 873 -11 873 -11 835 26 c 0,7,8
 798 62 798 62 765 158 c 2,9,-1
 570 729 l 1,10,-1
 247 1 l 1,11,-1
 43 1 l 1,12,-1
 480 997 l 1,13,-1
 437 1122 l 2,14,15
 405 1211 405 1211 366.5 1245 c 128,-1,16
 328 1279 328 1279 262 1279 c 128,-1,17
 196 1279 196 1279 161 1252 c 128,-1,18
 126 1225 126 1225 119 1172 c 1,19,-1
 89 1172 l 1,20,21
 89 1178 89 1178 88 1186.5 c 128,-1,22
 87 1195 87 1195 87 1200 c 0,23,24
 87 1304 87 1304 135.5 1366.5 c 128,-1,25
 184 1429 184 1429 264 1429 c 0,26,27
 341 1429 341 1429 386 1379.5 c 128,-1,28
 431 1330 431 1330 489 1159 c 2,29,-1
 761 361 l 2,30,31
 805 234 805 234 841 196 c 0,32,33
 879 157 879 157 942 157 c 0,34,35
 995 157 995 157 1026.5 188 c 128,-1,36
 1058 219 1058 219 1064 274 c 1,37,-1
 1103 274 l 1,0,1
1103 274 m 1,38,-1
 1108 274 l 1,39,-1
 1103 279 l 1,40,-1
 1103 275 l 1,41,-1
 1103 274 l 1,38,-1
EndSplineSet
EndChar

StartChar: mu
Encoding: 109 109 80
Width: 1180
GlyphClass: 1
Flags: W
LayerCount: 2
Fore
SplineSet
335 310 m 2,0,1
 335 165 335 165 364.5 113.5 c 128,-1,2
 394 62 394 62 471 62 c 0,3,4
 592 62 592 62 670 228.5 c 128,-1,5
 748 395 748 395 748 650 c 2,6,-1
 748 912 l 1,7,-1
 927 912 l 1,8,-1
 927 245 l 2,9,10
 927 152 927 152 947 107 c 128,-1,11
 967 62 967 62 1010 62 c 0,12,13
 1056 62 1056 62 1079.5 106.5 c 128,-1,14
 1103 151 1103 151 1103 235 c 2,15,-1
 1103 258 l 1,16,-1
 1137 258 l 1,17,18
 1137 252 1137 252 1137.5 244 c 128,-1,19
 1138 236 1138 236 1138 218 c 0,20,21
 1138 106 1138 106 1091 45 c 128,-1,22
 1044 -16 1044 -16 958 -16 c 0,23,24
 858 -16 858 -16 807 69.5 c 128,-1,25
 756 155 756 155 755 331 c 0,26,27
 755 335 755 335 750.5 336 c 128,-1,28
 746 337 746 337 745 332 c 0,29,30
 698 151 698 151 621 67.5 c 128,-1,31
 544 -16 544 -16 426 -16 c 0,32,33
 338 -16 338 -16 280.5 36.5 c 128,-1,34
 223 89 223 89 200 191 c 0,35,36
 199 195 199 195 194.5 195 c 128,-1,37
 190 195 190 195 190 191 c 0,38,39
 188 171 188 171 188 132 c 0,40,41
 188 2 188 2 253.5 -150 c 128,-1,42
 319 -302 319 -302 319 -330 c 0,43,44
 319 -368 319 -368 297.5 -389.5 c 128,-1,45
 276 -411 276 -411 238 -411 c 0,46,47
 194 -411 194 -411 174.5 -379.5 c 128,-1,48
 155 -348 155 -348 155 -273 c 0,49,50
 155 -255 155 -255 159 -162 c 128,-1,51
 163 -69 163 -69 163 13 c 0,52,53
 163 87 163 87 160 221 c 128,-1,54
 157 355 157 355 157 415 c 2,55,-1
 157 912 l 1,56,-1
 335 912 l 1,57,-1
 335 310 l 2,0,1
EndSplineSet
EndChar

StartChar: nu
Encoding: 110 110 81
Width: 1067
GlyphClass: 1
Flags: W
LayerCount: 2
Fore
SplineSet
191 777 m 2,0,1
 176 816 176 816 159 833 c 128,-1,2
 142 850 142 850 119 850 c 0,3,4
 77 850 77 850 59.5 814 c 128,-1,5
 42 778 42 778 42 697 c 2,6,-1
 42 684 l 1,7,-1
 7 684 l 1,8,9
 7 689 7 689 6 699 c 128,-1,10
 5 709 5 709 5 716 c 0,11,12
 5 831 5 831 50 892.5 c 128,-1,13
 95 954 95 954 178 954 c 0,14,15
 253 954 253 954 300 910.5 c 128,-1,16
 347 867 347 867 398 734 c 2,17,-1
 601 217 l 1,18,-1
 606 225 l 2,19,20
 699 368 699 368 741 489 c 128,-1,21
 783 610 783 610 783 730 c 2,22,-1
 783 779 l 2,23,24
 783 876 783 876 811 915 c 128,-1,25
 839 954 839 954 905 954 c 0,26,27
 946 954 946 954 970 933 c 128,-1,28
 994 912 994 912 994 875 c 0,29,30
 994 807 994 807 827.5 511 c 128,-1,31
 661 215 661 215 556 -11 c 1,32,-1
 509 -11 l 1,33,-1
 191 777 l 2,0,1
EndSplineSet
EndChar

StartChar: omicron
Encoding: 111 111 82
Width: 1124
GlyphClass: 1
Flags: W
LayerCount: 2
Fore
SplineSet
785 121 m 128,-1,1
 853 210 853 210 853 391 c 0,2,3
 853 620 853 620 763.5 760 c 128,-1,4
 674 900 674 900 528 900 c 0,5,6
 400 900 400 900 329.5 801 c 128,-1,7
 259 702 259 702 259 524 c 0,8,9
 259 308 259 308 348.5 170 c 128,-1,10
 438 32 438 32 580 32 c 0,11,0
 717 32 717 32 785 121 c 128,-1,1
567 945 m 0,12,13
 783 945 783 945 910 817.5 c 128,-1,14
 1037 690 1037 690 1037 471 c 0,15,16
 1037 248 1037 248 904 115 c 128,-1,17
 771 -18 771 -18 545 -18 c 0,18,19
 336 -18 336 -18 203.5 114.5 c 128,-1,20
 71 247 71 247 71 457 c 0,21,22
 71 673 71 673 209 809 c 128,-1,23
 347 945 347 945 567 945 c 0,12,13
EndSplineSet
EndChar

StartChar: pi
Encoding: 112 112 83
Width: 1124
GlyphClass: 1
Flags: W
LayerCount: 2
Fore
SplineSet
822 764 m 2,0,1
 822 758 822 758 821 741.5 c 128,-1,2
 820 725 820 725 820 715 c 0,3,4
 814 527 814 527 814 408 c 2,5,-1
 814 326 l 2,6,7
 814 156 814 156 832 109.5 c 128,-1,8
 850 63 850 63 899 63 c 0,9,10
 959 63 959 63 988 122.5 c 128,-1,11
 1017 182 1017 182 1023 304 c 1,12,-1
 1064 304 l 1,13,-1
 1064 299 l 2,14,15
 1064 137 1064 137 1012.5 61 c 128,-1,16
 961 -15 961 -15 852 -15 c 0,17,18
 738 -15 738 -15 692 63.5 c 128,-1,19
 646 142 646 142 646 397 c 0,20,21
 646 428 646 428 648 493 c 2,22,-1
 654 775 l 1,23,-1
 649 775 l 2,24,25
 612 777 612 777 547 778.5 c 128,-1,26
 482 780 482 780 389 781 c 2,27,-1
 384 781 l 1,28,-1
 384 776 l 2,29,30
 384 303 384 303 338 144 c 128,-1,31
 292 -15 292 -15 178 -15 c 0,32,33
 109 -15 109 -15 74.5 41.5 c 128,-1,34
 40 98 40 98 40 215 c 2,35,-1
 40 249 l 1,36,-1
 79 249 l 1,37,38
 82 195 82 195 100.5 168.5 c 128,-1,39
 119 142 119 142 160 142 c 0,40,41
 248 142 248 142 283.5 271.5 c 128,-1,42
 319 401 319 401 324 776 c 1,43,-1
 324 781 l 1,44,-1
 274 781 l 2,45,46
 196 781 196 781 150 753.5 c 128,-1,47
 104 726 104 726 92 673 c 1,48,-1
 54 673 l 1,49,50
 62 807 62 807 131 861 c 128,-1,51
 200 915 200 915 375 915 c 0,52,53
 410 915 410 915 583.5 908.5 c 128,-1,54
 757 902 757 902 895 902 c 0,55,56
 964 902 964 902 1000 917 c 0,57,58
 1033 932 1033 932 1035 962 c 1,59,-1
 1072 962 l 1,60,-1
 1072 961 l 2,61,62
 1072 858 1072 858 1026 812.5 c 128,-1,63
 980 767 980 767 877 767 c 0,64,65
 858 767 858 767 847.5 767.5 c 128,-1,66
 837 768 837 768 827 769 c 2,67,-1
 822 770 l 1,68,-1
 822 764 l 2,0,1
1035 962 m 1,69,70
 1035 963 1035 963 1035 965 c 2,71,-1
 1035 967 l 1,72,-1
 1030 962 l 1,73,-1
 1035 962 l 1,69,70
EndSplineSet
EndChar

StartChar: theta
Encoding: 113 113 84
Width: 1067
GlyphClass: 1
Flags: W
LayerCount: 2
Fore
SplineSet
777 693 m 1,0,-1
 284 693 l 1,1,-1
 284 641 l 2,2,3
 284 299 284 299 340.5 160.5 c 128,-1,4
 397 22 397 22 532 22 c 0,5,6
 670 22 670 22 723.5 157.5 c 128,-1,7
 777 293 777 293 777 688 c 2,8,-1
 777 693 l 1,0,-1
284 755 m 1,9,-1
 777 755 l 1,10,-1
 777 760 l 2,11,12
 777 774 777 774 778 798.5 c 128,-1,13
 779 823 779 823 779 834 c 0,14,15
 779 1092 779 1092 721 1213 c 128,-1,16
 663 1334 663 1334 537 1334 c 0,17,18
 406 1334 406 1334 346.5 1198 c 128,-1,19
 287 1062 287 1062 284 760 c 2,20,-1
 284 755 l 1,9,-1
537 1373 m 0,21,22
 744 1373 744 1373 856 1200.5 c 128,-1,23
 968 1028 968 1028 968 702 c 0,24,25
 968 351 968 351 857 165.5 c 128,-1,26
 746 -20 746 -20 539 -20 c 0,27,28
 320 -20 320 -20 248 95 c 128,-1,29
 176 210 176 210 152.5 281.5 c 128,-1,30
 129 353 129 353 118.5 421.5 c 128,-1,31
 108 490 108 490 104 538.5 c 128,-1,32
 100 587 100 587 100 624 c 0,33,34
 100 626 100 626 99.5 634 c 128,-1,35
 99 642 99 642 99 656 c 128,-1,36
 99 670 99 670 99 686 c 0,37,38
 99 1012 99 1012 215 1192.5 c 128,-1,39
 331 1373 331 1373 537 1373 c 0,21,22
EndSplineSet
EndChar

StartChar: rho
Encoding: 114 114 85
Width: 1124
GlyphClass: 1
Flags: W
LayerCount: 2
Fore
SplineSet
130 481 m 2,0,1
 130 718 130 718 252 853 c 128,-1,2
 374 988 374 988 586 988 c 0,3,4
 781 988 781 988 899 854 c 128,-1,5
 1017 720 1017 720 1017 496 c 0,6,7
 1017 269 1017 269 896 124.5 c 128,-1,8
 775 -20 775 -20 592 -20 c 0,9,10
 510 -20 510 -20 433 15.5 c 128,-1,11
 356 51 356 51 303 114 c 2,12,-1
 294 125 l 1,13,-1
 294 -412 l 1,14,-1
 130 -412 l 1,15,-1
 130 481 l 2,0,1
762 795 m 128,-1,17
 681 941 681 941 549 941 c 0,18,19
 431 941 431 941 366.5 838.5 c 128,-1,20
 302 736 302 736 302 551 c 0,21,22
 302 322 302 322 383.5 177 c 128,-1,23
 465 32 465 32 594 32 c 0,24,25
 720 32 720 32 781.5 126.5 c 128,-1,26
 843 221 843 221 843 410 c 0,27,16
 843 649 843 649 762 795 c 128,-1,17
EndSplineSet
EndChar

StartChar: sigma
Encoding: 115 115 86
Width: 1235
GlyphClass: 1
Flags: W
LayerCount: 2
Fore
SplineSet
850 121 m 128,-1,1
 925 210 925 210 925 389 c 0,2,3
 925 622 925 622 828.5 761 c 128,-1,4
 732 900 732 900 571 900 c 0,5,6
 431 900 431 900 352.5 801.5 c 128,-1,7
 274 703 274 703 274 524 c 0,8,9
 274 306 274 306 371 169 c 128,-1,10
 468 32 468 32 625 32 c 0,11,0
 775 32 775 32 850 121 c 128,-1,1
895 823 m 0,12,13
 1007 765 1007 765 1063 674 c 128,-1,14
 1119 583 1119 583 1119 457 c 0,15,16
 1119 247 1119 247 972.5 114.5 c 128,-1,17
 826 -18 826 -18 588 -18 c 0,18,19
 364 -18 364 -18 220.5 114.5 c 128,-1,20
 77 247 77 247 77 451 c 0,21,22
 77 674 77 674 225.5 809.5 c 128,-1,23
 374 945 374 945 621 945 c 0,24,25
 671 945 671 945 806.5 938 c 128,-1,26
 942 931 942 931 1026 931 c 0,27,28
 1109 931 1109 931 1149.5 944 c 128,-1,29
 1190 957 1190 957 1196 984 c 1,30,-1
 1232 984 l 1,31,32
 1228 890 1228 890 1193 854 c 128,-1,33
 1158 818 1158 818 1063 818 c 0,34,35
 1043 818 1043 818 1011.5 820.5 c 128,-1,36
 980 823 980 823 898 832 c 0,37,38
 893 832 893 832 892 828 c 128,-1,39
 891 824 891 824 895 823 c 0,12,13
EndSplineSet
EndChar

StartChar: tau
Encoding: 116 116 87
Width: 899
GlyphClass: 1
Flags: W
LayerCount: 2
Fore
SplineSet
507 764 m 2,0,1
 507 758 507 758 506 742.5 c 128,-1,2
 505 727 505 727 505 717 c 0,3,4
 499 529 499 529 499 401 c 2,5,-1
 499 334 l 2,6,7
 499 157 499 157 521 109 c 128,-1,8
 543 61 543 61 602 61 c 0,9,10
 676 61 676 61 711.5 120 c 128,-1,11
 747 179 747 179 753 304 c 1,12,-1
 792 304 l 1,13,-1
 792 301 l 2,14,15
 792 140 792 140 732.5 64.5 c 128,-1,16
 673 -11 673 -11 547 -11 c 0,17,18
 417 -11 417 -11 365.5 63.5 c 128,-1,19
 314 138 314 138 314 406 c 0,20,21
 314 446 314 446 315 496 c 2,22,-1
 322 773 l 1,23,-1
 317 773 l 2,24,25
 313 773 313 773 304 775 c 2,26,-1
 303 775 l 1,27,28
 228 781 228 781 199 781 c 0,29,30
 111 781 111 781 57.5 752.5 c 128,-1,31
 4 724 4 724 -10 673 c 1,32,-1
 -44 673 l 1,33,34
 -36 804 -36 804 42 859.5 c 128,-1,35
 120 915 120 915 313 915 c 0,36,37
 363 915 363 915 471.5 908.5 c 128,-1,38
 580 902 580 902 639 902 c 0,39,40
 735 902 735 902 783 917 c 0,41,42
 830 932 830 932 832 962 c 1,43,-1
 863 962 l 1,44,45
 862 854 862 854 807 809.5 c 128,-1,46
 752 765 752 765 610 765 c 0,47,48
 581 765 581 765 518 769 c 1,49,-1
 507 769 l 1,50,-1
 507 764 l 2,0,1
832 962 m 1,51,52
 832 963 832 963 832 965 c 2,53,-1
 832 967 l 1,54,-1
 827 962 l 1,55,-1
 832 962 l 1,51,52
EndSplineSet
EndChar

StartChar: upsilon
Encoding: 117 117 88
Width: 1180
GlyphClass: 1
Flags: W
LayerCount: 2
Fore
SplineSet
34 660 m 1,0,-1
 -2 660 l 1,1,2
 -2 666 -2 666 -2.5 673.5 c 128,-1,3
 -3 681 -3 681 -3 698 c 0,4,5
 -3 817 -3 817 52.5 878 c 128,-1,6
 108 939 108 939 217 939 c 0,7,8
 324 939 324 939 377.5 877 c 128,-1,9
 431 815 431 815 431 692 c 0,10,11
 431 652 431 652 420 523.5 c 128,-1,12
 409 395 409 395 409 307 c 0,13,14
 409 176 409 176 463.5 113 c 128,-1,15
 518 50 518 50 631 50 c 0,16,17
 767 50 767 50 854 146 c 128,-1,18
 941 242 941 242 941 395 c 0,19,20
 941 506 941 506 873.5 652.5 c 128,-1,21
 806 799 806 799 806 846 c 128,-1,22
 806 893 806 893 830.5 916 c 128,-1,23
 855 939 855 939 905 939 c 0,24,25
 976 939 976 939 1010 865 c 128,-1,26
 1044 791 1044 791 1044 629 c 0,27,28
 1044 325 1044 325 919 156 c 128,-1,29
 794 -13 794 -13 571 -13 c 0,30,31
 408 -13 408 -13 317 83.5 c 128,-1,32
 226 180 226 180 226 354 c 0,33,34
 226 428 226 428 239.5 560 c 128,-1,35
 253 692 253 692 253 748 c 0,36,37
 253 806 253 806 228.5 836.5 c 128,-1,38
 204 867 204 867 158 867 c 0,39,40
 95 867 95 867 63.5 822.5 c 128,-1,41
 32 778 32 778 32 690 c 0,42,43
 32 684 32 684 33 674.5 c 128,-1,44
 34 665 34 665 34 660 c 1,0,-1
EndSplineSet
EndChar

StartChar: omega1
Encoding: 118 118 89
Width: 1460
GlyphClass: 1
Flags: W
LayerCount: 2
Fore
SplineSet
1126.5 630.5 m 128,-1,1
 1115 712 1115 712 1092 778 c 2,2,-1
 1091 781 l 1,3,-1
 393 781 l 1,4,-1
 392 778 l 2,5,6
 369 711 369 711 357 631.5 c 128,-1,7
 345 552 345 552 345 459 c 0,8,9
 345 260 345 260 393 149 c 128,-1,10
 441 38 441 38 528 38 c 0,11,12
 596 38 596 38 643.5 111.5 c 128,-1,13
 691 185 691 185 691 287 c 0,14,15
 691 317 691 317 679 398.5 c 128,-1,16
 667 480 667 480 667 530 c 0,17,18
 667 579 667 579 685.5 603.5 c 128,-1,19
 704 628 704 628 741 628 c 0,20,21
 780 628 780 628 799 602.5 c 128,-1,22
 818 577 818 577 818 524 c 0,23,24
 818 481 818 481 806 401 c 128,-1,25
 794 321 794 321 794 287 c 0,26,27
 794 185 794 185 845 111.5 c 128,-1,28
 896 38 896 38 963 38 c 0,29,30
 1043 38 1043 38 1090.5 150 c 128,-1,31
 1138 262 1138 262 1138 449 c 0,32,0
 1138 549 1138 549 1126.5 630.5 c 128,-1,1
314 781 m 1,33,-1
 195 781 l 2,34,35
 116 781 116 781 83.5 757.5 c 128,-1,36
 51 734 51 734 31 673 c 1,37,-1
 -5 673 l 1,38,39
 2 798 2 798 60.5 856.5 c 128,-1,40
 119 915 119 915 242 915 c 2,41,-1
 1427 915 l 1,42,-1
 1427 781 l 1,43,-1
 1181 781 l 1,44,-1
 1191 772 l 2,45,46
 1257 714 1257 714 1288.5 635 c 128,-1,47
 1320 556 1320 556 1320 449 c 0,48,49
 1320 241 1320 241 1221 113 c 128,-1,50
 1122 -15 1122 -15 971 -15 c 0,51,52
 887 -15 887 -15 832 42 c 128,-1,53
 777 99 777 99 746 216 c 2,54,-1
 741 235 l 1,55,-1
 736 216 l 2,56,57
 707 100 707 100 651.5 42.5 c 128,-1,58
 596 -15 596 -15 512 -15 c 0,59,60
 363 -15 363 -15 262 116 c 128,-1,61
 161 247 161 247 161 446 c 0,62,63
 161 554 161 554 197 637 c 128,-1,64
 233 720 233 720 302 772 c 2,65,-1
 314 781 l 1,33,-1
EndSplineSet
EndChar

StartChar: omega
Encoding: 119 119 90
Width: 1405
GlyphClass: 1
Flags: W
LayerCount: 2
Fore
SplineSet
920 898 m 1,0,-1
 920 943 l 1,1,2
 1117 926 1117 926 1223.5 801.5 c 128,-1,3
 1330 677 1330 677 1330 457 c 0,4,5
 1330 247 1330 247 1227 116 c 128,-1,6
 1124 -15 1124 -15 963 -15 c 0,7,8
 868 -15 868 -15 805 46.5 c 128,-1,9
 742 108 742 108 707 237 c 2,10,11
 707 237 707 237 702 255 c 1,12,-1
 697 237 l 2,13,14
 664 109 664 109 601 47 c 128,-1,15
 538 -15 538 -15 442 -15 c 0,16,17
 280 -15 280 -15 177.5 115 c 128,-1,18
 75 245 75 245 75 457 c 0,19,20
 75 677 75 677 182 801.5 c 128,-1,21
 289 926 289 926 487 943 c 1,22,-1
 487 898 l 1,23,24
 364 889 364 889 311.5 800 c 128,-1,25
 259 711 259 711 259 500 c 0,26,27
 259 250 259 250 306 144 c 128,-1,28
 353 38 353 38 461 38 c 0,29,30
 551 38 551 38 601.5 118 c 128,-1,31
 652 198 652 198 652 338 c 0,32,33
 652 409 652 409 631.5 524.5 c 128,-1,34
 611 640 611 640 611 682 c 0,35,36
 611 729 611 729 634.5 754 c 128,-1,37
 658 779 658 779 702 779 c 0,38,39
 747 779 747 779 770.5 754 c 128,-1,40
 794 729 794 729 794 682 c 0,41,42
 794 637 794 637 774.5 521.5 c 128,-1,43
 755 406 755 406 755 336 c 0,44,45
 755 198 755 198 806 118 c 128,-1,46
 857 38 857 38 946 38 c 0,47,48
 1052 38 1052 38 1099 142.5 c 128,-1,49
 1146 247 1146 247 1146 481 c 0,50,51
 1146 709 1146 709 1094.5 799 c 128,-1,52
 1043 889 1043 889 920 898 c 1,0,-1
EndSplineSet
EndChar

StartChar: xi
Encoding: 120 120 91
Width: 1010
GlyphClass: 1
Flags: W
LayerCount: 2
Fore
SplineSet
354 1140 m 1,0,1
 477 1199 477 1199 555 1221.5 c 128,-1,2
 633 1244 633 1244 705 1244 c 0,3,4
 780 1244 780 1244 818.5 1224 c 128,-1,5
 857 1204 857 1204 857 1167 c 0,6,7
 857 1122 857 1122 795.5 1098 c 128,-1,8
 734 1074 734 1074 612 1074 c 0,9,10
 529 1074 529 1074 378 1103 c 0,11,12
 374 1104 374 1104 369 1104.5 c 128,-1,13
 364 1105 364 1105 363 1105 c 2,14,-1
 361 1105 l 1,15,-1
 359 1104 l 1,16,17
 297 1048 297 1048 268 996.5 c 128,-1,18
 239 945 239 945 239 893 c 0,19,20
 239 831 239 831 267.5 789.5 c 128,-1,21
 296 748 296 748 363 713 c 1,22,-1
 364 712 l 1,23,-1
 366 712 l 1,24,25
 464 730 464 730 542 739 c 0,26,27
 620 747 620 747 684 747 c 0,28,29
 791 747 791 747 840.5 726.5 c 128,-1,30
 890 706 890 706 890 664 c 0,31,32
 890 619 890 619 832.5 595.5 c 128,-1,33
 775 572 775 572 657 572 c 0,34,35
 571 572 571 572 490.5 587 c 128,-1,36
 410 602 410 602 328 634 c 1,37,-1
 326 634 l 1,38,-1
 324 634 l 1,39,40
 245 598 245 598 198 531.5 c 128,-1,41
 151 465 151 465 151 387 c 0,42,43
 151 282 151 282 224.5 231.5 c 128,-1,44
 298 181 298 181 449 181 c 0,45,46
 469 181 469 181 515.5 182 c 128,-1,47
 562 183 562 183 588 183 c 0,48,49
 774 183 774 183 856.5 127 c 128,-1,50
 939 71 939 71 939 -51 c 0,51,52
 939 -191 939 -191 824.5 -279.5 c 128,-1,53
 710 -368 710 -368 522 -368 c 0,54,55
 430 -368 430 -368 388.5 -347 c 128,-1,56
 347 -326 347 -326 347 -283 c 0,57,58
 347 -264 347 -264 363 -251 c 128,-1,59
 379 -238 379 -238 403 -238 c 0,60,61
 429 -238 429 -238 509.5 -262 c 128,-1,62
 590 -286 590 -286 651 -286 c 0,63,64
 752 -286 752 -286 808.5 -240 c 128,-1,65
 865 -194 865 -194 865 -115 c 0,66,67
 865 -42 865 -42 815.5 -13.5 c 128,-1,68
 766 15 766 15 635 15 c 0,69,70
 584 15 584 15 523 13 c 128,-1,71
 462 11 462 11 453 11 c 0,72,73
 279 11 279 11 180 96.5 c 128,-1,74
 81 182 81 182 81 332 c 0,75,76
 81 433 81 433 130.5 514 c 128,-1,77
 180 595 180 595 277 655 c 1,78,-1
 283 658 l 1,79,-1
 277 663 l 2,80,81
 226 703 226 703 200.5 753 c 128,-1,82
 175 803 175 803 175 864 c 0,83,84
 175 935 175 935 206 992.5 c 128,-1,85
 237 1050 237 1050 306 1106 c 2,86,-1
 314 1113 l 1,87,-1
 304 1115 l 2,88,89
 170 1144 170 1144 104 1192.5 c 128,-1,90
 38 1241 38 1241 38 1307 c 0,91,92
 38 1374 38 1374 101.5 1411.5 c 128,-1,93
 165 1449 165 1449 283 1449 c 0,94,95
 322 1449 322 1449 351.5 1444.5 c 128,-1,96
 381 1440 381 1440 406 1433 c 1,97,-1
 399 1400 l 1,98,-1
 364 1404 l 2,99,100
 328 1408 328 1408 319 1408 c 0,101,102
 240 1408 240 1408 199.5 1380.5 c 128,-1,103
 159 1353 159 1353 159 1298 c 0,104,105
 159 1242 159 1242 207 1202.5 c 128,-1,106
 255 1163 255 1163 351 1140 c 1,107,-1
 353 1140 l 1,108,-1
 354 1140 l 1,0,1
EndSplineSet
EndChar

StartChar: psi
Encoding: 121 121 92
Width: 1405
GlyphClass: 1
Flags: W
LayerCount: 2
Fore
SplineSet
841 34 m 2,0,1
 997 62 997 62 1080.5 164 c 128,-1,2
 1164 266 1164 266 1164 428 c 0,3,4
 1164 552 1164 552 1115 683 c 128,-1,5
 1066 814 1066 814 1066 844 c 0,6,7
 1066 891 1066 891 1089 915 c 128,-1,8
 1112 939 1112 939 1159 939 c 0,9,10
 1226 939 1226 939 1256.5 867 c 128,-1,11
 1287 795 1287 795 1287 631 c 0,12,13
 1287 357 1287 357 1168.5 187.5 c 128,-1,14
 1050 18 1050 18 839 -13 c 1,15,-1
 835 -14 l 1,16,-1
 859 -412 l 1,17,-1
 658 -412 l 1,18,-1
 677 -13 l 1,19,-1
 672 -13 l 1,20,21
 430 2 430 2 319 99 c 128,-1,22
 208 196 208 196 208 391 c 0,23,24
 208 465 208 465 219 584 c 128,-1,25
 230 703 230 703 230 748 c 0,26,27
 230 806 230 806 209.5 836.5 c 128,-1,28
 189 867 189 867 147 867 c 0,29,30
 92 867 92 867 65 821 c 128,-1,31
 38 775 38 775 38 686 c 2,32,-1
 38 660 l 1,33,-1
 -2 660 l 1,34,35
 -2 666 -2 666 -2.5 674 c 128,-1,36
 -3 682 -3 682 -3 700 c 0,37,38
 -3 817 -3 817 49.5 878 c 128,-1,39
 102 939 102 939 203 939 c 0,40,41
 300 939 300 939 350.5 877.5 c 128,-1,42
 401 816 401 816 401 696 c 0,43,44
 401 663 401 663 392.5 562 c 128,-1,45
 384 461 384 461 384 395 c 0,46,47
 384 194 384 194 447 122.5 c 128,-1,48
 510 51 510 51 676 36 c 1,49,-1
 681 36 l 1,50,-1
 734 1173 l 1,51,-1
 777 1173 l 1,52,-1
 835 33 l 1,53,-1
 841 34 l 2,0,1
EndSplineSet
EndChar

StartChar: zeta
Encoding: 122 122 93
Width: 1012
GlyphClass: 1
Flags: W
LayerCount: 2
Fore
SplineSet
413 1104 m 1,0,1
 508 1174 508 1174 591 1206 c 128,-1,2
 674 1238 674 1238 756 1238 c 0,3,4
 824 1238 824 1238 857 1219.5 c 128,-1,5
 890 1201 890 1201 890 1165 c 0,6,7
 890 1111 890 1111 810.5 1078 c 128,-1,8
 731 1045 731 1045 592 1045 c 0,9,10
 546 1045 546 1045 506.5 1047.5 c 128,-1,11
 467 1050 467 1050 429 1056 c 1,12,13
 429 1056 429 1056 426 1056 c 2,14,-1
 425 1055 l 1,15,16
 319 961 319 961 257.5 810.5 c 128,-1,17
 196 660 196 660 196 494 c 0,18,19
 196 323 196 323 274.5 247 c 128,-1,20
 353 171 353 171 530 171 c 0,21,22
 559 171 559 171 618 175 c 128,-1,23
 677 179 677 179 707 179 c 0,24,25
 857 179 857 179 926.5 127.5 c 128,-1,26
 996 76 996 76 996 -33 c 0,27,28
 996 -183 996 -183 875 -266 c 128,-1,29
 754 -349 754 -349 532 -349 c 0,30,31
 466 -349 466 -349 432 -331 c 128,-1,32
 398 -313 398 -313 398 -281 c 0,33,34
 398 -252 398 -252 420 -236 c 128,-1,35
 442 -220 442 -220 485 -220 c 0,36,37
 514 -220 514 -220 589 -240.5 c 128,-1,38
 664 -261 664 -261 719 -261 c 0,39,40
 812 -261 812 -261 875.5 -215.5 c 128,-1,41
 939 -170 939 -170 939 -102 c 0,42,43
 939 -42 939 -42 888 -15.5 c 128,-1,44
 837 11 837 11 723 11 c 0,45,46
 683 11 683 11 609.5 8 c 128,-1,47
 536 5 536 5 504 5 c 0,48,49
 299 5 299 5 203 108.5 c 128,-1,50
 107 212 107 212 107 432 c 0,51,52
 107 614 107 614 172 769 c 128,-1,53
 237 924 237 924 369 1057 c 1,54,-1
 375 1064 l 1,55,-1
 366 1066 l 2,56,57
 207 1100 207 1100 125.5 1157 c 128,-1,58
 44 1214 44 1214 44 1286 c 0,59,60
 44 1363 44 1363 121 1406 c 128,-1,61
 198 1449 198 1449 340 1449 c 0,62,63
 370 1449 370 1449 385.5 1447 c 128,-1,64
 401 1445 401 1445 415 1442 c 1,65,-1
 415 1400 l 1,66,-1
 367 1400 l 2,67,68
 276 1400 276 1400 230.5 1369 c 128,-1,69
 185 1338 185 1338 185 1276 c 0,70,71
 185 1213 185 1213 242.5 1168.5 c 128,-1,72
 300 1124 300 1124 409 1103 c 1,73,-1
 411 1103 l 1,74,-1
 413 1104 l 1,0,1
EndSplineSet
EndChar

StartChar: braceleft
Encoding: 123 123 94
Width: 782
GlyphClass: 1
Flags: W
LayerCount: 2
Fore
SplineSet
496 -453 m 1,0,-1
 485 -453 l 2,1,2
 351 -453 351 -453 281 -362 c 0,3,4
 215 -281 215 -281 215 -145 c 2,5,-1
 217 459 l 2,6,7
 217 587 217 587 92 588 c 1,8,-1
 92 621 l 1,9,-1
 129 623 l 1,10,11
 217 638 217 638 217 752 c 2,12,-1
 215 1356 l 2,13,14
 215 1494 215 1494 288 1576 c 0,15,16
 360 1659 360 1659 496 1659 c 1,17,-1
 496 1626 l 1,18,-1
 450 1623 l 1,19,-1
 413 1613 l 1,20,21
 298 1569 298 1569 295 1384 c 2,22,-1
 287 809 l 2,23,24
 284 667 284 667 156 604 c 1,25,26
 284 543 284 543 287 397 c 2,27,-1
 295 -176 l 2,28,29
 299 -418 299 -418 491 -420 c 0,30,31
 494 -420 494 -420 496 -420 c 1,32,-1
 496 -453 l 1,0,-1
EndSplineSet
EndChar

StartChar: bar
Encoding: 124 124 95
Width: 813
GlyphClass: 1
Flags: W
LayerCount: 2
Fore
SplineSet
358 -440 m 1,0,-1
 358 1620 l 1,1,-1
 457 1620 l 1,2,-1
 457 -440 l 1,3,-1
 358 -440 l 1,0,-1
EndSplineSet
EndChar

StartChar: braceright
Encoding: 125 125 96
Width: 782
GlyphClass: 1
Flags: W
LayerCount: 2
Fore
SplineSet
92 -453 m 1,0,-1
 92 -420 l 1,1,-1
 138 -417 l 1,2,3
 293 -391 293 -391 293 -176 c 0,4,5
 293 -80 293 -80 287 112 c 0,6,7
 281 302 281 302 281 399 c 0,8,9
 281 535 281 535 414 604 c 1,10,11
 281 667 281 667 281 809 c 0,12,13
 281 904 281 904 287 1098 c 0,14,15
 293 1290 293 1290 293 1386 c 0,16,17
 293 1626 293 1626 92 1626 c 1,18,-1
 92 1659 l 1,19,-1
 102 1659 l 2,20,21
 234 1659 234 1659 303 1574 c 0,22,23
 373 1489 373 1489 373 1354 c 0,24,25
 373 1245 373 1245 360 1053 c 0,26,27
 348 852 348 852 348 752 c 0,28,29
 348 621 348 621 480 621 c 2,30,-1
 496 621 l 1,31,-1
 496 588 l 1,32,-1
 452 586 l 1,33,34
 348 572 348 572 348 457 c 0,35,36
 348 356 348 356 360 156 c 0,37,38
 373 -38 373 -38 373 -145 c 0,39,40
 373 -453 373 -453 92 -453 c 1,0,-1
EndSplineSet
EndChar

StartChar: similar
Encoding: 126 126 97
Width: 1628
GlyphClass: 1
Flags: W
LayerCount: 2
Fore
SplineSet
283 526 m 1,0,-1
 221 526 l 1,1,2
 236 846 236 846 485 846 c 0,3,4
 600 846 600 846 843 726 c 128,-1,5
 1086 606 1086 606 1176 606 c 0,6,7
 1320 606 1320 606 1343 823 c 1,8,-1
 1405 823 l 1,9,10
 1387 504 1387 504 1141 504 c 0,11,12
 1014 504 1014 504 795 624 c 0,13,14
 575 743 575 743 449 743 c 0,15,16
 370 743 370 743 324 672 c 0,17,18
 283 609 283 609 283 526 c 1,0,-1
EndSplineSet
EndChar

StartChar: Upsilon1
Encoding: 161 176 98
Width: 1270
GlyphClass: 1
Flags: W
LayerCount: 2
Fore
SplineSet
525 195 m 2,0,-1
 525 650 l 1,1,2
 466 884 466 884 390.5 1037 c 128,-1,3
 315 1190 315 1190 220 1270 c 0,4,5
 156 1324 156 1324 70.5 1349 c 128,-1,6
 -15 1374 -15 1374 -15 1401 c 0,7,8
 -15 1437 -15 1437 7.5 1454.5 c 128,-1,9
 30 1472 30 1472 76 1472 c 0,10,11
 252 1472 252 1472 399.5 1267.5 c 128,-1,12
 547 1063 547 1063 640 685 c 2,13,14
 640 685 640 685 644 668 c 1,15,-1
 650 684 l 1,16,17
 828 1198 828 1198 920.5 1332 c 128,-1,18
 1013 1466 1013 1466 1137 1466 c 0,19,20
 1212 1466 1212 1466 1260 1422 c 128,-1,21
 1308 1378 1308 1378 1308 1309 c 0,22,23
 1308 1264 1308 1264 1285 1235.5 c 128,-1,24
 1262 1207 1262 1207 1227 1207 c 0,25,26
 1194 1207 1194 1207 1174 1229 c 128,-1,27
 1154 1251 1154 1251 1154 1286 c 0,28,29
 1154 1292 1154 1292 1155 1298.5 c 128,-1,30
 1156 1305 1156 1305 1156 1307 c 0,31,32
 1156 1342 1156 1342 1138.5 1361.5 c 128,-1,33
 1121 1381 1121 1381 1090 1381 c 0,34,35
 1021 1381 1021 1381 923 1196 c 128,-1,36
 825 1011 825 1011 695 641 c 1,37,-1
 695 640 l 1,38,-1
 695 186 l 2,39,40
 695 94 695 94 725 63 c 128,-1,41
 755 32 755 32 837 30 c 1,42,-1
 837 1 l 1,43,-1
 378 1 l 1,44,-1
 378 30 l 1,45,46
 465 35 465 35 495 64 c 128,-1,47
 525 93 525 93 525 195 c 2,0,-1
EndSplineSet
EndChar

StartChar: minute
Encoding: 162 162 99
Width: 681
GlyphClass: 1
Flags: W
LayerCount: 2
Fore
SplineSet
565 1456 m 1,0,-1
 270 1110 l 1,1,-1
 236 1110 l 1,2,-1
 342 1456 l 1,3,-1
 565 1456 l 1,0,-1
EndSplineSet
EndChar

StartChar: lessequal
Encoding: 163 163 100
Width: 1628
GlyphClass: 1
Flags: W
LayerCount: 2
Fore
SplineSet
221 0 m 1,0,-1
 221 98 l 1,1,-1
 1405 98 l 1,2,-1
 1405 0 l 1,3,-1
 221 0 l 1,0,-1
1405 1184 m 1,4,-1
 1405 1077 l 1,5,-1
 489 711 l 1,6,-1
 1405 342 l 1,7,-1
 1405 238 l 1,8,-1
 221 711 l 1,9,-1
 1405 1184 l 1,4,-1
EndSplineSet
EndChar

StartChar: fraction
Encoding: 164 167 101
Width: 569
GlyphClass: 1
Flags: W
LayerCount: 2
Fore
SplineSet
0 -25 m 1,0,-1
 426 1491 l 1,1,-1
 569 1491 l 1,2,-1
 145 -25 l 1,3,-1
 0 -25 l 1,0,-1
EndSplineSet
EndChar

StartChar: infinity
Encoding: 165 8226 102
Width: 1540
GlyphClass: 1
Flags: W
LayerCount: 2
Fore
SplineSet
702 668 m 1,0,1
 764 807 764 807 842 870 c 0,2,3
 931 944 931 944 1073 944 c 0,4,5
 1244 944 1244 944 1354 819 c 0,6,7
 1456 700 1456 700 1456 526 c 0,8,9
 1456 366 1456 366 1364 242 c 0,10,11
 1261 106 1261 106 1106 106 c 0,12,13
 923 106 923 106 770 393 c 1,14,15
 653 160 653 160 444 160 c 0,16,17
 290 160 290 160 197 266 c 0,18,19
 102 373 102 373 102 528 c 0,20,21
 102 671 102 671 182 780 c 0,22,23
 270 897 270 897 410 897 c 0,24,25
 515 897 515 897 588 827 c 0,26,27
 642 778 642 778 702 668 c 1,0,1
799 465 m 1,28,29
 918 201 918 201 1110 201 c 0,30,31
 1246 201 1246 201 1325 297 c 0,32,33
 1399 389 1399 389 1399 526 c 0,34,35
 1399 656 1399 656 1323 756 c 0,36,37
 1240 866 1240 866 1116 866 c 0,38,39
 996 866 996 866 907 719 c 0,40,41
 872 657 872 657 799 465 c 1,28,29
674 590 m 1,42,43
 581 805 581 805 406 805 c 0,44,45
 295 805 295 805 226 724 c 0,46,47
 158 642 158 642 158 530 c 0,48,49
 158 420 158 420 215 334 c 0,50,51
 281 238 281 238 387 238 c 0,52,53
 504 238 504 238 580 362 c 0,54,55
 618 422 618 422 674 590 c 1,42,43
EndSplineSet
EndChar

StartChar: florin
Encoding: 166 182 103
Width: 1024
GlyphClass: 1
Flags: W
LayerCount: 2
Fore
SplineSet
702 897 m 1,0,-1
 885 897 l 1,1,-1
 868 829 l 1,2,-1
 688 829 l 1,3,4
 597 347 597 347 514 96 c 0,5,6
 340 -442 340 -442 125 -442 c 0,7,8
 0 -442 0 -442 0 -334 c 0,9,10
 0 -300 0 -300 23 -271 c 0,11,12
 46 -244 46 -244 80 -244 c 0,13,14
 145 -244 145 -244 145 -294 c 0,15,16
 145 -297 145 -297 145 -301 c 2,17,-1
 121 -358 l 1,18,-1
 129 -375 l 1,19,-1
 147 -381 l 1,20,21
 236 -381 236 -381 309 -117 c 1,22,-1
 385 229 l 1,23,-1
 520 829 l 1,24,-1
 340 829 l 1,25,-1
 354 897 l 1,26,27
 514 901 514 901 584 1036 c 1,28,-1
 676 1286 l 1,29,30
 738 1421 738 1421 881 1421 c 0,31,32
 1022 1421 1022 1421 1022 1307 c 0,33,34
 1022 1229 1022 1229 952 1229 c 0,35,36
 889 1229 889 1229 889 1284 c 0,37,38
 889 1297 889 1297 899 1316 c 128,-1,39
 909 1335 909 1335 909 1348 c 0,40,41
 909 1374 909 1374 874 1374 c 0,42,43
 794 1374 794 1374 745 1171 c 0,44,45
 733 1114 733 1114 702 897 c 1,0,-1
EndSplineSet
EndChar

StartChar: club
Encoding: 167 223 104
Width: 1589
GlyphClass: 1
Flags: W
LayerCount: 2
Fore
SplineSet
530 956 m 1,0,1
 465 1063 465 1063 465 1147 c 0,2,3
 465 1274 465 1274 567 1362 c 0,4,5
 665 1444 665 1444 795 1444 c 0,6,7
 926 1444 926 1444 1025 1360 c 128,-1,8
 1124 1276 1124 1276 1124 1147 c 0,9,10
 1124 1058 1124 1058 1059 956 c 1,11,12
 1131 981 1131 981 1192 981 c 0,13,14
 1331 981 1331 981 1424 891 c 0,15,16
 1518 801 1518 801 1518 662 c 0,17,18
 1518 528 1518 528 1424 434 c 0,19,20
 1331 340 1331 340 1198 340 c 0,21,22
 1028 340 1028 340 887 532 c 1,23,24
 922 179 922 179 1032 0 c 1,25,-1
 555 0 l 1,26,27
 666 180 666 180 702 532 c 1,28,29
 561 340 561 340 389 340 c 0,30,31
 255 340 255 340 164 434 c 0,32,33
 72 527 72 527 72 662 c 0,34,35
 72 801 72 801 166 891 c 128,-1,36
 260 981 260 981 399 981 c 0,37,38
 458 981 458 981 530 956 c 1,0,1
EndSplineSet
EndChar

StartChar: diamond
Encoding: 168 174 105
Width: 2048
GlyphClass: 1
Flags: W
LayerCount: 2
Fore
SplineSet
172 740 m 1,0,-1
 1010 1580 l 1,1,-1
 1848 740 l 1,2,-1
 1010 -96 l 1,3,-1
 172 740 l 1,0,-1
EndSplineSet
EndChar

StartChar: heart
Encoding: 169 169 106
Width: 1421
GlyphClass: 1
Flags: W
LayerCount: 2
Fore
SplineSet
711 1139 m 1,0,1
 795 1444 795 1444 1024 1444 c 0,2,3
 1164 1444 1164 1444 1264 1353 c 0,4,5
 1362 1261 1362 1261 1362 1120 c 0,6,7
 1362 950 1362 950 1233 739 c 0,8,9
 1207 696 1207 696 991 406 c 0,10,11
 959 360 959 360 860 199 c 0,12,13
 782 70 782 70 717 0 c 1,14,-1
 705 0 l 1,15,16
 662 39 662 39 627 111 c 2,17,-1
 569 236 l 2,18,19
 518 338 518 338 375 514 c 0,20,21
 210 714 210 714 160 797 c 0,22,23
 59 963 59 963 59 1110 c 0,24,25
 59 1256 59 1256 155 1350 c 128,-1,26
 251 1444 251 1444 395 1444 c 0,27,28
 627 1444 627 1444 711 1139 c 1,0,1
EndSplineSet
EndChar

StartChar: spade
Encoding: 170 8482 107
Width: 1282
GlyphClass: 1
Flags: W
LayerCount: 2
Fore
SplineSet
621 1444 m 1,0,-1
 662 1444 l 1,1,2
 694 1415 694 1415 729 1362 c 0,3,4
 765 1300 765 1300 784 1270 c 0,5,6
 839 1191 839 1191 981 1071 c 0,7,8
 1129 945 1129 945 1186 877 c 0,9,10
 1280 757 1280 757 1280 621 c 0,11,12
 1280 504 1280 504 1204 422 c 0,13,14
 1129 340 1129 340 1014 340 c 0,15,16
 864 340 864 340 731 518 c 1,17,18
 757 205 757 205 883 0 c 1,19,-1
 399 0 l 1,20,21
 527 208 527 208 551 518 c 1,22,23
 418 340 418 340 268 340 c 0,24,25
 149 340 149 340 76 422 c 0,26,27
 2 502 2 502 2 621 c 0,28,29
 2 753 2 753 96 872 c 0,30,31
 151 946 151 946 299 1073 c 0,32,33
 451 1205 451 1205 498 1270 c 2,34,-1
 621 1444 l 1,0,-1
EndSplineSet
EndChar

StartChar: arrowboth
Encoding: 171 180 108
Width: 2080
GlyphClass: 1
Flags: W
LayerCount: 2
Fore
SplineSet
342 754 m 1,0,-1
 1741 754 l 1,1,2
 1628 864 1628 864 1530 1061 c 1,3,-1
 1595 1061 l 1,4,5
 1786 848 1786 848 2005 735 c 1,6,-1
 2005 680 l 1,7,8
 1784 568 1784 568 1595 354 c 1,9,-1
 1530 354 l 1,10,11
 1626 550 1626 550 1741 662 c 1,12,-1
 342 662 l 1,13,14
 453 552 453 552 553 354 c 1,15,-1
 485 354 l 1,16,17
 295 569 295 569 78 680 c 1,18,-1
 78 735 l 1,19,20
 293 846 293 846 485 1061 c 1,21,-1
 553 1061 l 1,22,23
 459 870 459 870 342 754 c 1,0,-1
EndSplineSet
EndChar

StartChar: arrowleft
Encoding: 172 168 109
Width: 1662
GlyphClass: 1
Flags: W
LayerCount: 2
Fore
SplineSet
342 975 m 1,0,-1
 362 973 l 2,1,2
 377 968 377 968 377 950 c 0,3,4
 377 890 377 890 199 643 c 1,5,-1
 211 633 l 1,6,-1
 1561 633 l 1,7,8
 1581 624 1581 624 1581 590 c 0,9,10
 1581 558 1581 558 1561 545 c 1,11,-1
 199 535 l 1,12,13
 376 282 376 282 377 231 c 0,14,15
 377 203 377 203 354 203 c 2,16,-1
 336 205 l 1,17,-1
 12 590 l 1,18,19
 82 656 82 656 342 975 c 1,0,-1
EndSplineSet
EndChar

StartChar: arrowup
Encoding: 173 8800 110
Width: 835
GlyphClass: 1
Flags: W
LayerCount: 2
Fore
SplineSet
410 1368 m 1,0,1
 508 1301 508 1301 795 1053 c 1,2,-1
 797 1038 l 2,3,4
 797 1024 797 1024 778 1018 c 1,5,6
 732 1018 732 1018 616 1090 c 0,7,8
 518 1150 518 1150 463 1198 c 1,9,-1
 453 1184 l 1,10,-1
 453 35 l 1,11,12
 432 6 432 6 406 6 c 0,13,14
 385 6 385 6 367 35 c 1,15,-1
 367 1184 l 1,16,-1
 354 1198 l 1,17,18
 311 1157 311 1157 205 1092 c 0,19,20
 90 1018 90 1018 47 1018 c 0,21,22
 23 1018 23 1018 23 1038 c 2,23,-1
 25 1053 l 1,24,25
 169 1179 169 1179 410 1368 c 1,0,1
EndSplineSet
EndChar

StartChar: arrowright
Encoding: 174 198 111
Width: 1662
GlyphClass: 1
Flags: W
LayerCount: 2
Fore
SplineSet
1251 975 m 1,0,-1
 1231 973 l 1,1,2
 1217 967 1217 967 1217 950 c 0,3,4
 1217 889 1217 889 1395 643 c 1,5,-1
 1382 633 l 1,6,-1
 33 633 l 1,7,8
 12 624 12 624 12 590 c 0,9,10
 12 557 12 557 33 545 c 1,11,-1
 1395 535 l 1,12,13
 1218 285 1218 285 1217 231 c 0,14,15
 1217 203 1217 203 1239 203 c 2,16,-1
 1257 205 l 1,17,-1
 1581 590 l 1,18,19
 1511 656 1511 656 1251 975 c 1,0,-1
EndSplineSet
EndChar

StartChar: arrowdown
Encoding: 175 216 112
Width: 823
GlyphClass: 1
Flags: W
LayerCount: 2
Fore
SplineSet
406 8 m 1,0,1
 364 36 364 36 20 324 c 1,2,-1
 18 338 l 2,3,4
 18 358 18 358 43 358 c 0,5,6
 132 358 132 358 350 180 c 1,7,-1
 362 193 l 1,8,-1
 362 1341 l 1,9,10
 377 1363 377 1363 401 1370 c 1,11,-1
 426 1366 l 1,12,-1
 449 1341 l 1,13,-1
 459 178 l 1,14,15
 512 224 512 224 612 287 c 0,16,17
 726 358 726 358 774 358 c 1,18,19
 793 352 793 352 793 338 c 2,20,-1
 791 324 l 1,21,-1
 602 162 l 2,22,23
 502 76 502 76 406 8 c 1,0,1
EndSplineSet
EndChar

StartChar: degree
Encoding: 176 8734 113
Width: 532
GlyphClass: 1
Flags: W
LayerCount: 2
Fore
SplineSet
53 1356 m 0,0,1
 53 1452 53 1452 120 1519 c 0,2,3
 186 1585 186 1585 283 1585 c 0,4,5
 379 1585 379 1585 445 1519 c 0,6,7
 512 1452 512 1452 512 1356 c 0,8,9
 512 1262 512 1262 444 1194 c 128,-1,10
 376 1126 376 1126 283 1126 c 0,11,12
 187 1126 187 1126 120 1193 c 0,13,14
 53 1259 53 1259 53 1356 c 0,0,1
135 1354 m 0,15,16
 135 1292 135 1292 178 1247 c 0,17,18
 223 1204 223 1204 285 1204 c 0,19,20
 346 1204 346 1204 391 1247 c 0,21,22
 434 1290 434 1290 434 1354 c 0,23,24
 434 1415 434 1415 390 1459 c 0,25,26
 347 1503 347 1503 285 1503 c 0,27,28
 221 1503 221 1503 178 1460 c 128,-1,29
 135 1417 135 1417 135 1354 c 0,15,16
EndSplineSet
EndChar

StartChar: plusminus
Encoding: 177 177 114
Width: 1628
GlyphClass: 1
Flags: W
LayerCount: 2
Fore
SplineSet
221 0 m 1,0,-1
 221 98 l 1,1,-1
 1407 98 l 1,2,-1
 1407 0 l 1,3,-1
 221 0 l 1,0,-1
766 297 m 1,4,-1
 766 692 l 1,5,-1
 221 692 l 1,6,-1
 221 791 l 1,7,-1
 766 791 l 1,8,-1
 766 1184 l 1,9,-1
 864 1184 l 1,10,-1
 864 791 l 1,11,-1
 1407 791 l 1,12,-1
 1407 692 l 1,13,-1
 864 692 l 1,14,-1
 864 297 l 1,15,-1
 766 297 l 1,4,-1
EndSplineSet
EndChar

StartChar: second
Encoding: 178 8804 115
Width: 957
GlyphClass: 1
Flags: W
LayerCount: 2
Fore
SplineSet
565 1456 m 1,0,-1
 270 1110 l 1,1,-1
 236 1110 l 1,2,-1
 342 1456 l 1,3,-1
 565 1456 l 1,0,-1
841 1456 m 1,4,-1
 546 1110 l 1,5,-1
 512 1110 l 1,6,-1
 618 1456 l 1,7,-1
 841 1456 l 1,4,-1
EndSplineSet
EndChar

StartChar: greaterequal
Encoding: 179 8805 116
Width: 1628
GlyphClass: 1
Flags: W
LayerCount: 2
Fore
SplineSet
1405 0 m 1,0,-1
 221 0 l 1,1,-1
 221 98 l 1,2,-1
 1405 98 l 1,3,-1
 1405 0 l 1,0,-1
221 1184 m 1,4,-1
 1405 711 l 1,5,-1
 221 238 l 1,6,-1
 221 342 l 1,7,-1
 1139 713 l 1,8,-1
 221 1077 l 1,9,-1
 221 1184 l 1,4,-1
EndSplineSet
EndChar

StartChar: multiply
Encoding: 180 165 117
Width: 1628
GlyphClass: 1
Flags: W
LayerCount: 2
Fore
SplineSet
221 70 m 1,0,-1
 743 592 l 1,1,-1
 221 1114 l 1,2,-1
 293 1184 l 1,3,-1
 813 662 l 1,4,-1
 1337 1184 l 1,5,-1
 1405 1114 l 1,6,-1
 883 592 l 1,7,-1
 1405 70 l 1,8,-1
 1337 0 l 1,9,-1
 813 522 l 1,10,-1
 293 0 l 1,11,-1
 221 70 l 1,0,-1
EndSplineSet
EndChar

StartChar: proportional
Encoding: 181 181 118
Width: 1460
GlyphClass: 1
Flags: W
LayerCount: 2
Fore
SplineSet
682 668 m 1,0,1
 745 806 745 806 819 868 c 0,2,3
 907 944 907 944 1047 944 c 0,4,5
 1201 944 1201 944 1337 838 c 1,6,-1
 1337 778 l 1,7,8
 1223 868 1223 868 1106 868 c 0,9,10
 974 868 974 868 887 723 c 0,11,12
 845 656 845 656 778 465 c 1,13,14
 897 188 897 188 1114 188 c 0,15,16
 1235 188 1235 188 1337 270 c 1,17,-1
 1337 213 l 1,18,19
 1230 106 1230 106 1094 106 c 0,20,21
 905 106 905 106 750 395 c 1,22,23
 636 160 636 160 424 160 c 0,24,25
 273 160 273 160 177 268 c 0,26,27
 82 378 82 378 82 530 c 0,28,29
 82 675 82 675 162 782 c 0,30,31
 250 897 250 897 391 897 c 0,32,33
 571 897 571 897 682 668 c 1,0,1
653 590 m 1,34,35
 561 805 561 805 385 805 c 0,36,37
 275 805 275 805 206 724 c 128,-1,38
 137 643 137 643 137 530 c 0,39,40
 137 419 137 419 195 334 c 0,41,42
 260 238 260 238 367 238 c 0,43,44
 484 238 484 238 559 362 c 0,45,46
 597 422 597 422 653 590 c 1,34,35
EndSplineSet
EndChar

StartChar: partialdiff
Encoding: 182 8706 119
Width: 1091
GlyphClass: 1
Flags: W
LayerCount: 2
Fore
SplineSet
946 717 m 1,0,1
 958 828 958 828 958 901 c 0,2,3
 958 1072 958 1072 872 1174 c 0,4,5
 781 1280 781 1280 612 1280 c 0,6,7
 417 1280 417 1280 311 1120 c 1,8,-1
 266 1120 l 1,9,10
 405 1421 405 1421 647 1421 c 0,11,12
 840 1421 840 1421 936 1260 c 0,13,14
 1012 1126 1012 1126 1012 920 c 0,15,16
 1012 582 1012 582 885 311 c 0,17,18
 723 -31 723 -31 422 -31 c 0,19,20
 268 -31 268 -31 174 58 c 0,21,22
 82 148 82 148 82 303 c 0,23,24
 82 543 82 543 236 721 c 0,25,26
 396 907 396 907 633 907 c 0,27,28
 861 907 861 907 946 717 c 1,0,1
930 629 m 1,29,30
 851 852 851 852 643 852 c 0,31,32
 457 852 457 852 344 643 c 0,33,34
 252 468 252 468 252 264 c 0,35,36
 252 164 252 164 297 98 c 0,37,38
 350 27 350 27 446 27 c 0,39,40
 633 27 633 27 774 244 c 0,41,42
 881 406 881 406 930 629 c 1,29,30
EndSplineSet
EndChar

StartChar: bullet
Encoding: 183 8721 120
Width: 843
GlyphClass: 1
Flags: W
LayerCount: 2
Fore
SplineSet
348 377 m 128,-1,1
 205 377 205 377 99 478 c 0,2,3
 -6 578 -6 578 -6 723 c 0,4,5
 -6 866 -6 866 99 968 c 0,6,7
 205 1069 205 1069 348 1069 c 0,8,9
 488 1069 488 1069 589 967 c 0,10,11
 688 864 688 864 688 723 c 0,12,13
 688 577 688 577 590 478 c 0,14,0
 491 377 491 377 348 377 c 128,-1,1
EndSplineSet
EndChar

StartChar: divide
Encoding: 184 8719 121
Width: 1628
GlyphClass: 1
Flags: W
LayerCount: 2
Fore
SplineSet
715 98 m 1,0,-1
 715 295 l 1,1,-1
 913 295 l 1,2,-1
 913 98 l 1,3,-1
 715 98 l 1,0,-1
221 543 m 1,4,-1
 221 641 l 1,5,-1
 1407 641 l 1,6,-1
 1407 543 l 1,7,-1
 221 543 l 1,4,-1
715 887 m 1,8,-1
 715 1085 l 1,9,-1
 913 1085 l 1,10,-1
 913 887 l 1,11,-1
 715 887 l 1,8,-1
EndSplineSet
EndChar

StartChar: notequal
Encoding: 185 960 122
Width: 1628
GlyphClass: 1
Flags: W
LayerCount: 2
Fore
SplineSet
883 827 m 1,0,-1
 1098 1204 l 1,1,-1
 1208 1204 l 1,2,-1
 993 827 l 1,3,-1
 1405 827 l 1,4,-1
 1405 729 l 1,5,-1
 936 729 l 1,6,-1
 780 457 l 1,7,-1
 1405 457 l 1,8,-1
 1405 358 l 1,9,-1
 725 358 l 1,10,-1
 518 -4 l 1,11,-1
 401 -4 l 1,12,-1
 610 358 l 1,13,-1
 221 358 l 1,14,-1
 221 457 l 1,15,-1
 668 457 l 1,16,-1
 825 729 l 1,17,-1
 221 729 l 1,18,-1
 221 827 l 1,19,-1
 883 827 l 1,0,-1
EndSplineSet
EndChar

StartChar: equivalence
Encoding: 186 8747 123
Width: 1628
GlyphClass: 1
Flags: W
LayerCount: 2
Fore
SplineSet
221 172 m 1,0,-1
 221 270 l 1,1,-1
 1405 270 l 1,2,-1
 1405 172 l 1,3,-1
 221 172 l 1,0,-1
221 543 m 1,4,-1
 221 641 l 1,5,-1
 1405 641 l 1,6,-1
 1405 543 l 1,7,-1
 221 543 l 1,4,-1
221 913 m 1,8,-1
 221 1012 l 1,9,-1
 1405 1012 l 1,10,-1
 1405 913 l 1,11,-1
 221 913 l 1,8,-1
EndSplineSet
EndChar

StartChar: approxequal
Encoding: 187 170 124
Width: 1628
GlyphClass: 1
Flags: W
LayerCount: 2
Fore
SplineSet
307 621 m 1,0,-1
 246 621 l 1,1,2
 259 940 259 940 510 940 c 0,3,4
 622 940 622 940 864 820 c 128,-1,5
 1106 700 1106 700 1200 700 c 0,6,7
 1345 700 1345 700 1368 918 c 1,8,-1
 1430 918 l 1,9,10
 1410 598 1410 598 1165 598 c 0,11,12
 1038 598 1038 598 819 718 c 128,-1,13
 600 838 600 838 473 838 c 0,14,15
 396 838 396 838 348 766 c 0,16,17
 307 702 307 702 307 621 c 1,0,-1
340 317 m 1,18,-1
 279 317 l 1,19,20
 293 637 293 637 543 637 c 0,21,22
 656 637 656 637 897 517 c 128,-1,23
 1138 397 1138 397 1233 397 c 0,24,25
 1378 397 1378 397 1401 614 c 1,26,-1
 1462 614 l 1,27,28
 1444 295 1444 295 1198 295 c 0,29,30
 1071 295 1071 295 852 415 c 128,-1,31
 633 535 633 535 506 535 c 0,32,33
 428 535 428 535 381 463 c 0,34,35
 340 399 340 399 340 317 c 1,18,-1
EndSplineSet
EndChar

StartChar: ellipsis
Encoding: 188 186 125
Width: 2048
GlyphClass: 1
Flags: W
LayerCount: 2
Fore
SplineSet
410 590 m 0,0,1
 410 544 410 544 378 510 c 0,2,3
 346 477 346 477 299 477 c 0,4,5
 254 477 254 477 221 511 c 0,6,7
 188 546 188 546 188 590 c 0,8,9
 188 635 188 635 221 668 c 0,10,11
 255 700 255 700 299 700 c 128,-1,12
 343 700 343 700 377 668 c 0,13,14
 410 635 410 635 410 590 c 0,0,1
1092 590 m 0,15,16
 1092 546 1092 546 1060 511 c 0,17,18
 1029 477 1029 477 983 477 c 0,19,20
 938 477 938 477 904 511 c 0,21,22
 870 547 870 547 870 590 c 0,23,24
 870 634 870 634 904 668 c 0,25,26
 939 700 939 700 983 700 c 0,27,28
 1092 700 1092 700 1092 590 c 0,15,16
1776 590 m 0,29,30
 1776 544 1776 544 1744 510 c 0,31,32
 1712 477 1712 477 1665 477 c 0,33,34
 1620 477 1620 477 1587 511 c 0,35,36
 1554 546 1554 546 1554 590 c 0,37,38
 1554 635 1554 635 1587 668 c 0,39,40
 1621 700 1621 700 1665 700 c 128,-1,41
 1709 700 1709 700 1743 668 c 0,42,43
 1776 635 1776 635 1776 590 c 0,29,30
EndSplineSet
EndChar

StartChar: arrowvertex
Encoding: 189 937 126
AltUni2: 002126.ffffffff.0
Width: 1183
GlyphClass: 1
Flags: W
LayerCount: 2
Fore
SplineSet
506 -295 m 1,0,-1
 506 1616 l 1,1,-1
 678 1616 l 1,2,-1
 678 -295 l 1,3,-1
 506 -295 l 1,0,-1
EndSplineSet
EndChar

StartChar: arrowhorizex
Encoding: 190 230 127
Width: 2048
GlyphClass: 1
Flags: W
LayerCount: 2
Fore
SplineSet
0 459 m 1,0,-1
 2048 459 l 1,1,-1
 2048 606 l 1,2,-1
 0 606 l 1,3,-1
 0 459 l 1,0,-1
EndSplineSet
EndChar

StartChar: carriagereturn
Encoding: 191 248 128
Width: 1640
GlyphClass: 1
Flags: W
LayerCount: 2
Fore
SplineSet
1488 629 m 5,0,-1
 340 623 l 5,1,2
 408 709 408 709 448 770 c 4,3,4
 513 874 513 874 518 930 c 5,5,-1
 483 954 l 5,6,-1
 340 770 l 5,7,8
 277 710 277 710 153 569 c 5,9,-1
 309 373 l 6,10,11
 399 262 399 262 477 184 c 5,12,-1
 495 182 l 5,13,-1
 518 211 l 5,14,15
 509 275 509 275 340 514 c 5,16,-1
 352 524 l 5,17,-1
 1538 524 l 5,18,-1
 1488 629 l 5,0,-1
1562 1165 m 5,19,-1
 1488 1165 l 5,20,-1
 1488 582 l 6,21,22
 1488 524 1488 524 1538 524 c 5,23,-1
 1560 537 l 5,24,-1
 1562 1165 l 5,19,-1
EndSplineSet
EndChar

StartChar: aleph
Encoding: 192 191 129
Width: 1685
GlyphClass: 1
Flags: W
LayerCount: 2
Fore
SplineSet
979 655 m 1,0,1
 1165 506 1165 506 1229 449 c 0,2,3
 1395 289 1395 289 1395 197 c 0,4,5
 1395 142 1395 142 1348 59 c 0,6,7
 1295 -28 1295 -28 1245 -31 c 1,8,-1
 1235 -27 l 1,9,-1
 1231 -14 l 1,10,11
 1257 58 1257 58 1257 86 c 0,12,13
 1257 160 1257 160 1180 240 c 0,14,15
 1146 274 1146 274 1044 358 c 2,16,-1
 455 846 l 1,17,18
 332 718 332 718 332 616 c 0,19,20
 332 527 332 527 403 438 c 1,21,-1
 539 297 l 1,22,23
 609 215 609 215 610 135 c 0,24,25
 610 -31 610 -31 375 -31 c 0,26,27
 311 -31 311 -31 285 -14 c 1,28,-1
 279 0 l 1,29,-1
 283 8 l 1,30,31
 371 58 371 58 371 111 c 0,32,33
 371 183 371 183 308 309 c 0,34,35
 246 438 246 438 246 508 c 0,36,37
 246 650 246 650 424 870 c 1,38,39
 315 969 315 969 287 999 c 0,40,41
 205 1087 205 1087 205 1159 c 0,42,43
 205 1218 205 1218 246 1296 c 0,44,45
 291 1384 291 1384 342 1386 c 1,46,-1
 362 1368 l 1,47,48
 351 1293 351 1293 348 1296 c 1,49,50
 348 1184 348 1184 596 965 c 1,51,-1
 950 682 l 1,52,-1
 1217 1012 l 1,53,54
 1075 1124 1075 1124 1075 1212 c 0,55,56
 1075 1351 1075 1351 1257 1386 c 1,57,58
 1220 1339 1220 1339 1219 1294 c 1,59,60
 1442 994 1442 994 1442 961 c 0,61,62
 1442 887 1442 887 1354 838 c 1,63,64
 1328 933 1328 933 1247 989 c 1,65,-1
 979 655 l 1,0,1
EndSplineSet
EndChar

StartChar: Ifraktur
Encoding: 193 161 130
Width: 1404
GlyphClass: 1
Flags: W
LayerCount: 2
Fore
SplineSet
395 915 m 1,0,-1
 403 883 l 1,1,2
 366 874 366 874 324 874 c 0,3,4
 234 874 234 874 170 938 c 0,5,6
 106 1005 106 1005 106 1094 c 0,7,8
 106 1226 106 1226 215 1311 c 0,9,10
 314 1386 314 1386 451 1386 c 0,11,12
 552 1386 552 1386 737 1313 c 0,13,14
 926 1239 926 1239 1024 1239 c 0,15,16
 1144 1239 1144 1239 1194 1364 c 1,17,-1
 1227 1356 l 1,18,19
 1148 1090 1148 1090 920 1090 c 0,20,21
 816 1090 816 1090 629 1159 c 0,22,23
 441 1229 441 1229 338 1229 c 0,24,25
 265 1229 265 1229 210 1185 c 0,26,27
 156 1140 156 1140 156 1069 c 0,28,29
 156 911 156 911 338 911 c 0,30,31
 355 911 355 911 395 915 c 1,0,-1
1225 934 m 1,32,-1
 1200 915 l 1,33,34
 1133 965 1133 965 1081 965 c 0,35,36
 995 965 995 965 995 874 c 0,37,38
 995 824 995 824 1098 636 c 0,39,40
 1200 447 1200 447 1200 373 c 0,41,42
 1200 182 1200 182 1010 68 c 0,43,44
 845 -31 845 -31 641 -31 c 0,45,46
 526 -31 526 -31 410 31 c 0,47,48
 345 66 345 66 242 147 c 0,49,50
 160 209 160 209 133 209 c 0,51,52
 81 209 81 209 43 150 c 1,53,-1
 0 150 l 1,54,55
 130 315 130 315 264 315 c 0,56,57
 361 315 361 315 463 240 c 1,58,-1
 627 100 l 2,59,60
 718 25 718 25 786 25 c 0,61,62
 883 25 883 25 965 86 c 0,63,64
 1055 154 1055 154 1055 248 c 0,65,66
 1055 304 1055 304 944 503 c 0,67,68
 834 701 834 701 834 772 c 0,69,70
 834 865 834 865 895 939 c 0,71,72
 956 1014 956 1014 1047 1014 c 0,73,74
 1131 1014 1131 1014 1225 934 c 1,32,-1
EndSplineSet
EndChar

StartChar: Rfraktur
Encoding: 194 172 131
Width: 1628
GlyphClass: 1
Flags: W
LayerCount: 2
Fore
SplineSet
707 1188 m 1,0,1
 864 1265 864 1265 913 1286 c 0,2,3
 1033 1348 1033 1348 1108 1405 c 1,4,5
 1372 1270 1372 1270 1372 1108 c 0,6,7
 1372 927 1372 927 1108 795 c 1,8,9
 1194 724 1194 724 1227 549 c 1,10,11
 1244 403 1244 403 1257 260 c 1,12,13
 1277 123 1277 123 1329 123 c 0,14,15
 1370 123 1370 123 1417 164 c 1,16,-1
 1438 137 l 1,17,-1
 1200 -43 l 1,18,19
 1055 68 1055 68 1055 266 c 0,20,21
 1055 296 1055 296 1058 364 c 0,22,23
 1061 430 1061 430 1061 467 c 0,24,25
 1061 619 1061 619 940 709 c 1,26,-1
 741 631 l 1,27,-1
 743 498 l 1,28,-1
 740 438 l 1,29,-1
 730 383 l 1,30,31
 700 264 700 264 600 168 c 0,32,33
 546 116 546 116 293 -43 c 1,34,-1
 143 115 l 1,35,-1
 76 72 l 1,36,-1
 51 100 l 1,37,-1
 287 250 l 1,38,-1
 432 94 l 1,39,40
 555 154 555 154 555 395 c 2,41,-1
 555 930 l 2,42,43
 555 1122 555 1122 530 1198 c 0,44,45
 485 1343 485 1343 338 1343 c 0,46,47
 250 1343 250 1343 180 1288 c 0,48,49
 104 1229 104 1229 104 1143 c 0,50,51
 104 1064 104 1064 232 945 c 0,52,53
 360 829 360 829 360 729 c 0,54,55
 360 579 360 579 190 479 c 1,56,-1
 182 512 l 1,57,58
 256 551 256 551 256 606 c 0,59,60
 256 685 256 685 128 807 c 0,61,62
 0 927 0 927 0 1020 c 0,63,64
 0 1173 0 1173 119 1280 c 0,65,66
 237 1386 237 1386 393 1386 c 0,67,68
 608 1386 608 1386 707 1188 c 1,0,1
721 1149 m 1,69,70
 754 1020 754 1020 754 866 c 0,71,72
 754 783 754 783 743 678 c 1,73,74
 957 758 957 758 1022 797 c 0,75,76
 1182 894 1182 894 1182 1028 c 0,77,78
 1182 1237 1182 1237 979 1237 c 0,79,80
 867 1237 867 1237 721 1149 c 1,69,70
EndSplineSet
EndChar

StartChar: weierstrass
Encoding: 195 8730 132
Width: 1710
GlyphClass: 1
Flags: W
LayerCount: 2
Fore
SplineSet
707 1059 m 1,0,-1
 731 1016 l 1,1,2
 391 811 391 811 391 520 c 0,3,4
 391 451 391 451 422 365 c 1,5,6
 649 608 649 608 772 709 c 0,7,8
 1014 907 1014 907 1198 907 c 0,9,10
 1321 907 1321 907 1391 824 c 0,11,12
 1460 742 1460 742 1460 616 c 0,13,14
 1460 375 1460 375 1305 184 c 0,15,16
 1140 -18 1140 -18 903 -18 c 0,17,18
 812 -18 812 -18 748 37 c 0,19,20
 682 90 682 90 682 178 c 0,21,22
 682 248 682 248 715 299 c 0,23,24
 753 358 753 358 819 358 c 0,25,26
 893 358 893 358 893 285 c 0,27,28
 893 258 893 258 745 135 c 1,29,30
 748 88 748 88 797 55 c 0,31,32
 838 27 838 27 891 27 c 0,33,34
 1072 27 1072 27 1190 260 c 0,35,36
 1288 458 1288 458 1288 657 c 0,37,38
 1288 730 1288 730 1251 782 c 0,39,40
 1209 844 1209 844 1141 844 c 0,41,42
 1000 844 1000 844 762 641 c 0,43,44
 588 490 588 490 446 315 c 1,45,46
 592 15 592 15 592 -121 c 0,47,48
 592 -240 592 -240 530 -336 c 0,49,50
 461 -442 461 -442 346 -442 c 0,51,52
 248 -442 248 -442 185 -369 c 0,53,54
 123 -293 123 -293 123 -195 c 0,55,56
 123 -48 123 -48 291 190 c 1,57,58
 229 335 229 335 229 434 c 0,59,60
 229 770 229 770 707 1059 c 1,0,-1
313 139 m 1,61,62
 168 -69 168 -69 168 -197 c 0,63,64
 168 -271 168 -271 215 -334 c 0,65,66
 261 -395 261 -395 336 -395 c 0,67,68
 393 -395 393 -395 429 -350 c 128,-1,69
 465 -305 465 -305 465 -248 c 0,70,71
 465 -121 465 -121 313 139 c 1,61,62
EndSplineSet
EndChar

StartChar: circlemultiply
Encoding: 196 402 133
Width: 1628
GlyphClass: 1
Flags: W
LayerCount: 2
Fore
SplineSet
885 592 m 1,0,-1
 1196 281 l 1,1,2
 1309 424 1309 424 1309 592 c 128,-1,3
 1309 760 1309 760 1196 903 c 1,4,-1
 885 592 l 1,0,-1
743 592 m 1,5,-1
 432 903 l 1,6,7
 322 762 322 762 322 592 c 0,8,9
 322 431 322 431 432 281 c 1,10,-1
 743 592 l 1,5,-1
813 662 m 1,11,-1
 1126 975 l 1,12,13
 985 1085 985 1085 815 1085 c 0,14,15
 640 1085 640 1085 502 975 c 1,16,-1
 813 662 l 1,11,-1
813 522 m 1,17,-1
 502 211 l 1,18,19
 645 98 645 98 815 98 c 0,20,21
 983 98 983 98 1126 211 c 1,22,-1
 813 522 l 1,17,-1
813 0 m 0,23,24
 542 0 542 0 383 161 c 0,25,26
 223 321 223 321 223 592 c 128,-1,27
 223 863 223 863 383 1023 c 0,28,29
 542 1184 542 1184 813 1184 c 0,30,31
 1082 1184 1082 1184 1245 1023 c 0,32,33
 1407 862 1407 862 1407 592 c 128,-1,34
 1407 322 1407 322 1245 161 c 0,35,36
 1082 0 1082 0 813 0 c 0,23,24
EndSplineSet
EndChar

StartChar: circleplus
Encoding: 197 8776 134
Width: 1628
GlyphClass: 1
Flags: W
LayerCount: 2
Fore
SplineSet
813 0 m 0,0,1
 545 0 545 0 383 162 c 128,-1,2
 221 324 221 324 221 592 c 0,3,4
 221 862 221 862 382 1023 c 128,-1,5
 543 1184 543 1184 813 1184 c 0,6,7
 1081 1184 1081 1184 1243 1022 c 128,-1,8
 1405 860 1405 860 1405 592 c 0,9,10
 1405 322 1405 322 1244 161 c 128,-1,11
 1083 0 1083 0 813 0 c 0,0,1
862 641 m 1,12,-1
 1305 641 l 1,13,14
 1279 822 1279 822 1161 940 c 0,15,16
 1042 1059 1042 1059 862 1083 c 1,17,-1
 862 641 l 1,12,-1
766 543 m 1,18,-1
 322 543 l 1,19,20
 368 161 368 161 764 100 c 1,21,-1
 766 543 l 1,18,-1
764 641 m 1,22,-1
 766 1083 l 1,23,24
 585 1059 585 1059 465 940 c 0,25,26
 345 823 345 823 322 641 c 1,27,-1
 764 641 l 1,22,-1
862 543 m 1,28,-1
 862 100 l 1,29,30
 1043 126 1043 126 1161 244 c 128,-1,31
 1279 362 1279 362 1305 543 c 1,32,-1
 862 543 l 1,28,-1
EndSplineSet
EndChar

StartChar: emptyset
Encoding: 198 8710 135
Width: 1628
GlyphClass: 1
Flags: W
LayerCount: 2
Fore
SplineSet
1126 975 m 1,0,1
 985 1085 985 1085 813 1085 c 0,2,3
 593 1085 593 1085 457 949 c 0,4,5
 319 812 319 812 319 594 c 0,6,7
 319 419 319 419 432 281 c 1,8,-1
 1126 975 l 1,0,1
502 211 m 1,9,10
 645 98 645 98 815 98 c 0,11,12
 1035 98 1035 98 1170 236 c 0,13,14
 1307 373 1307 373 1307 592 c 0,15,16
 1307 760 1307 760 1196 903 c 1,17,-1
 502 211 l 1,9,10
813 0 m 0,18,19
 545 0 545 0 383 162 c 128,-1,20
 221 324 221 324 221 592 c 0,21,22
 221 862 221 862 382 1023 c 128,-1,23
 543 1184 543 1184 813 1184 c 0,24,25
 1081 1184 1081 1184 1243 1022 c 128,-1,26
 1405 860 1405 860 1405 592 c 0,27,28
 1405 322 1405 322 1244 161 c 128,-1,29
 1083 0 1083 0 813 0 c 0,18,19
EndSplineSet
EndChar

StartChar: intersection
Encoding: 199 171 136
Width: 1628
GlyphClass: 1
Flags: W
LayerCount: 2
Fore
SplineSet
221 0 m 1,0,-1
 221 592 l 2,1,2
 221 860 221 860 383 1022 c 128,-1,3
 545 1184 545 1184 813 1184 c 0,4,5
 1082 1184 1082 1184 1245 1023 c 0,6,7
 1407 862 1407 862 1407 592 c 2,8,-1
 1407 0 l 1,9,-1
 1309 0 l 1,10,11
 1309 60 1309 60 1315 199 c 0,12,13
 1319 315 1319 315 1319 397 c 0,14,15
 1319 716 1319 716 1229 877 c 0,16,17
 1111 1085 1111 1085 813 1085 c 0,18,19
 594 1085 594 1085 458 948 c 0,20,21
 322 812 322 812 322 592 c 2,22,-1
 322 0 l 1,23,-1
 221 0 l 1,0,-1
EndSplineSet
EndChar

StartChar: union
Encoding: 200 187 137
Width: 1628
GlyphClass: 1
Flags: W
LayerCount: 2
Fore
SplineSet
1407 1184 m 1,0,-1
 1407 592 l 2,1,2
 1407 322 1407 322 1245 161 c 0,3,4
 1082 0 1082 0 813 0 c 0,5,6
 542 0 542 0 383 161 c 0,7,8
 223 321 223 321 223 592 c 2,9,-1
 223 1184 l 1,10,-1
 322 1184 l 1,11,-1
 322 592 l 2,12,13
 322 372 322 372 459 236 c 0,14,15
 594 98 594 98 813 98 c 0,16,17
 1114 98 1114 98 1233 313 c 0,18,19
 1319 471 1319 471 1319 788 c 0,20,21
 1319 877 1319 877 1315 993 c 0,22,23
 1309 1132 1309 1132 1309 1184 c 1,24,-1
 1407 1184 l 1,0,-1
EndSplineSet
EndChar

StartChar: propersuperset
Encoding: 201 8230 138
Width: 1628
GlyphClass: 1
Flags: W
LayerCount: 2
Fore
SplineSet
221 281 m 1,0,-1
 987 281 l 2,1,2
 1121 281 1121 281 1214 375 c 0,3,4
 1309 470 1309 470 1309 602 c 128,-1,5
 1309 734 1309 734 1214 827 c 0,6,7
 1121 922 1121 922 987 922 c 2,8,-1
 221 922 l 1,9,-1
 221 1020 l 1,10,-1
 987 1020 l 2,11,12
 1170 1020 1170 1020 1288 902 c 0,13,14
 1407 785 1407 785 1407 602 c 0,15,16
 1407 422 1407 422 1287 302 c 128,-1,17
 1167 182 1167 182 987 182 c 2,18,-1
 221 182 l 1,19,-1
 221 281 l 1,0,-1
EndSplineSet
EndChar

StartChar: reflexsuperset
Encoding: 202 160 139
Width: 1628
GlyphClass: 1
Flags: W
LayerCount: 2
Fore
SplineSet
221 98 m 1,0,-1
 1407 98 l 1,1,-1
 1407 0 l 1,2,-1
 221 0 l 1,3,-1
 221 98 l 1,0,-1
221 444 m 1,4,-1
 987 444 l 2,5,6
 1121 444 1121 444 1214 539 c 0,7,8
 1309 632 1309 632 1309 766 c 0,9,10
 1309 896 1309 896 1214 991 c 0,11,12
 1121 1085 1121 1085 987 1085 c 2,13,-1
 221 1085 l 1,14,-1
 221 1184 l 1,15,-1
 987 1184 l 2,16,17
 1168 1184 1168 1184 1288 1066 c 0,18,19
 1407 947 1407 947 1407 766 c 0,20,21
 1407 586 1407 586 1287 466 c 128,-1,22
 1167 346 1167 346 987 346 c 2,23,-1
 221 346 l 1,24,-1
 221 444 l 1,4,-1
EndSplineSet
EndChar

StartChar: notsubset
Encoding: 203 192 140
Width: 1628
GlyphClass: 1
Flags: W
LayerCount: 2
Fore
SplineSet
948 922 m 1,0,-1
 641 922 l 2,1,2
 508 922 508 922 415 828 c 0,3,4
 322 735 322 735 322 602 c 0,5,6
 322 487 322 487 394 397 c 0,7,8
 468 306 468 306 580 287 c 1,9,-1
 948 922 l 1,0,-1
1407 281 m 1,10,-1
 1407 182 l 1,11,-1
 637 182 l 1,12,13
 525 -35 525 -35 483 -35 c 0,14,15
 430 -35 430 -35 430 14 c 0,16,17
 430 36 430 36 526 197 c 1,18,19
 390 228 390 228 306 344 c 0,20,21
 223 460 223 460 223 602 c 0,22,23
 223 816 223 816 352 920 c 0,24,25
 456 1000 456 1000 655 1016 c 0,26,27
 699 1020 699 1020 1006 1020 c 1,28,29
 1152 1313 1152 1313 1204 1313 c 0,30,31
 1257 1313 1257 1313 1257 1264 c 0,32,33
 1257 1243 1257 1243 1124 1020 c 1,34,-1
 1407 1020 l 1,35,-1
 1407 922 l 1,36,-1
 1067 922 l 1,37,-1
 694 281 l 1,38,-1
 1407 281 l 1,10,-1
EndSplineSet
EndChar

StartChar: propersubset
Encoding: 204 195 141
Width: 1628
GlyphClass: 1
Flags: W
LayerCount: 2
Fore
SplineSet
1407 281 m 1,0,-1
 1407 182 l 1,1,-1
 641 182 l 2,2,3
 458 182 458 182 341 301 c 0,4,5
 223 419 223 419 223 602 c 0,6,7
 223 782 223 782 342 901 c 128,-1,8
 461 1020 461 1020 641 1020 c 2,9,-1
 1407 1020 l 1,10,-1
 1407 922 l 1,11,-1
 641 922 l 2,12,13
 508 922 508 922 415 828 c 0,14,15
 322 735 322 735 322 602 c 0,16,17
 322 470 322 470 415 375 c 0,18,19
 508 281 508 281 641 281 c 2,20,-1
 1407 281 l 1,0,-1
EndSplineSet
EndChar

StartChar: reflexsubset
Encoding: 205 213 142
Width: 1628
GlyphClass: 1
Flags: W
LayerCount: 2
Fore
SplineSet
1407 98 m 1,0,-1
 1407 0 l 1,1,-1
 223 0 l 1,2,-1
 223 98 l 1,3,-1
 1407 98 l 1,0,-1
1407 444 m 1,4,-1
 1407 346 l 1,5,-1
 641 346 l 2,6,7
 458 346 458 346 341 465 c 0,8,9
 223 583 223 583 223 766 c 0,10,11
 223 946 223 946 342 1065 c 128,-1,12
 461 1184 461 1184 641 1184 c 2,13,-1
 1407 1184 l 1,14,-1
 1407 1085 l 1,15,-1
 641 1085 l 2,16,17
 508 1085 508 1085 415 992 c 128,-1,18
 322 899 322 899 322 766 c 0,19,20
 322 632 322 632 415 539 c 0,21,22
 508 444 508 444 641 444 c 2,23,-1
 1407 444 l 1,4,-1
EndSplineSet
EndChar

StartChar: element
Encoding: 206 338 143
Width: 1460
GlyphClass: 1
Flags: W
LayerCount: 2
Fore
SplineSet
1257 1133 m 1,0,-1
 1257 1018 l 1,1,2
 1200 1018 1200 1018 1071 1024 c 0,3,4
 964 1028 964 1028 887 1028 c 0,5,6
 628 1028 628 1028 487 961 c 0,7,8
 298 869 298 869 258 645 c 1,9,-1
 1257 645 l 1,10,-1
 1257 524 l 1,11,-1
 260 524 l 1,12,13
 317 297 317 297 504 207 c 0,14,15
 645 139 645 139 895 139 c 0,16,17
 945 139 945 139 1082 144 c 0,18,19
 1206 150 1206 150 1257 150 c 1,20,-1
 1257 35 l 1,21,-1
 780 35 l 2,22,23
 500 35 500 35 330 168 c 0,24,25
 139 315 139 315 139 586 c 0,26,27
 139 852 139 852 330 999 c 0,28,29
 502 1133 502 1133 776 1133 c 2,30,-1
 1257 1133 l 1,0,-1
EndSplineSet
EndChar

StartChar: notelement
Encoding: 207 339 144
Width: 1460
GlyphClass: 1
Flags: W
LayerCount: 2
Fore
SplineSet
1264 1133 m 1,0,-1
 1264 1018 l 1,1,-1
 1020 1018 l 1,2,-1
 807 645 l 1,3,-1
 1264 645 l 1,4,-1
 1264 524 l 1,5,-1
 739 524 l 1,6,-1
 549 186 l 1,7,8
 699 141 699 141 918 141 c 0,9,10
 938 141 938 141 1092 145 c 0,11,12
 1229 150 1229 150 1264 150 c 1,13,-1
 1264 35 l 1,14,-1
 786 35 l 2,15,16
 594 35 594 35 487 80 c 1,17,-1
 358 -137 l 1,18,-1
 229 -137 l 1,19,-1
 387 129 l 1,20,21
 145 327 145 327 145 586 c 0,22,23
 145 916 145 916 403 1042 c 0,24,25
 585 1133 585 1133 954 1133 c 1,26,-1
 1065 1325 l 1,27,-1
 1198 1325 l 1,28,-1
 1090 1133 l 1,29,-1
 1264 1133 l 1,0,-1
887 1018 m 1,30,-1
 768 1018 l 2,31,32
 340 1018 340 1018 264 645 c 1,33,-1
 672 645 l 1,34,-1
 887 1018 l 1,30,-1
608 524 m 1,35,-1
 266 524 l 1,36,37
 320 341 320 341 449 233 c 1,38,-1
 608 524 l 1,35,-1
EndSplineSet
EndChar

StartChar: angle
Encoding: 208 8211 145
Width: 1573
GlyphClass: 1
Flags: W
LayerCount: 2
Fore
SplineSet
1423 1387 m 1,0,-1
 1492 1315 l 1,1,-1
 311 94 l 1,2,-1
 1423 94 l 1,3,-1
 1423 0 l 1,4,-1
 83 0 l 1,5,-1
 1423 1387 l 1,0,-1
EndSplineSet
EndChar

StartChar: gradient
Encoding: 209 8212 146
Width: 1679
GlyphClass: 1
Flags: W
LayerCount: 2
Fore
SplineSet
813 -188 m 1,0,-1
 0 1640 l 1,1,-1
 1735 1640 l 1,2,-1
 813 -188 l 1,0,-1
901 229 m 1,3,-1
 1563 1534 l 1,4,-1
 315 1534 l 1,5,-1
 901 229 l 1,3,-1
EndSplineSet
EndChar

StartChar: registerserif
Encoding: 210 8220 147
Width: 1507
GlyphClass: 1
Flags: W
LayerCount: 2
Fore
SplineSet
758 1491 m 0,0,1
 1092 1491 1092 1491 1302 1281 c 0,2,3
 1511 1070 1511 1070 1511 737 c 0,4,5
 1511 405 1511 405 1300 195 c 0,6,7
 1090 -16 1090 -16 758 -16 c 0,8,9
 430 -16 430 -16 217 197 c 0,10,11
 2 410 2 410 2 737 c 0,12,13
 2 1065 2 1065 217 1278 c 0,14,15
 430 1491 430 1491 758 1491 c 0,0,1
758 1366 m 0,16,17
 481 1366 481 1366 304 1189 c 128,-1,18
 127 1012 127 1012 127 735 c 0,19,20
 127 462 127 462 306 285 c 0,21,22
 487 106 487 106 758 106 c 0,23,24
 1034 106 1034 106 1210 283 c 0,25,26
 1386 458 1386 458 1386 735 c 0,27,28
 1386 1014 1386 1014 1211 1190 c 0,29,30
 1037 1366 1037 1366 758 1366 c 0,16,17
426 319 m 1,31,-1
 426 1130 l 1,32,-1
 707 1130 l 2,33,34
 1053 1130 1053 1130 1053 911 c 0,35,36
 1053 815 1053 815 986 753 c 0,37,38
 919 689 919 689 821 682 c 1,39,40
 900 644 900 644 985 522 c 0,41,42
 992 513 992 513 1110 319 c 1,43,-1
 948 319 l 1,44,45
 859 495 859 495 829 537 c 0,46,47
 738 666 738 666 635 666 c 2,48,-1
 557 666 l 1,49,-1
 557 319 l 1,50,-1
 426 319 l 1,31,-1
557 776 m 1,51,-1
 717 776 l 2,52,53
 913 776 913 776 913 899 c 128,-1,54
 913 1022 913 1022 707 1022 c 2,55,-1
 557 1022 l 1,56,-1
 557 776 l 1,51,-1
EndSplineSet
EndChar

StartChar: copyrightserif
Encoding: 211 8221 148
Width: 1507
GlyphClass: 1
Flags: W
LayerCount: 2
Fore
SplineSet
758 1491 m 0,0,1
 1092 1491 1092 1491 1302 1281 c 0,2,3
 1511 1070 1511 1070 1511 737 c 0,4,5
 1511 405 1511 405 1300 195 c 0,6,7
 1090 -16 1090 -16 758 -16 c 0,8,9
 430 -16 430 -16 217 197 c 0,10,11
 2 410 2 410 2 737 c 0,12,13
 2 1065 2 1065 217 1278 c 0,14,15
 430 1491 430 1491 758 1491 c 0,0,1
758 1368 m 0,16,17
 481 1368 481 1368 304 1191 c 128,-1,18
 127 1014 127 1014 127 737 c 0,19,20
 127 466 127 466 306 287 c 0,21,22
 485 109 485 109 758 109 c 0,23,24
 1035 109 1035 109 1210 285 c 0,25,26
 1386 460 1386 460 1386 737 c 0,27,28
 1386 1017 1386 1017 1211 1192 c 0,29,30
 1037 1368 1037 1368 758 1368 c 0,16,17
999 612 m 1,31,-1
 1122 575 l 1,32,33
 1096 450 1096 450 993 377 c 0,34,35
 890 303 890 303 760 303 c 0,36,37
 573 303 573 303 465 426 c 0,38,39
 362 544 362 544 362 733 c 0,40,41
 362 932 362 932 467 1046 c 0,42,43
 572 1159 572 1159 768 1159 c 0,44,45
 1035 1159 1035 1159 1108 924 c 1,46,-1
 989 895 l 1,47,48
 927 1049 927 1049 764 1049 c 0,49,50
 634 1049 634 1049 561 952 c 0,51,52
 500 869 500 869 500 731 c 0,53,54
 500 598 500 598 557 514 c 0,55,56
 623 420 623 420 752 420 c 0,57,58
 952 420 952 420 999 612 c 1,31,-1
EndSplineSet
EndChar

StartChar: trademarkserif
Encoding: 212 8216 149
Width: 2048
GlyphClass: 1
Flags: W
LayerCount: 2
Fore
SplineSet
487 649 m 1,0,-1
 625 649 l 1,1,-1
 625 1343 l 1,2,-1
 891 1343 l 1,3,-1
 891 1466 l 1,4,-1
 225 1466 l 1,5,-1
 225 1343 l 1,6,-1
 487 1343 l 1,7,-1
 487 649 l 1,0,-1
983 649 m 1,8,-1
 1108 649 l 1,9,-1
 1108 1343 l 1,10,-1
 1325 649 l 1,11,-1
 1450 649 l 1,12,-1
 1659 1333 l 1,13,-1
 1659 649 l 1,14,-1
 1784 649 l 1,15,-1
 1784 1466 l 1,16,-1
 1587 1466 l 1,17,-1
 1389 815 l 1,18,-1
 1182 1466 l 1,19,-1
 983 1466 l 1,20,-1
 983 649 l 1,8,-1
EndSplineSet
EndChar

StartChar: product
Encoding: 213 8217 150
Width: 1804
GlyphClass: 1
Flags: W
LayerCount: 2
Fore
SplineSet
1296 1458 m 1,0,-1
 502 1458 l 1,1,-1
 502 10 l 2,2,3
 502 -85 502 -85 557 -119 c 0,4,5
 599 -145 599 -145 700 -145 c 1,6,-1
 700 -184 l 1,7,-1
 102 -184 l 1,8,-1
 102 -145 l 1,9,10
 204 -145 204 -145 246 -119 c 0,11,12
 301 -85 301 -85 301 10 c 2,13,-1
 301 1343 l 2,14,15
 301 1437 301 1437 246 1473 c 0,16,17
 202 1499 202 1499 102 1499 c 1,18,-1
 102 1536 l 1,19,-1
 1696 1536 l 1,20,-1
 1696 1499 l 1,21,22
 1596 1499 1596 1499 1552 1473 c 0,23,24
 1499 1437 1499 1437 1499 1343 c 2,25,-1
 1499 10 l 2,26,27
 1499 -83 1499 -83 1552 -119 c 0,28,29
 1592 -145 1592 -145 1678 -145 c 2,30,-1
 1696 -145 l 1,31,-1
 1696 -184 l 1,32,-1
 1100 -184 l 1,33,-1
 1100 -147 l 1,34,-1
 1154 -144 l 1,35,36
 1296 -126 1296 -126 1296 10 c 2,37,-1
 1296 1458 l 1,0,-1
EndSplineSet
EndChar

StartChar: radical
Encoding: 214 247 151
Width: 1091
GlyphClass: 1
Flags: W
LayerCount: 2
Fore
SplineSet
625 0 m 1,0,-1
 238 694 l 1,1,-1
 90 637 l 1,2,-1
 66 668 l 1,3,-1
 317 766 l 1,4,-1
 662 150 l 1,5,-1
 1077 1647 l 1,6,-1
 1130 1647 l 1,7,-1
 674 0 l 1,8,-1
 625 0 l 1,0,-1
EndSplineSet
EndChar

StartChar: dotmath
Encoding: 215 9674 152
Width: 1183
GlyphClass: 1
Flags: W
LayerCount: 2
Fore
SplineSet
469 592 m 128,-1,1
 469 634 469 634 502 669 c 0,2,3
 535 702 535 702 578 702 c 0,4,5
 624 702 624 702 655 670 c 0,6,7
 688 637 688 637 688 592 c 128,-1,8
 688 547 688 547 655 514 c 0,9,10
 624 481 624 481 578 481 c 0,11,12
 536 481 536 481 502 515 c 0,13,0
 469 550 469 550 469 592 c 128,-1,1
EndSplineSet
EndChar

StartChar: logicalnot
Encoding: 216 255 153
Width: 1329
GlyphClass: 1
Flags: W
LayerCount: 2
Fore
SplineSet
1120 801 m 1,0,-1
 1122 272 l 1,1,-1
 1028 272 l 1,2,-1
 1028 727 l 1,3,-1
 117 727 l 1,4,-1
 117 801 l 1,5,-1
 1120 801 l 1,0,-1
EndSplineSet
EndChar

StartChar: logicaland
Encoding: 217 376 154
Width: 681
GlyphClass: 1
Flags: W
LayerCount: 2
Fore
SplineSet
666 928 m 1,0,-1
 631 924 l 1,1,-1
 360 1346 l 1,2,-1
 76 907 l 1,3,-1
 33 928 l 1,4,-1
 362 1686 l 1,5,-1
 666 928 l 1,0,-1
EndSplineSet
EndChar

StartChar: logicalor
Encoding: 218 8260 155
Width: 681
GlyphClass: 1
Flags: W
LayerCount: 2
Fore
SplineSet
666 1665 m 1,0,-1
 362 907 l 1,1,-1
 33 1665 l 1,2,-1
 76 1686 l 1,3,-1
 360 1247 l 1,4,-1
 631 1669 l 1,5,-1
 666 1665 l 1,0,-1
EndSplineSet
EndChar

StartChar: arrowdblboth
Encoding: 219 8364 156
AltUni2: 0000a4.ffffffff.0
Width: 1900
GlyphClass: 1
Flags: W
LayerCount: 2
Fore
SplineSet
1505 727 m 1,0,-1
 395 723 l 1,1,-1
 258 618 l 1,2,-1
 418 451 l 1,3,-1
 1489 451 l 1,4,-1
 1649 616 l 1,5,-1
 1505 727 l 1,0,-1
1395 352 m 1,6,-1
 512 352 l 1,7,8
 616 251 616 251 616 225 c 0,9,10
 616 176 616 176 561 176 c 0,11,12
 526 176 526 176 327 381 c 0,13,14
 127 586 127 586 127 623 c 0,15,16
 127 656 127 656 337 822 c 0,17,18
 546 989 546 989 588 989 c 0,19,20
 639 989 639 989 639 936 c 0,21,22
 639 900 639 900 522 821 c 1,23,-1
 1380 821 l 1,24,25
 1268 909 1268 909 1268 934 c 0,26,27
 1268 989 1268 989 1317 989 c 0,28,29
 1362 989 1362 989 1570 824 c 0,30,31
 1778 658 1778 658 1778 623 c 0,32,33
 1778 583 1778 583 1580 379 c 0,34,35
 1382 174 1382 174 1343 174 c 0,36,37
 1290 174 1290 174 1290 225 c 0,38,39
 1290 250 1290 250 1395 352 c 1,6,-1
EndSplineSet
EndChar

StartChar: arrowdblleft
Encoding: 220 8249 157
Width: 1658
GlyphClass: 1
Flags: W
LayerCount: 2
Fore
SplineSet
139 629 m 0,0,1
 139 668 139 668 346 831 c 0,2,3
 552 995 552 995 600 995 c 0,4,5
 649 995 649 995 649 942 c 0,6,7
 649 904 649 904 532 827 c 1,8,-1
 1561 827 l 1,9,-1
 1561 729 l 1,10,-1
 406 729 l 1,11,-1
 268 625 l 1,12,-1
 428 457 l 1,13,-1
 1561 457 l 1,14,-1
 1561 358 l 1,15,-1
 524 358 l 1,16,17
 627 258 627 258 627 231 c 0,18,19
 627 182 627 182 573 182 c 0,20,21
 539 182 539 182 339 388 c 128,-1,22
 139 594 139 594 139 629 c 0,0,1
EndSplineSet
EndChar

StartChar: arrowdblright
Encoding: 222 64257 159
Width: 1634
GlyphClass: 1
Flags: W
LayerCount: 2
Fore
SplineSet
1106 182 m 0,0,1
 1053 182 1053 182 1053 231 c 0,2,3
 1053 263 1053 263 1157 358 c 1,4,-1
 119 358 l 1,5,-1
 119 457 l 1,6,-1
 1251 457 l 1,7,-1
 1411 625 l 1,8,-1
 1274 729 l 1,9,-1
 119 729 l 1,10,-1
 119 827 l 1,11,-1
 1147 827 l 1,12,13
 1030 904 1030 904 1030 942 c 0,14,15
 1030 995 1030 995 1079 995 c 0,16,17
 1119 995 1119 995 1329 827 c 0,18,19
 1540 659 1540 659 1540 629 c 0,20,21
 1540 596 1540 596 1339 389 c 0,22,23
 1140 182 1140 182 1106 182 c 0,0,1
EndSplineSet
EndChar

StartChar: lozenge
Encoding: 224 8225 161
Width: 1012
GlyphClass: 1
Flags: W
LayerCount: 2
Fore
SplineSet
547 0 m 1,0,-1
 465 0 l 1,1,-1
 8 719 l 1,2,-1
 465 1440 l 1,3,-1
 547 1440 l 1,4,-1
 1006 721 l 1,5,-1
 547 0 l 1,0,-1
508 1286 m 1,6,-1
 154 721 l 1,7,-1
 508 147 l 1,8,-1
 860 721 l 1,9,-1
 508 1286 l 1,6,-1
EndSplineSet
EndChar

StartChar: angleleft
Encoding: 225 183 162
Width: 686
GlyphClass: 1
Flags: W
LayerCount: 2
Fore
SplineSet
86 592 m 1,0,-1
 578 1606 l 1,1,-1
 625 1581 l 1,2,-1
 145 592 l 1,3,-1
 625 -397 l 1,4,-1
 578 -422 l 1,5,-1
 86 592 l 1,0,-1
EndSplineSet
EndChar

StartChar: registersans
Encoding: 226 8218 163
Width: 1507
GlyphClass: 1
Flags: W
LayerCount: 2
Fore
SplineSet
758 1491 m 0,0,1
 1092 1491 1092 1491 1302 1281 c 0,2,3
 1511 1070 1511 1070 1511 737 c 0,4,5
 1511 405 1511 405 1300 195 c 0,6,7
 1090 -16 1090 -16 758 -16 c 0,8,9
 430 -16 430 -16 217 197 c 0,10,11
 2 410 2 410 2 737 c 0,12,13
 2 1065 2 1065 217 1278 c 0,14,15
 430 1491 430 1491 758 1491 c 0,0,1
758 1366 m 0,16,17
 481 1366 481 1366 304 1189 c 128,-1,18
 127 1012 127 1012 127 735 c 0,19,20
 127 462 127 462 306 285 c 0,21,22
 487 106 487 106 758 106 c 0,23,24
 1034 106 1034 106 1210 283 c 0,25,26
 1386 458 1386 458 1386 735 c 0,27,28
 1386 1014 1386 1014 1211 1190 c 0,29,30
 1037 1366 1037 1366 758 1366 c 0,16,17
426 319 m 1,31,-1
 426 1130 l 1,32,-1
 707 1130 l 2,33,34
 1053 1130 1053 1130 1053 911 c 0,35,36
 1053 815 1053 815 986 753 c 0,37,38
 919 689 919 689 821 682 c 1,39,40
 900 644 900 644 985 522 c 0,41,42
 992 513 992 513 1110 319 c 1,43,-1
 948 319 l 1,44,45
 859 495 859 495 829 537 c 0,46,47
 738 666 738 666 635 666 c 2,48,-1
 557 666 l 1,49,-1
 557 319 l 1,50,-1
 426 319 l 1,31,-1
557 776 m 1,51,-1
 717 776 l 2,52,53
 913 776 913 776 913 899 c 128,-1,54
 913 1022 913 1022 707 1022 c 2,55,-1
 557 1022 l 1,56,-1
 557 776 l 1,51,-1
EndSplineSet
EndChar

StartChar: copyrightsans
Encoding: 227 8222 164
Width: 1507
GlyphClass: 1
Flags: W
LayerCount: 2
Fore
SplineSet
758 1491 m 0,0,1
 1092 1491 1092 1491 1302 1281 c 0,2,3
 1511 1070 1511 1070 1511 737 c 0,4,5
 1511 405 1511 405 1300 195 c 0,6,7
 1090 -16 1090 -16 758 -16 c 0,8,9
 430 -16 430 -16 217 197 c 0,10,11
 2 410 2 410 2 737 c 0,12,13
 2 1065 2 1065 217 1278 c 0,14,15
 430 1491 430 1491 758 1491 c 0,0,1
758 1368 m 0,16,17
 481 1368 481 1368 304 1191 c 128,-1,18
 127 1014 127 1014 127 737 c 0,19,20
 127 466 127 466 306 287 c 0,21,22
 485 109 485 109 758 109 c 0,23,24
 1035 109 1035 109 1210 285 c 0,25,26
 1386 460 1386 460 1386 737 c 0,27,28
 1386 1017 1386 1017 1211 1192 c 0,29,30
 1037 1368 1037 1368 758 1368 c 0,16,17
999 612 m 1,31,-1
 1122 575 l 1,32,33
 1096 450 1096 450 993 377 c 0,34,35
 890 303 890 303 760 303 c 0,36,37
 573 303 573 303 465 426 c 0,38,39
 362 544 362 544 362 733 c 0,40,41
 362 932 362 932 467 1046 c 0,42,43
 572 1159 572 1159 768 1159 c 0,44,45
 1035 1159 1035 1159 1108 924 c 1,46,-1
 989 895 l 1,47,48
 927 1049 927 1049 764 1049 c 0,49,50
 634 1049 634 1049 561 952 c 0,51,52
 500 869 500 869 500 731 c 0,53,54
 500 598 500 598 557 514 c 0,55,56
 623 420 623 420 752 420 c 0,57,58
 952 420 952 420 999 612 c 1,31,-1
EndSplineSet
EndChar

StartChar: trademarksans
Encoding: 228 8240 165
Width: 2048
GlyphClass: 1
Flags: W
LayerCount: 2
Fore
SplineSet
487 649 m 1,0,-1
 625 649 l 1,1,-1
 625 1343 l 1,2,-1
 891 1343 l 1,3,-1
 891 1466 l 1,4,-1
 225 1466 l 1,5,-1
 225 1343 l 1,6,-1
 487 1343 l 1,7,-1
 487 649 l 1,0,-1
983 649 m 1,8,-1
 1108 649 l 1,9,-1
 1108 1343 l 1,10,-1
 1325 649 l 1,11,-1
 1450 649 l 1,12,-1
 1659 1333 l 1,13,-1
 1659 649 l 1,14,-1
 1784 649 l 1,15,-1
 1784 1466 l 1,16,-1
 1587 1466 l 1,17,-1
 1389 815 l 1,18,-1
 1182 1466 l 1,19,-1
 983 1466 l 1,20,-1
 983 649 l 1,8,-1
EndSplineSet
EndChar

StartChar: summation
Encoding: 229 194 166
Width: 1425
GlyphClass: 1
Flags: W
LayerCount: 2
Fore
SplineSet
16 -133 m 1,0,-1
 43 27 l 1,1,-1
 776 653 l 1,2,-1
 322 1432 l 1,3,-1
 340 1538 l 1,4,-1
 1395 1538 l 1,5,-1
 1346 1243 l 1,6,-1
 1241 1243 l 1,7,8
 1241 1265 1241 1265 1252 1317 c 0,9,10
 1264 1366 1264 1366 1264 1391 c 0,11,12
 1264 1447 1264 1447 1133 1447 c 2,13,-1
 588 1447 l 1,14,-1
 987 749 l 1,15,-1
 145 27 l 1,16,-1
 924 27 l 2,17,18
 1026 27 1026 27 1061 68 c 0,19,20
 1097 112 1097 112 1116 236 c 1,21,-1
 1217 236 l 1,22,-1
 1157 -133 l 1,23,-1
 16 -133 l 1,0,-1
EndSplineSet
EndChar

StartChar: parenlefttp
Encoding: 230 202 167
Width: 696
GlyphClass: 1
Flags: W
LayerCount: 2
Fore
SplineSet
281 -166 m 1,0,-1
 172 -166 l 1,1,-1
 172 771 l 2,2,3
 172 1568 172 1568 573 1897 c 1,4,-1
 573 1846 l 1,5,6
 281 1556 281 1556 281 771 c 2,7,-1
 281 -166 l 1,0,-1
EndSplineSet
EndChar

StartChar: parenleftex
Encoding: 231 193 168
Width: 696
GlyphClass: 1
Flags: W
LayerCount: 2
Fore
SplineSet
281 -166 m 1,0,-1
 172 -166 l 1,1,-1
 172 1897 l 1,2,-1
 281 1897 l 1,3,-1
 281 -166 l 1,0,-1
EndSplineSet
EndChar

StartChar: parenleftbt
Encoding: 232 203 169
Width: 696
GlyphClass: 1
Flags: W
LayerCount: 2
Fore
SplineSet
573 -117 m 1,0,-1
 573 -166 l 1,1,2
 172 172 172 172 172 958 c 2,3,-1
 172 1897 l 1,4,-1
 281 1897 l 1,5,-1
 281 958 l 2,6,7
 281 163 281 163 573 -117 c 1,0,-1
EndSplineSet
EndChar

StartChar: bracketlefttp
Encoding: 233 200 170
Width: 577
GlyphClass: 1
Flags: W
LayerCount: 2
Fore
SplineSet
150 -166 m 1,0,-1
 150 1897 l 1,1,-1
 504 1897 l 1,2,-1
 504 1827 l 1,3,-1
 248 1827 l 1,4,-1
 248 -166 l 1,5,-1
 150 -166 l 1,0,-1
EndSplineSet
EndChar

StartChar: bracketleftex
Encoding: 234 205 171
Width: 577
GlyphClass: 1
Flags: W
LayerCount: 2
Fore
SplineSet
150 -166 m 1,0,-1
 150 1897 l 1,1,-1
 248 1897 l 1,2,-1
 248 -166 l 1,3,-1
 150 -166 l 1,0,-1
EndSplineSet
EndChar

StartChar: bracketleftbt
Encoding: 235 206 172
Width: 577
GlyphClass: 1
Flags: W
LayerCount: 2
Fore
SplineSet
150 -166 m 1,0,-1
 150 1897 l 1,1,-1
 248 1897 l 1,2,-1
 248 -95 l 1,3,-1
 504 -95 l 1,4,-1
 504 -166 l 1,5,-1
 150 -166 l 1,0,-1
EndSplineSet
EndChar

StartChar: bracelefttp
Encoding: 236 207 173
Width: 1012
GlyphClass: 1
Flags: W
LayerCount: 2
Fore
SplineSet
863 1897 m 1,0,-1
 841 1897 l 2,1,2
 457 1897 457 1897 457 1281 c 2,3,-1
 457 -166 l 1,4,-1
 555 -166 l 1,5,-1
 555 1343 l 2,6,7
 555 1831 555 1831 853 1831 c 0,8,9
 859 1831 859 1831 863 1831 c 1,10,-1
 863 1897 l 1,0,-1
EndSplineSet
EndChar

StartChar: braceleftmid
Encoding: 237 204 174
Width: 1012
GlyphClass: 1
Flags: W
LayerCount: 2
Fore
SplineSet
457 -166 m 1,0,-1
 457 542 l 2,1,2
 457 833 457 833 149 833 c 1,3,-1
 149 899 l 1,4,5
 457 899 457 899 457 1190 c 2,6,-1
 457 1897 l 1,7,-1
 555 1897 l 1,8,-1
 555 1278 l 2,9,10
 555 866 555 866 277 866 c 1,11,12
 555 866 555 866 555 454 c 2,13,-1
 555 -166 l 1,14,-1
 457 -166 l 1,0,-1
EndSplineSet
EndChar

StartChar: braceleftbt
Encoding: 238 211 175
Width: 1012
GlyphClass: 1
Flags: W
LayerCount: 2
Fore
SplineSet
863 -166 m 1,0,-1
 841 -166 l 2,1,2
 457 -166 457 -166 457 450 c 2,3,-1
 457 1897 l 1,4,-1
 555 1897 l 1,5,-1
 555 388 l 2,6,7
 555 -100 555 -100 853 -100 c 0,8,9
 859 -100 859 -100 863 -100 c 1,10,-1
 863 -166 l 1,0,-1
EndSplineSet
EndChar

StartChar: braceex
Encoding: 239 212 176
Width: 1012
GlyphClass: 1
Flags: W
LayerCount: 2
Fore
SplineSet
457 -166 m 1,0,-1
 457 1897 l 1,1,-1
 555 1897 l 1,2,-1
 555 -166 l 1,3,-1
 457 -166 l 1,0,-1
EndSplineSet
EndChar

StartChar: dummy
Encoding: 257 -1 177
Width: 1916
GlyphClass: 1
Flags: W
LayerCount: 2
Fore
SplineSet
1726 -1 m 1,0,-1
 182 -1 l 1,1,-1
 182 437 l 1,2,-1
 309 439 l 1,3,-1
 309 515 l 1,4,-1
 242 517 l 1,5,-1
 242 1638 l 1,6,-1
 1667 1638 l 1,7,-1
 1667 517 l 1,8,-1
 1597 515 l 1,9,-1
 1597 439 l 1,10,-1
 1726 437 l 1,11,-1
 1726 -1 l 1,0,-1
1614 571 m 1,12,-1
 1614 1584 l 1,13,-1
 295 1584 l 1,14,-1
 295 571 l 1,15,-1
 1614 571 l 1,12,-1
1542 439 m 1,16,-1
 1542 515 l 1,17,-1
 365 515 l 1,18,-1
 365 439 l 1,19,-1
 1542 439 l 1,16,-1
1673 52 m 1,20,-1
 1673 384 l 1,21,-1
 236 384 l 1,22,-1
 236 52 l 1,23,-1
 1673 52 l 1,20,-1
1501 1081 m 0,24,25
 1501 927 1501 927 1477 681 c 1,26,-1
 432 681 l 1,27,28
 408 927 408 927 408 1081 c 0,29,30
 408 1236 408 1236 432 1478 c 1,31,-1
 1477 1478 l 1,32,33
 1501 1232 1501 1232 1501 1081 c 0,24,25
1446 1081 m 0,34,35
 1446 1287 1446 1287 1425 1425 c 1,36,-1
 483 1425 l 1,37,38
 463 1283 463 1283 463 1081 c 0,39,40
 463 876 463 876 483 734 c 1,41,-1
 1425 734 l 1,42,43
 1446 872 1446 872 1446 1081 c 0,34,35
1393 259 m 1,44,45
 1412 274 1412 274 1454 274 c 0,46,47
 1494 274 1494 274 1513 259 c 1,48,-1
 1597 259 l 1,49,-1
 1597 208 l 1,50,-1
 1513 208 l 1,51,52
 1493 194 1493 194 1454 194 c 0,53,54
 1413 194 1413 194 1393 208 c 1,55,-1
 1282 208 l 1,56,-1
 1282 259 l 1,57,-1
 1393 259 l 1,44,45
367 263 m 1,58,-1
 915 263 l 1,59,-1
 915 163 l 1,60,-1
 367 163 l 1,61,-1
 367 263 l 1,58,-1
401 237 m 1,62,-1
 391 226 l 1,63,-1
 401 216 l 1,64,-1
 893 216 l 1,65,-1
 903 226 l 1,66,-1
 893 237 l 1,67,-1
 401 237 l 1,62,-1
1004 970 m 1,68,-1
 999 949 l 1,69,-1
 993 949 l 1,70,-1
 997 970 l 1,71,-1
 1004 970 l 1,68,-1
1004 927 m 1,72,-1
 993 908 l 1,73,-1
 987 849 l 2,74,75
 981 804 981 804 940 804 c 0,76,77
 894 804 894 804 883 921 c 1,78,-1
 901 925 l 1,79,-1
 905 945 l 1,80,-1
 983 945 l 1,81,-1
 985 929 l 1,82,-1
 1004 945 l 1,83,-1
 1004 927 l 1,72,-1
1130 1193 m 1,84,-1
 1067 1128 l 1,85,-1
 1044 1169 l 1,86,-1
 1130 1193 l 1,84,-1
961 1220 m 1,87,-1
 913 1220 l 1,88,-1
 940 1373 l 1,89,-1
 961 1220 l 1,87,-1
1032 1246 m 1,90,-1
 1028 1187 l 1,91,-1
 989 1214 l 1,92,-1
 1032 1246 l 1,90,-1
1188 1083 m 1,93,-1
 1069 1056 l 1,94,-1
 1069 1105 l 1,95,-1
 1087 1105 l 2,96,97
 1140 1105 1140 1105 1188 1083 c 1,93,-1
1026 1158 m 1,98,99
 1010 1174 1010 1174 969 1189 c 1,100,-1
 973 1199 l 1,101,102
 992 1186 992 1186 1026 1158 c 1,98,99
1036 1140 m 1,103,-1
 1032 1136 l 1,104,-1
 1022 1148 l 1,105,-1
 1026 1152 l 1,106,-1
 1036 1140 l 1,103,-1
1044 1103 m 1,107,-1
 1040 1103 l 1,108,-1
 1036 1130 l 1,109,-1
 1042 1130 l 1,110,-1
 1044 1103 l 1,107,-1
965 1193 m 1,111,-1
 944 1193 l 1,112,-1
 944 1197 l 1,113,-1
 965 1197 l 1,114,-1
 965 1193 l 1,111,-1
1042 1062 m 1,115,-1
 1036 1062 l 1,116,-1
 1036 1095 l 1,117,-1
 1042 1095 l 1,118,-1
 1042 1062 l 1,115,-1
940 1199 m 1,119,-1
 907 1189 l 1,120,-1
 911 1199 l 1,121,-1
 940 1199 l 1,119,-1
897 1214 m 1,122,123
 884 1203 884 1203 860 1191 c 1,124,-1
 850 1259 l 1,125,-1
 897 1214 l 1,122,123
1090 1003 m 1,126,-1
 1042 1011 l 1,127,-1
 1061 1038 l 1,128,-1
 1090 1003 l 1,126,-1
895 1185 m 1,129,-1
 874 1171 l 1,130,-1
 872 1175 l 1,131,-1
 891 1189 l 1,132,-1
 895 1185 l 1,129,-1
1032 1033 m 1,133,-1
 1018 1007 l 1,134,-1
 1014 1009 l 1,135,-1
 1028 1035 l 1,136,-1
 1032 1033 l 1,133,-1
874 1167 m 1,137,-1
 858 1156 l 1,138,-1
 856 1160 l 1,139,-1
 870 1171 l 1,140,-1
 874 1167 l 1,137,-1
995 1072 m 1,141,-1
 963 1068 l 1,142,-1
 944 1078 l 1,143,144
 921 1068 921 1068 895 1068 c 1,145,146
 901 1093 901 1093 940 1093 c 2,147,-1
 956 1093 l 1,148,-1
 989 1087 l 1,149,-1
 995 1072 l 1,141,-1
1016 1001 m 1,150,-1
 1001 974 l 1,151,-1
 997 976 l 1,152,-1
 1010 1001 l 1,153,-1
 1016 1001 l 1,150,-1
860 1150 m 1,154,-1
 844 1124 l 1,155,-1
 840 1126 l 1,156,-1
 854 1152 l 1,157,-1
 860 1150 l 1,154,-1
932 1048 m 1,158,-1
 928 1048 l 1,159,-1
 924 1062 l 1,160,-1
 930 1062 l 1,161,-1
 932 1048 l 1,158,-1
956 1031 m 1,162,-1
 954 1015 l 1,163,-1
 948 1015 l 1,164,-1
 952 1031 l 1,165,-1
 956 1031 l 1,162,-1
840 1167 m 1,166,167
 830 1143 830 1143 817 1128 c 1,168,-1
 715 1226 l 1,169,-1
 840 1167 l 1,166,167
987 1066 m 1,170,-1
 956 976 l 1,171,-1
 983 951 l 1,172,-1
 936 962 l 1,173,-1
 932 951 l 1,174,-1
 907 951 l 1,175,-1
 932 974 l 1,176,-1
 907 1062 l 1,177,178
 913 1041 913 1041 936 1005 c 1,179,-1
 936 1023 l 1,180,-1
 946 1001 l 1,181,-1
 946 1011 l 1,182,-1
 961 1005 l 1,183,184
 968 1030 968 1030 987 1066 c 1,170,-1
842 1089 m 1,185,-1
 836 1089 l 1,186,-1
 834 1119 l 1,187,-1
 838 1119 l 1,188,-1
 842 1089 l 1,185,-1
842 1066 m 1,189,-1
 838 1066 l 1,190,-1
 834 1081 l 1,191,-1
 838 1081 l 1,192,-1
 842 1066 l 1,189,-1
854 1033 m 1,193,-1
 840 1048 l 1,194,-1
 846 1060 l 1,195,-1
 854 1033 l 1,193,-1
870 1001 m 1,196,-1
 866 999 l 1,197,-1
 850 1025 l 1,198,-1
 856 1025 l 1,199,-1
 870 1001 l 1,196,-1
817 1056 m 1,200,-1
 766 1089 l 1,201,-1
 815 1105 l 1,202,-1
 817 1081 l 1,203,-1
 817 1056 l 1,200,-1
881 978 m 1,204,-1
 874 978 l 1,205,-1
 874 992 l 1,206,-1
 881 992 l 1,207,-1
 881 978 l 1,204,-1
889 970 m 1,208,-1
 887 937 l 1,209,-1
 881 937 l 1,210,-1
 885 970 l 1,211,-1
 889 970 l 1,208,-1
848 999 m 1,212,-1
 764 984 l 1,213,-1
 823 1038 l 1,214,-1
 848 999 l 1,212,-1
EndSplineSet
EndChar

StartChar: angleright
Encoding: 241 210 178
Width: 686
GlyphClass: 1
Flags: W
LayerCount: 2
Fore
SplineSet
600 592 m 1,0,-1
 109 -422 l 1,1,-1
 59 -397 l 1,2,-1
 539 592 l 1,3,-1
 59 1581 l 1,4,-1
 109 1606 l 1,5,-1
 600 592 l 1,0,-1
EndSplineSet
EndChar

StartChar: integraltp
Encoding: 243 219 180
Width: 696
GlyphClass: 1
Flags: W
LayerCount: 2
Fore
SplineSet
281 -166 m 1,0,-1
 172 -166 l 1,1,-1
 172 771 l 2,2,3
 172 1568 172 1568 573 1897 c 1,4,-1
 573 1846 l 1,5,6
 281 1556 281 1556 281 771 c 2,7,-1
 281 -166 l 1,0,-1
EndSplineSet
EndChar

StartChar: integralex
Encoding: 244 217 181
Width: 1183
GlyphClass: 1
Flags: W
LayerCount: 2
Fore
SplineSet
506 -295 m 1,0,-1
 506 1616 l 1,1,-1
 678 1616 l 1,2,-1
 678 -295 l 1,3,-1
 506 -295 l 1,0,-1
EndSplineSet
EndChar

StartChar: integralbt
Encoding: 245 305 182
Width: 1012
GlyphClass: 1
Flags: W
LayerCount: 2
Fore
SplineSet
149 -166 m 5,0,-1
 171 -166 l 6,1,2
 555 -166 555 -166 555 450 c 6,3,-1
 555 1897 l 5,4,-1
 457 1897 l 5,5,-1
 457 388 l 6,6,7
 457 -100 457 -100 159 -100 c 4,8,9
 153 -100 153 -100 149 -100 c 5,10,-1
 149 -166 l 5,0,-1
EndSplineSet
EndChar

StartChar: parenrightbt
Encoding: 248 175 185
Width: 1012
GlyphClass: 1
Flags: W
LayerCount: 2
Fore
SplineSet
149 -166 m 5,0,-1
 171 -166 l 6,1,2
 555 -166 555 -166 555 450 c 6,3,-1
 555 1897 l 5,4,-1
 457 1897 l 5,5,-1
 457 388 l 6,6,7
 457 -100 457 -100 159 -100 c 4,8,9
 153 -100 153 -100 149 -100 c 5,10,-1
 149 -166 l 5,0,-1
EndSplineSet
EndChar

StartChar: bracerightbt
Encoding: 254 731 191
Width: 1012
GlyphClass: 1
Flags: W
LayerCount: 2
Fore
SplineSet
149 -166 m 5,0,-1
 171 -166 l 6,1,2
 555 -166 555 -166 555 450 c 6,3,-1
 555 1897 l 5,4,-1
 457 1897 l 5,5,-1
 457 388 l 6,6,7
 457 -100 457 -100 159 -100 c 4,8,9
 153 -100 153 -100 149 -100 c 5,10,-1
 149 -166 l 5,0,-1
EndSplineSet
EndChar
